# https://github.com/mikedh/trimesh

o walls
v -2.02998606 -1.07181315 0.00000000 0.88235294 0.87058824 0.83921569
v -2.02998606 -1.07181315 2.90956007 0.88235294 0.87058824 0.83921569
v -2.22998606 -1.07181315 0.00000000 0.88235294 0.87058824 0.83921569
v -2.22998606 -1.07181315 2.90956007 0.88235294 0.87058824 0.83921569
v -2.02998606 2.86234774 0.00000000 0.88235294 0.87058824 0.83921569
v -2.02998606 2.86234774 2.90956007 0.88235294 0.87058824 0.83921569
v -2.22998606 2.86234774 0.00000000 0.88235294 0.87058824 0.83921569
v -2.22998606 2.86234774 2.90956007 0.88235294 0.87058824 0.83921569
v -1.78978005 -3.19340673 0.00000000 0.88235294 0.87058824 0.83921569
v -1.78978005 -3.19340673 2.90956007 0.88235294 0.87058824 0.83921569
v -1.98978005 -3.19340673 0.00000000 0.88235294 0.87058824 0.83921569
v -1.98978005 -3.19340673 2.90956007 0.88235294 0.87058824 0.83921569
v -1.78978005 -1.81498479 0.00000000 0.88235294 0.87058824 0.83921569
v -1.78978005 -1.81498479 2.90956007 0.88235294 0.87058824 0.83921569
v -1.98978005 -1.81498479 0.00000000 0.88235294 0.87058824 0.83921569
v -1.98978005 -1.81498479 2.90956007 0.88235294 0.87058824 0.83921569
v -1.78978005 2.13276380 0.00000000 0.88235294 0.87058824 0.83921569
v -1.78978005 2.13276380 2.90956007 0.88235294 0.87058824 0.83921569
v -1.98978005 2.13276380 0.00000000 0.88235294 0.87058824 0.83921569
v -1.98978005 2.13276380 2.90956007 0.88235294 0.87058824 0.83921569
v -1.78978005 2.66186568 0.00000000 0.88235294 0.87058824 0.83921569
v -1.78978005 2.66186568 2.90956007 0.88235294 0.87058824 0.83921569
v -1.98978005 2.66186568 0.00000000 0.88235294 0.87058824 0.83921569
v -1.98978005 2.66186568 2.90956007 0.88235294 0.87058824 0.83921569
v -1.65954585 -3.22246442 0.00000000 0.88235294 0.87058824 0.83921569
v -1.65954585 -3.22246442 2.90956007 0.88235294 0.87058824 0.83921569
v -1.75954585 -3.22246442 0.00000000 0.88235294 0.87058824 0.83921569
v -1.75954585 -3.22246442 2.90956007 0.88235294 0.87058824 0.83921569
v -1.65954585 0.55795227 0.00000000 0.88235294 0.87058824 0.83921569
v -1.65954585 0.55795227 2.90956007 0.88235294 0.87058824 0.83921569
v -1.75954585 0.55795227 0.00000000 0.88235294 0.87058824 0.83921569
v -1.75954585 0.55795227 2.90956007 0.88235294 0.87058824 0.83921569
v 2.01872520 -3.31960694 0.00000000 0.88235294 0.87058824 0.83921569
v 2.01872520 -3.31960694 2.90956007 0.88235294 0.87058824 0.83921569
v 1.81872520 -3.31960694 0.00000000 0.88235294 0.87058824 0.83921569
v 1.81872520 -3.31960694 2.90956007 0.88235294 0.87058824 0.83921569
v 2.01872520 -1.95090101 0.00000000 0.88235294 0.87058824 0.83921569
v 2.01872520 -1.95090101 2.90956007 0.88235294 0.87058824 0.83921569
v 1.81872520 -1.95090101 0.00000000 0.88235294 0.87058824 0.83921569
v 1.81872520 -1.95090101 2.90956007 0.88235294 0.87058824 0.83921569
v 2.42928105 -3.19340673 0.00000000 0.88235294 0.87058824 0.83921569
v 2.42928105 -3.19340673 2.90956007 0.88235294 0.87058824 0.83921569
v 2.22928105 -3.19340673 0.00000000 0.88235294 0.87058824 0.83921569
v 2.22928105 -3.19340673 2.90956007 0.88235294 0.87058824 0.83921569
v 2.42928105 -2.00200838 0.00000000 0.88235294 0.87058824 0.83921569
v 2.42928105 -2.00200838 2.90956007 0.88235294 0.87058824 0.83921569
v 2.22928105 -2.00200838 0.00000000 0.88235294 0.87058824 0.83921569
v 2.22928105 -2.00200838 2.90956007 0.88235294 0.87058824 0.83921569
v 1.21785236 -5.84376644 0.00000000 0.88235294 0.87058824 0.83921569
v 1.21785236 -5.84376644 2.90956007 0.88235294 0.87058824 0.83921569
v 1.21785236 -6.04376644 0.00000000 0.88235294 0.87058824 0.83921569
v 1.21785236 -6.04376644 2.90956007 0.88235294 0.87058824 0.83921569
v 0.69683263 -5.84376644 0.00000000 0.88235294 0.87058824 0.83921569
v 0.69683263 -5.84376644 2.90956007 0.88235294 0.87058824 0.83921569
v 0.69683263 -6.04376644 0.00000000 0.88235294 0.87058824 0.83921569
v 0.69683263 -6.04376644 2.90956007 0.88235294 0.87058824 0.83921569
v 2.32928105 -3.14340673 0.00000000 0.88235294 0.87058824 0.83921569
v 2.32928105 -3.14340673 2.90956007 0.88235294 0.87058824 0.83921569
v 2.32928105 -3.24340673 0.00000000 0.88235294 0.87058824 0.83921569
v 2.32928105 -3.24340673 2.90956007 0.88235294 0.87058824 0.83921569
v -0.85772133 -3.14340673 0.00000000 0.88235294 0.87058824 0.83921569
v -0.85772133 -3.14340673 2.90956007 0.88235294 0.87058824 0.83921569
v -0.85772133 -3.24340673 0.00000000 0.88235294 0.87058824 0.83921569
v -0.85772133 -3.24340673 2.90956007 0.88235294 0.87058824 0.83921569
v -0.85772133 -3.14340673 2.53569298 0.88235294 0.87058824 0.83921569
v -0.85772133 -3.14340673 2.90956007 0.88235294 0.87058824 0.83921569
v -0.85772133 -3.24340673 2.53569298 0.88235294 0.87058824 0.83921569
v -0.85772133 -3.24340673 2.90956007 0.88235294 0.87058824 0.83921569
v -1.68772133 -3.14340673 2.53569298 0.88235294 0.87058824 0.83921569
v -1.68772133 -3.14340673 2.90956007 0.88235294 0.87058824 0.83921569
v -1.68772133 -3.24340673 2.53569298 0.88235294 0.87058824 0.83921569
v -1.68772133 -3.24340673 2.90956007 0.88235294 0.87058824 0.83921569
v -1.68772133 -3.14340673 0.00000000 0.88235294 0.87058824 0.83921569
v -1.68772133 -3.14340673 2.90956007 0.88235294 0.87058824 0.83921569
v -1.68772133 -3.24340673 0.00000000 0.88235294 0.87058824 0.83921569
v -1.68772133 -3.24340673 2.90956007 0.88235294 0.87058824 0.83921569
v -2.19291066 -3.14340673 0.00000000 0.88235294 0.87058824 0.83921569
v -2.19291066 -3.14340673 2.90956007 0.88235294 0.87058824 0.83921569
v -2.19291066 -3.24340673 0.00000000 0.88235294 0.87058824 0.83921569
v -2.19291066 -3.24340673 2.90956007 0.88235294 0.87058824 0.83921569
v -1.56630303 -2.92769309 0.00000000 0.88235294 0.87058824 0.83921569
v -1.56630303 -2.92769309 2.90956007 0.88235294 0.87058824 0.83921569
v -1.56630303 -3.02769309 0.00000000 0.88235294 0.87058824 0.83921569
v -1.56630303 -3.02769309 2.90956007 0.88235294 0.87058824 0.83921569
v -5.26698218 -2.92769309 0.00000000 0.88235294 0.87058824 0.83921569
v -5.26698218 -2.92769309 2.90956007 0.88235294 0.87058824 0.83921569
v -5.26698218 -3.02769309 0.00000000 0.88235294 0.87058824 0.83921569
v -5.26698218 -3.02769309 2.90956007 0.88235294 0.87058824 0.83921569
v 2.32928105 -2.73938610 0.00000000 0.88235294 0.87058824 0.83921569
v 2.32928105 -2.73938610 2.90956007 0.88235294 0.87058824 0.83921569
v 2.32928105 -2.83938610 0.00000000 0.88235294 0.87058824 0.83921569
v 2.32928105 -2.83938610 2.90956007 0.88235294 0.87058824 0.83921569
v 1.66969824 -2.73938610 0.00000000 0.88235294 0.87058824 0.83921569
v 1.66969824 -2.73938610 2.90956007 0.88235294 0.87058824 0.83921569
v 1.66969824 -2.83938610 0.00000000 0.88235294 0.87058824 0.83921569
v 1.66969824 -2.83938610 2.90956007 0.88235294 0.87058824 0.83921569
v -1.15076482 -2.73938610 0.00000000 0.88235294 0.87058824 0.83921569
v -1.15076482 -2.73938610 2.90956007 0.88235294 0.87058824 0.83921569
v -1.15076482 -2.83938610 0.00000000 0.88235294 0.87058824 0.83921569
v -1.15076482 -2.83938610 2.90956007 0.88235294 0.87058824 0.83921569
v -2.11279232 -2.73938610 0.00000000 0.88235294 0.87058824 0.83921569
v -2.11279232 -2.73938610 2.90956007 0.88235294 0.87058824 0.83921569
v -2.11279232 -2.83938610 0.00000000 0.88235294 0.87058824 0.83921569
v -2.11279232 -2.83938610 2.90956007 0.88235294 0.87058824 0.83921569
v 2.36462770 -1.99728263 0.00000000 0.88235294 0.87058824 0.83921569
v 2.36462770 -1.99728263 2.90956007 0.88235294 0.87058824 0.83921569
v 2.36462770 -2.19728263 0.00000000 0.88235294 0.87058824 0.83921569
v 2.36462770 -2.19728263 2.90956007 0.88235294 0.87058824 0.83921569
v 1.82470816 -1.99728263 0.00000000 0.88235294 0.87058824 0.83921569
v 1.82470816 -1.99728263 2.90956007 0.88235294 0.87058824 0.83921569
v 1.82470816 -2.19728263 0.00000000 0.88235294 0.87058824 0.83921569
v 1.82470816 -2.19728263 2.90956007 0.88235294 0.87058824 0.83921569
v -1.66406417 -1.84742591 0.00000000 0.88235294 0.87058824 0.83921569
v -1.66406417 -1.84742591 2.90956007 0.88235294 0.87058824 0.83921569
v -1.66406417 -1.94742591 0.00000000 0.88235294 0.87058824 0.83921569
v -1.66406417 -1.94742591 2.90956007 0.88235294 0.87058824 0.83921569
v -2.21964912 -1.84742591 0.00000000 0.88235294 0.87058824 0.83921569
v -2.21964912 -1.84742591 2.90956007 0.88235294 0.87058824 0.83921569
v -2.21964912 -1.94742591 0.00000000 0.88235294 0.87058824 0.83921569
v -2.21964912 -1.94742591 2.90956007 0.88235294 0.87058824 0.83921569
v -1.62402249 -0.86409230 0.00000000 0.88235294 0.87058824 0.83921569
v -1.62402249 -0.86409230 2.90956007 0.88235294 0.87058824 0.83921569
v -1.62402249 -0.96409230 0.00000000 0.88235294 0.87058824 0.83921569
v -1.62402249 -0.96409230 2.90956007 0.88235294 0.87058824 0.83921569
v -2.12998606 -0.86409230 0.00000000 0.88235294 0.87058824 0.83921569
v -2.12998606 -0.86409230 2.90956007 0.88235294 0.87058824 0.83921569
v -2.12998606 -0.96409230 0.00000000 0.88235294 0.87058824 0.83921569
v -2.12998606 -0.96409230 2.90956007 0.88235294 0.87058824 0.83921569
v 3.91887704 2.53824414 0.00000000 0.88235294 0.87058824 0.83921569
v 3.91887704 2.53824414 2.90956007 0.88235294 0.87058824 0.83921569
v 3.91887704 2.33824414 0.00000000 0.88235294 0.87058824 0.83921569
v 3.91887704 2.33824414 2.90956007 0.88235294 0.87058824 0.83921569
v -2.13705146 2.53824414 0.00000000 0.88235294 0.87058824 0.83921569
v -2.13705146 2.53824414 2.90956007 0.88235294 0.87058824 0.83921569
v -2.13705146 2.33824414 0.00000000 0.88235294 0.87058824 0.83921569
v -2.13705146 2.33824414 2.90956007 0.88235294 0.87058824 0.83921569
v 0.86463256 2.90336028 0.00000000 0.88235294 0.87058824 0.83921569
v 0.86463256 2.90336028 2.90956007 0.88235294 0.87058824 0.83921569
v 0.86463256 2.70336028 0.00000000 0.88235294 0.87058824 0.83921569
v 0.86463256 2.70336028 2.90956007 0.88235294 0.87058824 0.83921569
v -0.35958362 2.90336028 0.00000000 0.88235294 0.87058824 0.83921569
v -0.35958362 2.90336028 2.90956007 0.88235294 0.87058824 0.83921569
v -0.35958362 2.70336028 0.00000000 0.88235294 0.87058824 0.83921569
v -0.35958362 2.70336028 2.90956007 0.88235294 0.87058824 0.83921569
f 2 4 1
f 5 2 1
f 1 4 3
f 3 5 1
f 2 8 4
f 6 2 5
f 6 8 2
f 4 8 3
f 7 5 3
f 3 8 7
f 7 6 5
f 8 6 7
f 10 12 9
f 13 10 9
f 9 12 11
f 11 13 9
f 10 16 12
f 14 10 13
f 14 16 10
f 12 16 11
f 15 13 11
f 11 16 15
f 15 14 13
f 16 14 15
f 18 20 17
f 21 18 17
f 17 20 19
f 19 21 17
f 18 24 20
f 22 18 21
f 22 24 18
f 20 24 19
f 23 21 19
f 19 24 23
f 23 22 21
f 24 22 23
f 26 28 25
f 29 26 25
f 25 28 27
f 27 29 25
f 26 32 28
f 30 26 29
f 30 32 26
f 28 32 27
f 31 29 27
f 27 32 31
f 31 30 29
f 32 30 31
f 34 36 33
f 37 34 33
f 33 36 35
f 35 37 33
f 34 40 36
f 38 34 37
f 38 40 34
f 36 40 35
f 39 37 35
f 35 40 39
f 39 38 37
f 40 38 39
f 42 44 41
f 45 42 41
f 41 44 43
f 43 45 41
f 42 48 44
f 46 42 45
f 46 48 42
f 44 48 43
f 47 45 43
f 43 48 47
f 47 46 45
f 48 46 47
f 50 52 49
f 53 50 49
f 49 52 51
f 51 53 49
f 50 56 52
f 54 50 53
f 54 56 50
f 52 56 51
f 55 53 51
f 51 56 55
f 55 54 53
f 56 54 55
f 58 60 57
f 61 58 57
f 57 60 59
f 59 61 57
f 58 64 60
f 62 58 61
f 62 64 58
f 60 64 59
f 63 61 59
f 59 64 63
f 63 62 61
f 64 62 63
f 66 68 65
f 69 66 65
f 65 68 67
f 67 69 65
f 66 72 68
f 70 66 69
f 70 72 66
f 68 72 67
f 71 69 67
f 67 72 71
f 71 70 69
f 72 70 71
f 74 76 73
f 77 74 73
f 73 76 75
f 75 77 73
f 74 80 76
f 78 74 77
f 78 80 74
f 76 80 75
f 79 77 75
f 75 80 79
f 79 78 77
f 80 78 79
f 82 84 81
f 85 82 81
f 81 84 83
f 83 85 81
f 82 88 84
f 86 82 85
f 86 88 82
f 84 88 83
f 87 85 83
f 83 88 87
f 87 86 85
f 88 86 87
f 90 92 89
f 93 90 89
f 89 92 91
f 91 93 89
f 90 96 92
f 94 90 93
f 94 96 90
f 92 96 91
f 95 93 91
f 91 96 95
f 95 94 93
f 96 94 95
f 98 100 97
f 101 98 97
f 97 100 99
f 99 101 97
f 98 104 100
f 102 98 101
f 102 104 98
f 100 104 99
f 103 101 99
f 99 104 103
f 103 102 101
f 104 102 103
f 106 108 105
f 109 106 105
f 105 108 107
f 107 109 105
f 106 112 108
f 110 106 109
f 110 112 106
f 108 112 107
f 111 109 107
f 107 112 111
f 111 110 109
f 112 110 111
f 114 116 113
f 117 114 113
f 113 116 115
f 115 117 113
f 114 120 116
f 118 114 117
f 118 120 114
f 116 120 115
f 119 117 115
f 115 120 119
f 119 118 117
f 120 118 119
f 122 124 121
f 125 122 121
f 121 124 123
f 123 125 121
f 122 128 124
f 126 122 125
f 126 128 122
f 124 128 123
f 127 125 123
f 123 128 127
f 127 126 125
f 128 126 127
f 130 132 129
f 133 130 129
f 129 132 131
f 131 133 129
f 130 136 132
f 134 130 133
f 134 136 130
f 132 136 131
f 135 133 131
f 131 136 135
f 135 134 133
f 136 134 135
f 138 140 137
f 141 138 137
f 137 140 139
f 139 141 137
f 138 144 140
f 142 138 141
f 142 144 138
f 140 144 139
f 143 141 139
f 139 144 143
f 143 142 141
f 144 142 143

o doors
v -0.85772133 -3.17340673 0.00000000 0.58823529 0.43137255 0.27450980
v -0.85772133 -3.17340673 2.53569298 0.58823529 0.43137255 0.27450980
v -0.85772133 -3.21340673 0.00000000 0.58823529 0.43137255 0.27450980
v -0.85772133 -3.21340673 2.53569298 0.58823529 0.43137255 0.27450980
v -1.68772133 -3.17340673 0.00000000 0.58823529 0.43137255 0.27450980
v -1.68772133 -3.17340673 2.53569298 0.58823529 0.43137255 0.27450980
v -1.68772133 -3.21340673 0.00000000 0.58823529 0.43137255 0.27450980
v -1.68772133 -3.21340673 2.53569298 0.58823529 0.43137255 0.27450980
f 146 148 145
f 149 146 145
f 145 148 147
f 147 149 145
f 146 152 148
f 150 146 149
f 150 152 146
f 148 152 147
f 151 149 147
f 147 152 151
f 151 150 149
f 152 150 151

o floor_0
v -1.62789774 0.69538586 -0.05000000 0.76862745 0.69019608 0.58823529
v -1.62789774 -2.69461414 -0.05000000 0.76862745 0.69019608 0.58823529
v 1.55210226 -2.69461414 -0.05000000 0.76862745 0.69019608 0.58823529
v 1.55210226 -2.40461414 -0.05000000 0.76862745 0.69019608 0.58823529
v 1.78210226 -2.40461414 -0.05000000 0.76862745 0.69019608 0.58823529
v 1.78210226 -1.93461414 -0.05000000 0.76862745 0.69019608 0.58823529
v 2.41210226 -1.93461414 -0.05000000 0.76862745 0.69019608 0.58823529
v 2.41210226 1.23538586 -0.05000000 0.76862745 0.69019608 0.58823529
v 3.01210226 1.23538586 -0.05000000 0.76862745 0.69019608 0.58823529
v 3.01210226 1.68538586 -0.05000000 0.76862745 0.69019608 0.58823529
v 1.75210226 1.68538586 -0.05000000 0.76862745 0.69019608 0.58823529
v 1.75210226 2.30538586 -0.05000000 0.76862745 0.69019608 0.58823529
v -1.36789774 2.30538586 -0.05000000 0.76862745 0.69019608 0.58823529
v -1.36789774 1.67538586 -0.05000000 0.76862745 0.69019608 0.58823529
v -1.98789774 1.67538586 -0.05000000 0.76862745 0.69019608 0.58823529
v -1.98789774 0.69538586 -0.05000000 0.76862745 0.69019608 0.58823529
v -1.62789774 0.69538586 0.00000000 0.76862745 0.69019608 0.58823529
v -1.62789774 -2.69461414 0.00000000 0.76862745 0.69019608 0.58823529
v 1.55210226 -2.69461414 0.00000000 0.76862745 0.69019608 0.58823529
v 1.55210226 -2.40461414 0.00000000 0.76862745 0.69019608 0.58823529
v 1.78210226 -2.40461414 0.00000000 0.76862745 0.69019608 0.58823529
v 1.78210226 -1.93461414 0.00000000 0.76862745 0.69019608 0.58823529
v 2.41210226 -1.93461414 0.00000000 0.76862745 0.69019608 0.58823529
v 2.41210226 1.23538586 0.00000000 0.76862745 0.69019608 0.58823529
v 3.01210226 1.23538586 0.00000000 0.76862745 0.69019608 0.58823529
v 3.01210226 1.68538586 0.00000000 0.76862745 0.69019608 0.58823529
v 1.75210226 1.68538586 0.00000000 0.76862745 0.69019608 0.58823529
v 1.75210226 2.30538586 0.00000000 0.76862745 0.69019608 0.58823529
v -1.36789774 2.30538586 0.00000000 0.76862745 0.69019608 0.58823529
v -1.36789774 1.67538586 0.00000000 0.76862745 0.69019608 0.58823529
v -1.98789774 1.67538586 0.00000000 0.76862745 0.69019608 0.58823529
v -1.98789774 0.69538586 0.00000000 0.76862745 0.69019608 0.58823529
f 155 154 153
f 158 157 156
f 160 159 158
f 162 161 160
f 165 164 163
f 168 167 166
f 156 155 153
f 160 158 156
f 163 162 160
f 166 165 163
f 153 168 166
f 160 156 153
f 166 163 160
f 160 153 166
f 169 170 171
f 172 173 174
f 174 175 176
f 176 177 178
f 179 180 181
f 182 183 184
f 169 171 172
f 172 174 176
f 176 178 179
f 179 181 182
f 182 184 169
f 169 172 176
f 176 179 182
f 182 169 176
f 170 169 154
f 154 169 153
f 171 170 155
f 155 170 154
f 172 171 156
f 156 171 155
f 173 172 157
f 157 172 156
f 174 173 158
f 158 173 157
f 175 174 159
f 159 174 158
f 176 175 160
f 160 175 159
f 177 176 161
f 161 176 160
f 178 177 162
f 162 177 161
f 179 178 163
f 163 178 162
f 180 179 164
f 164 179 163
f 181 180 165
f 165 180 164
f 182 181 166
f 166 181 165
f 183 182 167
f 167 182 166
f 169 184 153
f 153 184 168
f 184 183 168
f 168 183 167

