<svg xmlns="http://www.w3.org/2000/svg" width="1501" height="942" viewBox="0 0 1501 942" font-family="Inter, 'Segoe UI', Helvetica, Arial, sans-serif">
<rect width="1501" height="942" fill="#ffffff"/>
<path class="room" d="M 280.9,554.0 618.7,554.0 618.7,304.1 280.9,304.1 Z" fill="#f3f0ea"/>
<path class="room" d="M 640.8,656.0 920.7,656.0 920.7,520.0 640.8,520.0 Z" fill="#f3f0ea"/>
<path class="room" d="M 152.0,472.8 264.2,472.8 264.2,172.0 152.0,172.0 Z" fill="#f3f0ea"/>
<path class="room" d="M 429.8,562.0 429.8,605.7 421.8,605.7 421.8,562.0 420.6,562.0 420.6,688.3 491.0,688.3 491.0,701.7 618.7,701.7 618.7,624.5 601.9,624.5 601.9,616.5 618.7,616.5 618.7,615.7 579.1,615.7 579.1,607.7 618.7,607.7 618.7,562.0 Z" fill="#f6f2ea"/>
<path class="room" d="M 872.7,679.2 1068.7,679.2 1068.7,596.8 872.7,596.8 Z" fill="#f3f0ea"/>
<path class="open-edge" d="M 280.9,505.1 L 280.9,529.3" fill="none" stroke="#9a9a9a" stroke-width="1.2" stroke-linejoin="round" stroke-linecap="round" stroke-dasharray="6 5"/>
<path class="open-edge" d="M 652.8,656.0 L 920.7,656.0" fill="none" stroke="#9a9a9a" stroke-width="1.2" stroke-linejoin="round" stroke-linecap="round" stroke-dasharray="6 5"/>
<path class="open-edge" d="M 920.7,656.0 L 920.7,608.2" fill="none" stroke="#9a9a9a" stroke-width="1.2" stroke-linejoin="round" stroke-linecap="round" stroke-dasharray="6 5"/>
<path class="open-edge" d="M 908.7,520.0 L 652.8,520.0" fill="none" stroke="#9a9a9a" stroke-width="1.2" stroke-linejoin="round" stroke-linecap="round" stroke-dasharray="6 5"/>
<path class="open-edge" d="M 152.0,472.8 L 260.9,472.8" fill="none" stroke="#9a9a9a" stroke-width="1.2" stroke-linejoin="round" stroke-linecap="round" stroke-dasharray="6 5"/>
<path class="open-edge" d="M 152.0,172.0 L 152.0,220.5" fill="none" stroke="#9a9a9a" stroke-width="1.2" stroke-linejoin="round" stroke-linecap="round" stroke-dasharray="6 5"/>
<path class="open-edge" d="M 152.0,417.5 L 152.0,472.8" fill="none" stroke="#9a9a9a" stroke-width="1.2" stroke-linejoin="round" stroke-linecap="round" stroke-dasharray="6 5"/>
<path class="open-edge" d="M 872.7,679.2 L 1068.7,679.2" fill="none" stroke="#9a9a9a" stroke-width="1.2" stroke-linejoin="round" stroke-linecap="round" stroke-dasharray="6 5"/>
<path class="open-edge" d="M 1068.7,679.2 L 1068.7,596.8" fill="none" stroke="#9a9a9a" stroke-width="1.2" stroke-linejoin="round" stroke-linecap="round" stroke-dasharray="6 5"/>
<path class="open-edge" d="M 1068.7,596.8 L 940.7,596.8" fill="none" stroke="#9a9a9a" stroke-width="1.2" stroke-linejoin="round" stroke-linecap="round" stroke-dasharray="6 5"/>
<path class="open-edge" d="M 908.8,596.8 L 872.7,596.8" fill="none" stroke="#9a9a9a" stroke-width="1.2" stroke-linejoin="round" stroke-linecap="round" stroke-dasharray="6 5"/>
<path class="open-edge" d="M 872.7,596.8 L 872.7,679.2" fill="none" stroke="#9a9a9a" stroke-width="1.2" stroke-linejoin="round" stroke-linecap="round" stroke-dasharray="6 5"/>
<path class="axis" d="M 144.0,57.6 L 144.0,744.0" fill="none" stroke="#b04a4a" stroke-width="0.6" stroke-linejoin="round" stroke-linecap="round" stroke-dasharray="9 5"/>
<circle class="axis" cx="144.0" cy="48.0" r="9" fill="#ffffff" stroke="#b04a4a" stroke-width="0.9"/>
<text class="axis" x="144.0" y="51.5" font-size="10" text-anchor="middle" fill="#b04a4a" font-weight="700">A</text>
<path class="axis" d="M 272.6,57.6 L 272.6,744.0" fill="none" stroke="#b04a4a" stroke-width="0.6" stroke-linejoin="round" stroke-linecap="round" stroke-dasharray="9 5"/>
<circle class="axis" cx="272.6" cy="48.0" r="9" fill="#ffffff" stroke="#b04a4a" stroke-width="0.9"/>
<text class="axis" x="272.6" y="51.5" font-size="10" text-anchor="middle" fill="#b04a4a" font-weight="700">B</text>
<path class="axis" d="M 419.2,57.6 L 419.2,744.0" fill="none" stroke="#b04a4a" stroke-width="0.6" stroke-linejoin="round" stroke-linecap="round" stroke-dasharray="9 5"/>
<circle class="axis" cx="419.2" cy="48.0" r="9" fill="#ffffff" stroke="#b04a4a" stroke-width="0.9"/>
<text class="axis" x="419.2" y="51.5" font-size="10" text-anchor="middle" fill="#b04a4a" font-weight="700">C</text>
<path class="axis" d="M 633.3,57.6 L 633.3,744.0" fill="none" stroke="#b04a4a" stroke-width="0.6" stroke-linejoin="round" stroke-linecap="round" stroke-dasharray="9 5"/>
<circle class="axis" cx="633.3" cy="48.0" r="9" fill="#ffffff" stroke="#b04a4a" stroke-width="0.9"/>
<text class="axis" x="633.3" y="51.5" font-size="10" text-anchor="middle" fill="#b04a4a" font-weight="700">D</text>
<path class="axis" d="M 924.7,57.6 L 924.7,744.0" fill="none" stroke="#b04a4a" stroke-width="0.6" stroke-linejoin="round" stroke-linecap="round" stroke-dasharray="9 5"/>
<circle class="axis" cx="924.7" cy="48.0" r="9" fill="#ffffff" stroke="#b04a4a" stroke-width="0.9"/>
<text class="axis" x="924.7" y="51.5" font-size="10" text-anchor="middle" fill="#b04a4a" font-weight="700">E</text>
<path class="axis" d="M 120.0,164.0 L 1167.1,164.0" fill="none" stroke="#b04a4a" stroke-width="0.6" stroke-linejoin="round" stroke-linecap="round" stroke-dasharray="9 5"/>
<circle class="axis" cx="1176.7" cy="164.0" r="9" fill="#ffffff" stroke="#b04a4a" stroke-width="0.9"/>
<text class="axis" x="1176.7" y="167.5" font-size="10" text-anchor="middle" fill="#b04a4a" font-weight="700">1</text>
<path class="axis" d="M 120.0,218.9 L 1167.1,218.9" fill="none" stroke="#b04a4a" stroke-width="0.6" stroke-linejoin="round" stroke-linecap="round" stroke-dasharray="9 5"/>
<circle class="axis" cx="1176.7" cy="218.9" r="9" fill="#ffffff" stroke="#b04a4a" stroke-width="0.9"/>
<text class="axis" x="1176.7" y="222.4" font-size="10" text-anchor="middle" fill="#b04a4a" font-weight="700">2</text>
<path class="axis" d="M 120.0,296.9 L 1167.1,296.9" fill="none" stroke="#b04a4a" stroke-width="0.6" stroke-linejoin="round" stroke-linecap="round" stroke-dasharray="9 5"/>
<circle class="axis" cx="1176.7" cy="296.9" r="9" fill="#ffffff" stroke="#b04a4a" stroke-width="0.9"/>
<text class="axis" x="1176.7" y="300.4" font-size="10" text-anchor="middle" fill="#b04a4a" font-weight="700">3</text>
<path class="axis" d="M 120.0,552.6 L 1167.1,552.6" fill="none" stroke="#b04a4a" stroke-width="0.6" stroke-linejoin="round" stroke-linecap="round" stroke-dasharray="9 5"/>
<circle class="axis" cx="1176.7" cy="552.6" r="9" fill="#ffffff" stroke="#b04a4a" stroke-width="0.9"/>
<text class="axis" x="1176.7" y="556.1" font-size="10" text-anchor="middle" fill="#b04a4a" font-weight="700">4</text>
<path class="axis" d="M 120.0,611.7 L 1167.1,611.7" fill="none" stroke="#b04a4a" stroke-width="0.6" stroke-linejoin="round" stroke-linecap="round" stroke-dasharray="9 5"/>
<circle class="axis" cx="1176.7" cy="611.7" r="9" fill="#ffffff" stroke="#b04a4a" stroke-width="0.9"/>
<text class="axis" x="1176.7" y="615.2" font-size="10" text-anchor="middle" fill="#b04a4a" font-weight="700">5</text>
<path class="axis" d="M 120.0,705.6 L 1167.1,705.6" fill="none" stroke="#b04a4a" stroke-width="0.6" stroke-linejoin="round" stroke-linecap="round" stroke-dasharray="9 5"/>
<circle class="axis" cx="1176.7" cy="705.6" r="9" fill="#ffffff" stroke="#b04a4a" stroke-width="0.9"/>
<text class="axis" x="1176.7" y="709.1" font-size="10" text-anchor="middle" fill="#b04a4a" font-weight="700">6</text>
<path class="wall" d="M 136.0,232.5 152.0,232.5 152.0,405.5 136.0,405.5 136.0,232.5 Z" fill="#2b2b2b"/>
<path class="wall" d="M 264.2,219.4 272.2,219.4 272.2,458.0 264.2,458.0 264.2,219.4 Z" fill="#2b2b2b"/>
<path class="wall" d="M 272.9,301.6 280.9,301.6 280.9,493.1 272.9,493.1 272.9,301.6 Z" fill="#2b2b2b"/>
<path class="wall" d="M 404.6,539.2 420.6,539.2 420.6,717.7 404.6,717.7 404.6,539.2 Z" fill="#2b2b2b"/>
<path class="wall" d="M 421.8,539.2 429.8,539.2 429.8,605.7 421.8,605.7 421.8,539.2 Z" fill="#2b2b2b"/>
<path class="wall" d="M 618.7,418.0 626.7,418.0 626.7,712.0 618.7,712.0 618.7,418.0 Z" fill="#2b2b2b"/>
<path class="wall" d="M 632.8,476.0 640.8,476.0 640.8,607.7 632.8,607.7 632.8,476.0 Z" fill="#2b2b2b"/>
<path class="wall" d="M 920.7,509.6 928.7,509.6 928.7,596.2 920.7,596.2 920.7,509.6 Z" fill="#2b2b2b"/>
<path class="wall" d="M 467.6,728.0 467.6,712.0 626.7,712.0 626.7,728.0 467.6,728.0 Z" fill="#2b2b2b"/>
<path class="wall" d="M 404.6,717.7 404.6,701.7 626.7,701.7 626.7,717.7 404.6,717.7 Z" fill="#2b2b2b"/>
<path class="wall" d="M 420.6,704.3 420.6,688.3 491.0,688.3 491.0,704.3 420.6,704.3 Z" fill="#2b2b2b"/>
<path class="wall" d="M 579.1,615.7 579.1,607.7 640.8,607.7 640.8,615.7 579.1,615.7 Z" fill="#2b2b2b"/>
<path class="wall" d="M 420.6,562.0 420.6,554.0 632.8,554.0 632.8,562.0 420.6,562.0 Z" fill="#2b2b2b"/>
<path class="wall" d="M 287.6,555.2 287.6,539.2 429.8,539.2 429.8,555.2 287.6,555.2 Z" fill="#2b2b2b"/>
<path class="wall" d="M 412.4,317.9 412.4,309.9 541.4,309.9 541.4,317.9 412.4,317.9 Z" fill="#2b2b2b"/>
<path class="wall" d="M 339.1,304.1 339.1,296.1 593.1,296.1 593.1,304.1 339.1,304.1 Z" fill="#2b2b2b"/>
<path class="wall" d="M 574.2,294.3 574.2,286.3 641.2,286.3 641.2,294.3 574.2,294.3 Z" fill="#2b2b2b"/>
<path class="wall" d="M 264.2,226.5 264.2,218.5 292.2,218.5 292.2,226.5 264.2,226.5 Z" fill="#2b2b2b"/>
<path class="wall" d="M 264.2,219.4 264.2,211.4 292.2,211.4 292.2,219.4 264.2,219.4 Z" fill="#2b2b2b"/>
<path class="wall" d="M 168.3,172.0 168.3,156.0 294.8,156.0 294.8,172.0 168.3,172.0 Z" fill="#2b2b2b"/>
<path class="wall-assumed" d="M 136.8,405.5 L 136.8,232.5" fill="none" stroke="#d9d4cb" stroke-width="1.3" stroke-linejoin="round" stroke-linecap="round" stroke-dasharray="5 4"/>
<path class="wall-assumed" d="M 405.4,717.7 L 405.4,539.2" fill="none" stroke="#d9d4cb" stroke-width="1.3" stroke-linejoin="round" stroke-linecap="round" stroke-dasharray="5 4"/>
<path class="wall-assumed" d="M 422.6,605.7 L 422.6,539.2" fill="none" stroke="#d9d4cb" stroke-width="1.3" stroke-linejoin="round" stroke-linecap="round" stroke-dasharray="5 4"/>
<path class="wall-assumed" d="M 927.9,596.2 L 927.9,509.6" fill="none" stroke="#d9d4cb" stroke-width="1.3" stroke-linejoin="round" stroke-linecap="round" stroke-dasharray="5 4"/>
<path class="wall-assumed" d="M 626.7,727.2 L 467.6,727.2" fill="none" stroke="#d9d4cb" stroke-width="1.3" stroke-linejoin="round" stroke-linecap="round" stroke-dasharray="5 4"/>
<path class="wall-assumed" d="M 626.7,716.9 L 404.6,716.9" fill="none" stroke="#d9d4cb" stroke-width="1.3" stroke-linejoin="round" stroke-linecap="round" stroke-dasharray="5 4"/>
<path class="wall-assumed" d="M 491.0,703.5 L 420.6,703.5" fill="none" stroke="#d9d4cb" stroke-width="1.3" stroke-linejoin="round" stroke-linecap="round" stroke-dasharray="5 4"/>
<path class="wall-assumed" d="M 429.8,554.4 L 287.6,554.4" fill="none" stroke="#d9d4cb" stroke-width="1.3" stroke-linejoin="round" stroke-linecap="round" stroke-dasharray="5 4"/>
<path class="wall-assumed" d="M 541.4,310.7 L 412.4,310.7" fill="none" stroke="#d9d4cb" stroke-width="1.3" stroke-linejoin="round" stroke-linecap="round" stroke-dasharray="5 4"/>
<path class="wall-assumed" d="M 593.1,296.9 L 339.1,296.9" fill="none" stroke="#d9d4cb" stroke-width="1.3" stroke-linejoin="round" stroke-linecap="round" stroke-dasharray="5 4"/>
<path class="wall-assumed" d="M 641.2,287.1 L 574.2,287.1" fill="none" stroke="#d9d4cb" stroke-width="1.3" stroke-linejoin="round" stroke-linecap="round" stroke-dasharray="5 4"/>
<path class="wall-assumed" d="M 294.8,156.8 L 168.3,156.8" fill="none" stroke="#d9d4cb" stroke-width="1.3" stroke-linejoin="round" stroke-linecap="round" stroke-dasharray="5 4"/>
<path class="wall-assumed" d="M 625.9,415.6 L 625.9,296.9" fill="none" stroke="#d9d4cb" stroke-width="1.3" stroke-linejoin="round" stroke-linecap="round" stroke-dasharray="5 4"/>
<path class="wall-assumed" d="M 336.7,296.9 L 283.3,296.9" fill="none" stroke="#d9d4cb" stroke-width="1.3" stroke-linejoin="round" stroke-linecap="round" stroke-dasharray="5 4"/>
<path class="passage" d="M 622.7,415.6 L 622.7,296.9" fill="none" stroke="#2b2b2b" stroke-width="1" stroke-linejoin="round" stroke-linecap="round" stroke-dasharray="4 4"/>
<text class="tag" x="601.1" y="359.7" font-size="9.5" text-anchor="middle" fill="#222222" font-weight="700">A1</text>
<path class="door" d="M 336.7,300.1 L 336.7,353.5" fill="none" stroke="#8a5a2b" stroke-width="1.4" stroke-linejoin="round" stroke-linecap="round"/>
<path class="door" d="M 336.7,353.5 L 330.8,353.2 L 324.9,352.2 L 319.1,350.5 L 313.6,348.2 L 308.3,345.3 L 303.4,341.8 L 299.0,337.9 L 295.0,333.4 L 291.5,328.5 L 288.6,323.3 L 286.3,317.7 L 284.7,312.0 L 283.7,306.1 L 283.3,300.1" fill="none" stroke="#8a5a2b" stroke-width="1.2" stroke-linejoin="round" stroke-linecap="round"/>
<text class="tag" x="310.0" y="343.6" font-size="9.5" text-anchor="middle" fill="#8a5a2b" font-weight="700">P1</text>
<path class="door" d="M 636.8,618.1 L 681.9,618.1" fill="none" stroke="#8a5a2b" stroke-width="1.4" stroke-linejoin="round" stroke-linecap="round"/>
<path class="door" d="M 681.9,618.1 L 681.7,623.1 L 680.8,628.1 L 679.4,633.0 L 677.5,637.6 L 675.0,642.1 L 672.1,646.2 L 668.7,650.0 L 665.0,653.3 L 660.8,656.3 L 656.4,658.7 L 651.7,660.6 L 646.9,662.0 L 641.9,662.9 L 636.8,663.2" fill="none" stroke="#8a5a2b" stroke-width="1.2" stroke-linejoin="round" stroke-linecap="round"/>
<text class="tag" x="670.7" y="644.1" font-size="9.5" text-anchor="middle" fill="#8a5a2b" font-weight="700">P2</text>
<path class="wall-tag-pointer" d="M 167.2,362.3 L 158.4,362.3" fill="none" stroke="#6b6b6f" stroke-width="0.9" stroke-linejoin="round" stroke-linecap="round"/>
<circle class="wall-tag-circle" cx="174.4" cy="362.3" r="7" fill="#ffffff" stroke="#6b6b6f" stroke-width="0.9"/>
<text class="wall-tag" x="174.4" y="365.3" font-size="7.5" text-anchor="middle" fill="#6b6b6f" font-weight="700">M1</text>
<path class="wall-tag-pointer" d="M 287.4,338.7 L 278.6,338.7" fill="none" stroke="#6b6b6f" stroke-width="0.9" stroke-linejoin="round" stroke-linecap="round"/>
<circle class="wall-tag-circle" cx="294.6" cy="338.7" r="7" fill="#ffffff" stroke="#6b6b6f" stroke-width="0.9"/>
<text class="wall-tag" x="294.6" y="341.7" font-size="7.5" text-anchor="middle" fill="#6b6b6f" font-weight="700">M2</text>
<path class="wall-tag-pointer" d="M 296.1,397.4 L 287.3,397.4" fill="none" stroke="#6b6b6f" stroke-width="0.9" stroke-linejoin="round" stroke-linecap="round"/>
<circle class="wall-tag-circle" cx="303.3" cy="397.4" r="7" fill="#ffffff" stroke="#6b6b6f" stroke-width="0.9"/>
<text class="wall-tag" x="303.3" y="400.4" font-size="7.5" text-anchor="middle" fill="#6b6b6f" font-weight="700">M3</text>
<path class="wall-tag-pointer" d="M 435.8,628.4 L 427.0,628.4" fill="none" stroke="#6b6b6f" stroke-width="0.9" stroke-linejoin="round" stroke-linecap="round"/>
<circle class="wall-tag-circle" cx="443.0" cy="628.4" r="7" fill="#ffffff" stroke="#6b6b6f" stroke-width="0.9"/>
<text class="wall-tag" x="443.0" y="631.4" font-size="7.5" text-anchor="middle" fill="#6b6b6f" font-weight="700">M4</text>
<path class="wall-tag-pointer" d="M 445.0,572.4 L 436.2,572.4" fill="none" stroke="#6b6b6f" stroke-width="0.9" stroke-linejoin="round" stroke-linecap="round"/>
<circle class="wall-tag-circle" cx="452.2" cy="572.4" r="7" fill="#ffffff" stroke="#6b6b6f" stroke-width="0.9"/>
<text class="wall-tag" x="452.2" y="575.4" font-size="7.5" text-anchor="middle" fill="#6b6b6f" font-weight="700">M5</text>
<path class="wall-tag-pointer" d="M 641.9,565.0 L 633.1,565.0" fill="none" stroke="#6b6b6f" stroke-width="0.9" stroke-linejoin="round" stroke-linecap="round"/>
<circle class="wall-tag-circle" cx="649.1" cy="565.0" r="7" fill="#ffffff" stroke="#6b6b6f" stroke-width="0.9"/>
<text class="wall-tag" x="649.1" y="568.0" font-size="7.5" text-anchor="middle" fill="#6b6b6f" font-weight="700">M6</text>
<path class="wall-tag-pointer" d="M 617.6,541.8 L 626.4,541.8" fill="none" stroke="#6b6b6f" stroke-width="0.9" stroke-linejoin="round" stroke-linecap="round"/>
<circle class="wall-tag-circle" cx="610.4" cy="541.8" r="7" fill="#ffffff" stroke="#6b6b6f" stroke-width="0.9"/>
<text class="wall-tag" x="610.4" y="544.8" font-size="7.5" text-anchor="middle" fill="#6b6b6f" font-weight="700">M7</text>
<path class="wall-tag-pointer" d="M 905.5,552.9 L 914.3,552.9" fill="none" stroke="#6b6b6f" stroke-width="0.9" stroke-linejoin="round" stroke-linecap="round"/>
<circle class="wall-tag-circle" cx="898.3" cy="552.9" r="7" fill="#ffffff" stroke="#6b6b6f" stroke-width="0.9"/>
<text class="wall-tag" x="898.3" y="555.9" font-size="7.5" text-anchor="middle" fill="#6b6b6f" font-weight="700">M8</text>
<path class="wall-tag-pointer" d="M 547.2,696.8 L 547.2,705.6" fill="none" stroke="#6b6b6f" stroke-width="0.9" stroke-linejoin="round" stroke-linecap="round"/>
<circle class="wall-tag-circle" cx="547.2" cy="689.6" r="7" fill="#ffffff" stroke="#6b6b6f" stroke-width="0.9"/>
<text class="wall-tag" x="547.2" y="692.6" font-size="7.5" text-anchor="middle" fill="#6b6b6f" font-weight="700">M9</text>
<path class="wall-tag-pointer" d="M 515.7,732.9 L 515.7,724.1" fill="none" stroke="#6b6b6f" stroke-width="0.9" stroke-linejoin="round" stroke-linecap="round"/>
<circle class="wall-tag-circle" cx="515.7" cy="740.1" r="7" fill="#ffffff" stroke="#6b6b6f" stroke-width="0.9"/>
<text class="wall-tag" x="515.7" y="743.1" font-size="7.5" text-anchor="middle" fill="#6b6b6f" font-weight="700">M10</text>
<path class="wall-tag-pointer" d="M 438.2,673.1 L 438.2,681.9" fill="none" stroke="#6b6b6f" stroke-width="0.9" stroke-linejoin="round" stroke-linecap="round"/>
<circle class="wall-tag-circle" cx="438.2" cy="665.9" r="7" fill="#ffffff" stroke="#6b6b6f" stroke-width="0.9"/>
<text class="wall-tag" x="438.2" y="668.9" font-size="7.5" text-anchor="middle" fill="#6b6b6f" font-weight="700">M11</text>
<path class="wall-tag-pointer" d="M 610.0,630.9 L 610.0,622.1" fill="none" stroke="#6b6b6f" stroke-width="0.9" stroke-linejoin="round" stroke-linecap="round"/>
<circle class="wall-tag-circle" cx="610.0" cy="638.1" r="7" fill="#ffffff" stroke="#6b6b6f" stroke-width="0.9"/>
<text class="wall-tag" x="610.0" y="641.1" font-size="7.5" text-anchor="middle" fill="#6b6b6f" font-weight="700">M12</text>
<path class="wall-tag-pointer" d="M 526.7,538.8 L 526.7,547.6" fill="none" stroke="#6b6b6f" stroke-width="0.9" stroke-linejoin="round" stroke-linecap="round"/>
<circle class="wall-tag-circle" cx="526.7" cy="531.6" r="7" fill="#ffffff" stroke="#6b6b6f" stroke-width="0.9"/>
<text class="wall-tag" x="526.7" y="534.6" font-size="7.5" text-anchor="middle" fill="#6b6b6f" font-weight="700">M13</text>
<path class="wall-tag-pointer" d="M 358.7,524.0 L 358.7,532.8" fill="none" stroke="#6b6b6f" stroke-width="0.9" stroke-linejoin="round" stroke-linecap="round"/>
<circle class="wall-tag-circle" cx="358.7" cy="516.8" r="7" fill="#ffffff" stroke="#6b6b6f" stroke-width="0.9"/>
<text class="wall-tag" x="358.7" y="519.8" font-size="7.5" text-anchor="middle" fill="#6b6b6f" font-weight="700">M14</text>
<path class="wall-tag-pointer" d="M 476.9,333.1 L 476.9,324.3" fill="none" stroke="#6b6b6f" stroke-width="0.9" stroke-linejoin="round" stroke-linecap="round"/>
<circle class="wall-tag-circle" cx="476.9" cy="340.3" r="7" fill="#ffffff" stroke="#6b6b6f" stroke-width="0.9"/>
<text class="wall-tag" x="476.9" y="343.3" font-size="7.5" text-anchor="middle" fill="#6b6b6f" font-weight="700">M15</text>
<path class="wall-tag-pointer" d="M 466.1,319.3 L 466.1,310.5" fill="none" stroke="#6b6b6f" stroke-width="0.9" stroke-linejoin="round" stroke-linecap="round"/>
<circle class="wall-tag-circle" cx="466.1" cy="326.5" r="7" fill="#ffffff" stroke="#6b6b6f" stroke-width="0.9"/>
<text class="wall-tag" x="466.1" y="329.5" font-size="7.5" text-anchor="middle" fill="#6b6b6f" font-weight="700">M16</text>
<path class="wall-tag-pointer" d="M 607.7,309.5 L 607.7,300.7" fill="none" stroke="#6b6b6f" stroke-width="0.9" stroke-linejoin="round" stroke-linecap="round"/>
<circle class="wall-tag-circle" cx="607.7" cy="316.7" r="7" fill="#ffffff" stroke="#6b6b6f" stroke-width="0.9"/>
<text class="wall-tag" x="607.7" y="319.7" font-size="7.5" text-anchor="middle" fill="#6b6b6f" font-weight="700">M17</text>
<path class="wall-tag-pointer" d="M 231.6,187.2 L 231.6,178.4" fill="none" stroke="#6b6b6f" stroke-width="0.9" stroke-linejoin="round" stroke-linecap="round"/>
<circle class="wall-tag-circle" cx="231.6" cy="194.4" r="7" fill="#ffffff" stroke="#6b6b6f" stroke-width="0.9"/>
<text class="wall-tag" x="231.6" y="197.4" font-size="7.5" text-anchor="middle" fill="#6b6b6f" font-weight="700">M20</text>
<path class="wall-tag-pointer" d="M 603.5,282.5 L 612.3,282.5" fill="none" stroke="#6b6b6f" stroke-width="0.9" stroke-linejoin="round" stroke-linecap="round"/>
<circle class="wall-tag-circle" cx="596.3" cy="282.5" r="7" fill="#ffffff" stroke="#6b6b6f" stroke-width="0.9"/>
<text class="wall-tag" x="596.3" y="285.5" font-size="7.5" text-anchor="middle" fill="#6b6b6f" font-weight="700">M21</text>
<path class="wall-tag-pointer" d="M 351.1,319.3 L 351.1,310.5" fill="none" stroke="#6b6b6f" stroke-width="0.9" stroke-linejoin="round" stroke-linecap="round"/>
<circle class="wall-tag-circle" cx="351.1" cy="326.5" r="7" fill="#ffffff" stroke="#6b6b6f" stroke-width="0.9"/>
<text class="wall-tag" x="351.1" y="329.5" font-size="7.5" text-anchor="middle" fill="#6b6b6f" font-weight="700">M22</text>
<text class="label" x="449.8" y="426.4" font-size="13" text-anchor="middle" fill="#222222" font-weight="700">Room 1 (incomplete)</text>
<text class="label" x="449.8" y="440.8" font-size="11" text-anchor="middle" fill="#555555">13.19 m² · 4.22 m × 3.12 m</text>
<text class="label" x="780.8" y="585.3" font-size="13" text-anchor="middle" fill="#222222" font-weight="700">Room 2 (incomplete)</text>
<text class="label" x="780.8" y="599.7" font-size="11" text-anchor="middle" fill="#555555">5.95 m² · 3.50 m × 1.70 m</text>
<text class="label" x="208.1" y="306.0" font-size="13" text-anchor="middle" fill="#222222" font-weight="700">Room 3</text>
<text class="label" x="208.1" y="320.3" font-size="11" text-anchor="middle" fill="#555555">(incomplete)</text>
<text class="label" x="208.1" y="334.1" font-size="11" text-anchor="middle" fill="#555555">5.27 m²</text>
<text class="label" x="208.1" y="347.8" font-size="11" text-anchor="middle" fill="#555555">1.40 m × 3.76 m</text>
<text class="label" x="519.7" y="653.8" font-size="13" text-anchor="middle" fill="#222222" font-weight="700">Room 4</text>
<text class="label" x="519.7" y="668.1" font-size="11" text-anchor="middle" fill="#555555">4.05 m² · 2.48 m × 1.75 m</text>
<text class="label" x="970.7" y="635.3" font-size="13" text-anchor="middle" fill="#222222" font-weight="700">Room 5 (incomplete)</text>
<text class="label" x="970.7" y="649.7" font-size="11" text-anchor="middle" fill="#555555">2.52 m² · 2.45 m × 1.03 m</text>
<path class="dim-chain" d="M 96.0,405.5 L 96.0,232.5" fill="none" stroke="#777777" stroke-width="0.8" stroke-linejoin="round" stroke-linecap="round"/>
<path class="dim-chain" d="M 131.2,405.5 L 96.0,405.5" fill="none" stroke="#777777" stroke-width="0.6" stroke-linejoin="round" stroke-linecap="round"/>
<path class="dim" d="M 93.0,408.5 L 99.0,402.5" fill="none" stroke="#777777" stroke-width="0.8" stroke-linejoin="round" stroke-linecap="round"/>
<path class="dim-chain" d="M 131.2,232.5 L 96.0,232.5" fill="none" stroke="#777777" stroke-width="0.6" stroke-linejoin="round" stroke-linecap="round"/>
<path class="dim" d="M 93.0,235.5 L 99.0,229.5" fill="none" stroke="#777777" stroke-width="0.8" stroke-linejoin="round" stroke-linecap="round"/>
<text class="dim-chain" x="89.6" y="319.0" font-size="9.5" text-anchor="middle" fill="#333333" transform="rotate(-90 89.6 319.0)">2.16 m</text>
<path class="dim-chain" d="M 364.6,717.7 L 364.6,539.2" fill="none" stroke="#777777" stroke-width="0.8" stroke-linejoin="round" stroke-linecap="round"/>
<path class="dim-chain" d="M 399.8,717.7 L 364.6,717.7" fill="none" stroke="#777777" stroke-width="0.6" stroke-linejoin="round" stroke-linecap="round"/>
<path class="dim" d="M 361.6,720.7 L 367.6,714.7" fill="none" stroke="#777777" stroke-width="0.8" stroke-linejoin="round" stroke-linecap="round"/>
<path class="dim-chain" d="M 399.8,539.2 L 364.6,539.2" fill="none" stroke="#777777" stroke-width="0.6" stroke-linejoin="round" stroke-linecap="round"/>
<path class="dim" d="M 361.6,542.2 L 367.6,536.2" fill="none" stroke="#777777" stroke-width="0.8" stroke-linejoin="round" stroke-linecap="round"/>
<text class="dim-chain" x="358.2" y="628.4" font-size="9.5" text-anchor="middle" fill="#333333" transform="rotate(-90 358.2 628.4)">2.23 m</text>
<path class="dim-chain" d="M 968.7,596.2 L 968.7,509.6" fill="none" stroke="#777777" stroke-width="0.8" stroke-linejoin="round" stroke-linecap="round"/>
<path class="dim-chain" d="M 933.5,596.2 L 968.7,596.2" fill="none" stroke="#777777" stroke-width="0.6" stroke-linejoin="round" stroke-linecap="round"/>
<path class="dim" d="M 965.7,599.2 L 971.7,593.2" fill="none" stroke="#777777" stroke-width="0.8" stroke-linejoin="round" stroke-linecap="round"/>
<path class="dim-chain" d="M 933.5,509.6 L 968.7,509.6" fill="none" stroke="#777777" stroke-width="0.6" stroke-linejoin="round" stroke-linecap="round"/>
<path class="dim" d="M 965.7,512.6 L 971.7,506.6" fill="none" stroke="#777777" stroke-width="0.8" stroke-linejoin="round" stroke-linecap="round"/>
<text class="dim-chain" x="975.1" y="552.9" font-size="9.5" text-anchor="middle" fill="#333333" transform="rotate(-90 975.1 552.9)">1.08 m</text>
<path class="dim-chain" d="M 626.7,768.0 L 467.6,768.0" fill="none" stroke="#777777" stroke-width="0.8" stroke-linejoin="round" stroke-linecap="round"/>
<path class="dim-chain" d="M 626.7,732.8 L 626.7,768.0" fill="none" stroke="#777777" stroke-width="0.6" stroke-linejoin="round" stroke-linecap="round"/>
<path class="dim" d="M 623.7,771.0 L 629.7,765.0" fill="none" stroke="#777777" stroke-width="0.8" stroke-linejoin="round" stroke-linecap="round"/>
<path class="dim-chain" d="M 467.6,732.8 L 467.6,768.0" fill="none" stroke="#777777" stroke-width="0.6" stroke-linejoin="round" stroke-linecap="round"/>
<path class="dim" d="M 464.6,771.0 L 470.6,765.0" fill="none" stroke="#777777" stroke-width="0.8" stroke-linejoin="round" stroke-linecap="round"/>
<text class="dim-chain" x="547.2" y="777.9" font-size="9.5" text-anchor="middle" fill="#333333">1.99 m</text>
<path class="dim-chain" d="M 626.7,757.7 L 404.6,757.7" fill="none" stroke="#777777" stroke-width="0.8" stroke-linejoin="round" stroke-linecap="round"/>
<path class="dim-chain" d="M 626.7,722.5 L 626.7,757.7" fill="none" stroke="#777777" stroke-width="0.6" stroke-linejoin="round" stroke-linecap="round"/>
<path class="dim" d="M 623.7,760.7 L 629.7,754.7" fill="none" stroke="#777777" stroke-width="0.8" stroke-linejoin="round" stroke-linecap="round"/>
<path class="dim-chain" d="M 404.6,722.5 L 404.6,757.7" fill="none" stroke="#777777" stroke-width="0.6" stroke-linejoin="round" stroke-linecap="round"/>
<path class="dim" d="M 401.6,760.7 L 407.6,754.7" fill="none" stroke="#777777" stroke-width="0.8" stroke-linejoin="round" stroke-linecap="round"/>
<text class="dim-chain" x="515.7" y="767.6" font-size="9.5" text-anchor="middle" fill="#333333">2.78 m</text>
<path class="dim-chain" d="M 429.8,595.2 L 287.6,595.2" fill="none" stroke="#777777" stroke-width="0.8" stroke-linejoin="round" stroke-linecap="round"/>
<path class="dim-chain" d="M 429.8,560.0 L 429.8,595.2" fill="none" stroke="#777777" stroke-width="0.6" stroke-linejoin="round" stroke-linecap="round"/>
<path class="dim" d="M 426.8,598.2 L 432.8,592.2" fill="none" stroke="#777777" stroke-width="0.8" stroke-linejoin="round" stroke-linecap="round"/>
<path class="dim-chain" d="M 287.6,560.0 L 287.6,595.2" fill="none" stroke="#777777" stroke-width="0.6" stroke-linejoin="round" stroke-linecap="round"/>
<path class="dim" d="M 284.6,598.2 L 290.6,592.2" fill="none" stroke="#777777" stroke-width="0.8" stroke-linejoin="round" stroke-linecap="round"/>
<text class="dim-chain" x="358.7" y="605.1" font-size="9.5" text-anchor="middle" fill="#333333">1.78 m</text>
<path class="dim-chain" d="M 541.4,269.9 L 412.4,269.9" fill="none" stroke="#777777" stroke-width="0.8" stroke-linejoin="round" stroke-linecap="round"/>
<path class="dim-chain" d="M 541.4,305.1 L 541.4,269.9" fill="none" stroke="#777777" stroke-width="0.6" stroke-linejoin="round" stroke-linecap="round"/>
<path class="dim" d="M 538.4,272.9 L 544.4,266.9" fill="none" stroke="#777777" stroke-width="0.8" stroke-linejoin="round" stroke-linecap="round"/>
<path class="dim-chain" d="M 412.4,305.1 L 412.4,269.9" fill="none" stroke="#777777" stroke-width="0.6" stroke-linejoin="round" stroke-linecap="round"/>
<path class="dim" d="M 409.4,272.9 L 415.4,266.9" fill="none" stroke="#777777" stroke-width="0.8" stroke-linejoin="round" stroke-linecap="round"/>
<text class="dim-chain" x="476.9" y="263.5" font-size="9.5" text-anchor="middle" fill="#333333">1.61 m</text>
<path class="dim-chain" d="M 593.1,256.1 L 339.1,256.1" fill="none" stroke="#777777" stroke-width="0.8" stroke-linejoin="round" stroke-linecap="round"/>
<path class="dim-chain" d="M 593.1,291.3 L 593.1,256.1" fill="none" stroke="#777777" stroke-width="0.6" stroke-linejoin="round" stroke-linecap="round"/>
<path class="dim" d="M 590.1,259.1 L 596.1,253.1" fill="none" stroke="#777777" stroke-width="0.8" stroke-linejoin="round" stroke-linecap="round"/>
<path class="dim-chain" d="M 339.1,291.3 L 339.1,256.1" fill="none" stroke="#777777" stroke-width="0.6" stroke-linejoin="round" stroke-linecap="round"/>
<path class="dim" d="M 336.1,259.1 L 342.1,253.1" fill="none" stroke="#777777" stroke-width="0.8" stroke-linejoin="round" stroke-linecap="round"/>
<text class="dim-chain" x="466.1" y="249.7" font-size="9.5" text-anchor="middle" fill="#333333">3.17 m</text>
<path class="dim-chain" d="M 294.8,116.0 L 168.3,116.0" fill="none" stroke="#777777" stroke-width="0.8" stroke-linejoin="round" stroke-linecap="round"/>
<path class="dim-chain" d="M 294.8,151.2 L 294.8,116.0" fill="none" stroke="#777777" stroke-width="0.6" stroke-linejoin="round" stroke-linecap="round"/>
<path class="dim" d="M 291.8,119.0 L 297.8,113.0" fill="none" stroke="#777777" stroke-width="0.8" stroke-linejoin="round" stroke-linecap="round"/>
<path class="dim-chain" d="M 168.3,151.2 L 168.3,116.0" fill="none" stroke="#777777" stroke-width="0.6" stroke-linejoin="round" stroke-linecap="round"/>
<path class="dim" d="M 165.3,119.0 L 171.3,113.0" fill="none" stroke="#777777" stroke-width="0.8" stroke-linejoin="round" stroke-linecap="round"/>
<text class="dim-chain" x="231.6" y="109.6" font-size="9.5" text-anchor="middle" fill="#333333">1.58 m</text>
<path class="dim-chain" d="M 666.7,415.6 L 666.7,296.9" fill="none" stroke="#777777" stroke-width="0.8" stroke-linejoin="round" stroke-linecap="round"/>
<path class="dim-chain" d="M 631.5,415.6 L 666.7,415.6" fill="none" stroke="#777777" stroke-width="0.6" stroke-linejoin="round" stroke-linecap="round"/>
<path class="dim" d="M 663.7,418.6 L 669.7,412.6" fill="none" stroke="#777777" stroke-width="0.8" stroke-linejoin="round" stroke-linecap="round"/>
<path class="dim-chain" d="M 631.5,296.9 L 666.7,296.9" fill="none" stroke="#777777" stroke-width="0.6" stroke-linejoin="round" stroke-linecap="round"/>
<path class="dim" d="M 663.7,299.9 L 669.7,293.9" fill="none" stroke="#777777" stroke-width="0.8" stroke-linejoin="round" stroke-linecap="round"/>
<text class="dim-chain" x="673.1" y="356.2" font-size="9.5" text-anchor="middle" fill="#333333" transform="rotate(-90 673.1 356.2)">1.48 m</text>
<path class="dim-axes" d="M 144.0,80.0 L 924.7,80.0" fill="none" stroke="#777777" stroke-width="0.8" stroke-linejoin="round" stroke-linecap="round"/>
<path class="dim" d="M 141.0,83.0 L 147.0,77.0" fill="none" stroke="#777777" stroke-width="0.8" stroke-linejoin="round" stroke-linecap="round"/>
<path class="dim" d="M 269.6,83.0 L 275.6,77.0" fill="none" stroke="#777777" stroke-width="0.8" stroke-linejoin="round" stroke-linecap="round"/>
<path class="dim" d="M 416.2,83.0 L 422.2,77.0" fill="none" stroke="#777777" stroke-width="0.8" stroke-linejoin="round" stroke-linecap="round"/>
<path class="dim" d="M 630.3,83.0 L 636.3,77.0" fill="none" stroke="#777777" stroke-width="0.8" stroke-linejoin="round" stroke-linecap="round"/>
<path class="dim" d="M 921.7,83.0 L 927.7,77.0" fill="none" stroke="#777777" stroke-width="0.8" stroke-linejoin="round" stroke-linecap="round"/>
<text class="dim-axes" x="208.3" y="76.0" font-size="9.5" text-anchor="middle" fill="#333333">1.61 m</text>
<text class="dim-axes" x="345.9" y="76.0" font-size="9.5" text-anchor="middle" fill="#333333">1.83 m</text>
<text class="dim-axes" x="526.2" y="76.0" font-size="9.5" text-anchor="middle" fill="#333333">2.68 m</text>
<text class="dim-axes" x="779.0" y="76.0" font-size="9.5" text-anchor="middle" fill="#333333">3.64 m</text>
<path class="dim-axes" d="M 1144.7,705.6 L 1144.7,164.0" fill="none" stroke="#777777" stroke-width="0.8" stroke-linejoin="round" stroke-linecap="round"/>
<path class="dim" d="M 1141.7,708.6 L 1147.7,702.6" fill="none" stroke="#777777" stroke-width="0.8" stroke-linejoin="round" stroke-linecap="round"/>
<path class="dim" d="M 1141.7,614.7 L 1147.7,608.7" fill="none" stroke="#777777" stroke-width="0.8" stroke-linejoin="round" stroke-linecap="round"/>
<path class="dim" d="M 1141.7,555.6 L 1147.7,549.6" fill="none" stroke="#777777" stroke-width="0.8" stroke-linejoin="round" stroke-linecap="round"/>
<path class="dim" d="M 1141.7,299.9 L 1147.7,293.9" fill="none" stroke="#777777" stroke-width="0.8" stroke-linejoin="round" stroke-linecap="round"/>
<path class="dim" d="M 1141.7,221.9 L 1147.7,215.9" fill="none" stroke="#777777" stroke-width="0.8" stroke-linejoin="round" stroke-linecap="round"/>
<path class="dim" d="M 1141.7,167.0 L 1147.7,161.0" fill="none" stroke="#777777" stroke-width="0.8" stroke-linejoin="round" stroke-linecap="round"/>
<text class="dim-axes" x="1148.7" y="658.6" font-size="9.5" text-anchor="middle" fill="#333333" transform="rotate(-90 1148.7 658.6)">1.17 m</text>
<text class="dim-axes" x="1148.7" y="582.1" font-size="9.5" text-anchor="middle" fill="#333333" transform="rotate(-90 1148.7 582.1)">0.74 m</text>
<text class="dim-axes" x="1148.7" y="424.8" font-size="9.5" text-anchor="middle" fill="#333333" transform="rotate(-90 1148.7 424.8)">3.20 m</text>
<text class="dim-axes" x="1148.7" y="257.9" font-size="9.5" text-anchor="middle" fill="#333333" transform="rotate(-90 1148.7 257.9)">0.97 m</text>
<text class="dim-axes" x="1148.7" y="191.5" font-size="9.5" text-anchor="middle" fill="#333333" transform="rotate(-90 1148.7 191.5)">0.69 m</text>
<path class="dim" d="M 136.0,812.0 L 1068.7,812.0" fill="none" stroke="#777777" stroke-width="0.8" stroke-linejoin="round" stroke-linecap="round"/>
<path class="dim" d="M 136.0,734.0 L 136.0,812.0" fill="none" stroke="#777777" stroke-width="0.6" stroke-linejoin="round" stroke-linecap="round"/>
<path class="dim" d="M 1068.7,734.0 L 1068.7,812.0" fill="none" stroke="#777777" stroke-width="0.6" stroke-linejoin="round" stroke-linecap="round"/>
<path class="dim" d="M 133.0,815.0 L 139.0,809.0" fill="none" stroke="#777777" stroke-width="0.8" stroke-linejoin="round" stroke-linecap="round"/>
<path class="dim" d="M 1065.7,815.0 L 1071.7,809.0" fill="none" stroke="#777777" stroke-width="0.8" stroke-linejoin="round" stroke-linecap="round"/>
<text class="dim" x="602.3" y="808.0" font-size="10.5" text-anchor="middle" fill="#333333">11.66 m</text>
<path class="dim" d="M 52.0,728.0 L 52.0,156.0" fill="none" stroke="#777777" stroke-width="0.8" stroke-linejoin="round" stroke-linecap="round"/>
<path class="dim" d="M 130.0,728.0 L 52.0,728.0" fill="none" stroke="#777777" stroke-width="0.6" stroke-linejoin="round" stroke-linecap="round"/>
<path class="dim" d="M 130.0,156.0 L 52.0,156.0" fill="none" stroke="#777777" stroke-width="0.6" stroke-linejoin="round" stroke-linecap="round"/>
<path class="dim" d="M 49.0,731.0 L 55.0,725.0" fill="none" stroke="#777777" stroke-width="0.8" stroke-linejoin="round" stroke-linecap="round"/>
<path class="dim" d="M 49.0,159.0 L 55.0,153.0" fill="none" stroke="#777777" stroke-width="0.8" stroke-linejoin="round" stroke-linecap="round"/>
<text class="dim" x="48.0" y="442.0" font-size="10.5" text-anchor="middle" fill="#333333" transform="rotate(-90 48.0 442.0)">7.15 m</text>
<text class="stamp" x="602.3" y="460.6" font-size="52.9502" text-anchor="middle" fill="#e8a0a0" font-weight="700" transform="rotate(-28 602.3 460.6)">PRELIMINARY · scale not calibrated</text>
<text class="table" x="1216.7" y="35.0" font-size="11" text-anchor="start" fill="#333333" font-weight="700">Area schedule</text>
<path class="table" d="M 1216.7,40.0 L 1476.7,40.0" fill="none" stroke="#333333" stroke-width="0.8" stroke-linejoin="round" stroke-linecap="round"/>
<text class="table" x="1219.7" y="51.0" font-size="8.5" text-anchor="start" fill="#333333" font-weight="700">Name</text>
<text class="table" x="1403.5" y="51.0" font-size="8.5" text-anchor="end" fill="#333333" font-weight="700">Area</text>
<text class="table" x="1473.7" y="51.0" font-size="8.5" text-anchor="end" fill="#333333" font-weight="700">Perimeter</text>
<path class="table" d="M 1216.7,55.0 L 1476.7,55.0" fill="none" stroke="#333333" stroke-width="0.6" stroke-linejoin="round" stroke-linecap="round"/>
<text class="table" x="1219.7" y="66.0" font-size="8.5" text-anchor="start" fill="#333333">Room 1 *</text>
<text class="table" x="1403.5" y="66.0" font-size="8.5" text-anchor="end" fill="#333333">13.19 m²</text>
<text class="table" x="1473.7" y="66.0" font-size="8.5" text-anchor="end" fill="#333333">14.69 m</text>
<path class="table" d="M 1216.7,70.0 L 1476.7,70.0" fill="none" stroke="#cfcac2" stroke-width="0.5" stroke-linejoin="round" stroke-linecap="round"/>
<text class="table" x="1219.7" y="81.0" font-size="8.5" text-anchor="start" fill="#333333">Room 2 *</text>
<text class="table" x="1403.5" y="81.0" font-size="8.5" text-anchor="end" fill="#333333">5.95 m²</text>
<text class="table" x="1473.7" y="81.0" font-size="8.5" text-anchor="end" fill="#333333">10.40 m</text>
<path class="table" d="M 1216.7,85.0 L 1476.7,85.0" fill="none" stroke="#cfcac2" stroke-width="0.5" stroke-linejoin="round" stroke-linecap="round"/>
<text class="table" x="1219.7" y="96.0" font-size="8.5" text-anchor="start" fill="#333333">Room 3 *</text>
<text class="table" x="1403.5" y="96.0" font-size="8.5" text-anchor="end" fill="#333333">5.27 m²</text>
<text class="table" x="1473.7" y="96.0" font-size="8.5" text-anchor="end" fill="#333333">10.33 m</text>
<path class="table" d="M 1216.7,100.0 L 1476.7,100.0" fill="none" stroke="#cfcac2" stroke-width="0.5" stroke-linejoin="round" stroke-linecap="round"/>
<text class="table" x="1219.7" y="111.0" font-size="8.5" text-anchor="start" fill="#333333">Room 4</text>
<text class="table" x="1403.5" y="111.0" font-size="8.5" text-anchor="end" fill="#333333">4.05 m²</text>
<text class="table" x="1473.7" y="111.0" font-size="8.5" text-anchor="end" fill="#333333">10.95 m</text>
<path class="table" d="M 1216.7,115.0 L 1476.7,115.0" fill="none" stroke="#cfcac2" stroke-width="0.5" stroke-linejoin="round" stroke-linecap="round"/>
<text class="table" x="1219.7" y="126.0" font-size="8.5" text-anchor="start" fill="#333333">Room 5 *</text>
<text class="table" x="1403.5" y="126.0" font-size="8.5" text-anchor="end" fill="#333333">2.52 m²</text>
<text class="table" x="1473.7" y="126.0" font-size="8.5" text-anchor="end" fill="#333333">6.96 m</text>
<path class="table" d="M 1216.7,130.0 L 1476.7,130.0" fill="none" stroke="#cfcac2" stroke-width="0.5" stroke-linejoin="round" stroke-linecap="round"/>
<text class="table" x="1219.7" y="141.0" font-size="8.5" text-anchor="start" fill="#333333">Net floor area</text>
<text class="table" x="1403.5" y="141.0" font-size="8.5" text-anchor="end" fill="#333333">30.55 m²</text>
<text class="table" x="1473.7" y="141.0" font-size="8.5" text-anchor="end" fill="#333333"></text>
<path class="table" d="M 1216.7,145.0 L 1476.7,145.0" fill="none" stroke="#cfcac2" stroke-width="0.5" stroke-linejoin="round" stroke-linecap="round"/>
<text class="table" x="1219.7" y="156.0" font-size="8.5" text-anchor="start" fill="#333333">Wall footprint</text>
<text class="table" x="1403.5" y="156.0" font-size="8.5" text-anchor="end" fill="#333333">4.86 m²</text>
<text class="table" x="1473.7" y="156.0" font-size="8.5" text-anchor="end" fill="#333333">38.47 m</text>
<path class="table" d="M 1216.7,160.0 L 1476.7,160.0" fill="none" stroke="#cfcac2" stroke-width="0.5" stroke-linejoin="round" stroke-linecap="round"/>
<text class="table" x="1219.7" y="171.0" font-size="8.5" text-anchor="start" fill="#333333">Gross area</text>
<text class="table" x="1403.5" y="171.0" font-size="8.5" text-anchor="end" fill="#333333">34.92 m²</text>
<text class="table" x="1473.7" y="171.0" font-size="8.5" text-anchor="end" fill="#333333"></text>
<path class="table" d="M 1216.7,175.0 L 1476.7,175.0" fill="none" stroke="#cfcac2" stroke-width="0.5" stroke-linejoin="round" stroke-linecap="round"/>
<text class="table" x="1216.7" y="186.0" font-size="8" text-anchor="start" fill="#555555">* incomplete</text>
<text class="table" x="1216.7" y="216.0" font-size="11" text-anchor="start" fill="#333333" font-weight="700">Door &amp; window schedule</text>
<path class="table" d="M 1216.7,221.0 L 1476.7,221.0" fill="none" stroke="#333333" stroke-width="0.8" stroke-linejoin="round" stroke-linecap="round"/>
<text class="table" x="1219.7" y="232.0" font-size="8.5" text-anchor="start" fill="#333333" font-weight="700">Tag</text>
<text class="table" x="1248.3" y="232.0" font-size="8.5" text-anchor="start" fill="#333333" font-weight="700">Type</text>
<text class="table" x="1338.5" y="232.0" font-size="8.5" text-anchor="end" fill="#333333" font-weight="700">Width</text>
<text class="table" x="1374.9" y="232.0" font-size="8.5" text-anchor="end" fill="#333333" font-weight="700">H</text>
<text class="table" x="1434.7" y="232.0" font-size="8.5" text-anchor="end" fill="#333333" font-weight="700">Sill</text>
<text class="table" x="1473.7" y="232.0" font-size="8.5" text-anchor="end" fill="#333333" font-weight="700">Wall</text>
<path class="table" d="M 1216.7,236.0 L 1476.7,236.0" fill="none" stroke="#333333" stroke-width="0.6" stroke-linejoin="round" stroke-linecap="round"/>
<text class="table" x="1219.7" y="247.0" font-size="8.5" text-anchor="start" fill="#333333">P1</text>
<text class="table" x="1248.3" y="247.0" font-size="8.5" text-anchor="start" fill="#333333">door</text>
<text class="table" x="1338.5" y="247.0" font-size="8.5" text-anchor="end" fill="#333333">0.67 m</text>
<text class="table" x="1374.9" y="247.0" font-size="8.5" text-anchor="end" fill="#333333">2.05 m</text>
<text class="table" x="1434.7" y="247.0" font-size="8.5" text-anchor="end" fill="#333333">-</text>
<text class="table" x="1473.7" y="247.0" font-size="8.5" text-anchor="end" fill="#333333">M22</text>
<path class="table" d="M 1216.7,251.0 L 1476.7,251.0" fill="none" stroke="#cfcac2" stroke-width="0.5" stroke-linejoin="round" stroke-linecap="round"/>
<text class="table" x="1219.7" y="262.0" font-size="8.5" text-anchor="start" fill="#333333">P2</text>
<text class="table" x="1248.3" y="262.0" font-size="8.5" text-anchor="start" fill="#333333">door</text>
<text class="table" x="1338.5" y="262.0" font-size="8.5" text-anchor="end" fill="#333333">0.56 m</text>
<text class="table" x="1374.9" y="262.0" font-size="8.5" text-anchor="end" fill="#333333">2.05 m</text>
<text class="table" x="1434.7" y="262.0" font-size="8.5" text-anchor="end" fill="#333333">-</text>
<text class="table" x="1473.7" y="262.0" font-size="8.5" text-anchor="end" fill="#333333">M23</text>
<path class="table" d="M 1216.7,266.0 L 1476.7,266.0" fill="none" stroke="#cfcac2" stroke-width="0.5" stroke-linejoin="round" stroke-linecap="round"/>
<text class="table" x="1219.7" y="277.0" font-size="8.5" text-anchor="start" fill="#333333">A1</text>
<text class="table" x="1248.3" y="277.0" font-size="8.5" text-anchor="start" fill="#333333">passage</text>
<text class="table" x="1338.5" y="277.0" font-size="8.5" text-anchor="end" fill="#333333">1.48 m</text>
<text class="table" x="1374.9" y="277.0" font-size="8.5" text-anchor="end" fill="#333333">3.11 m</text>
<text class="table" x="1434.7" y="277.0" font-size="8.5" text-anchor="end" fill="#333333">-</text>
<text class="table" x="1473.7" y="277.0" font-size="8.5" text-anchor="end" fill="#333333">M21</text>
<path class="table" d="M 1216.7,281.0 L 1476.7,281.0" fill="none" stroke="#cfcac2" stroke-width="0.5" stroke-linejoin="round" stroke-linecap="round"/>
<text class="notes" x="1216.7" y="310.0" font-size="11" text-anchor="start" fill="#333333" font-weight="700">Notes</text>
<text class="notes" x="1216.7" y="326.0" font-size="8.5" text-anchor="start" fill="#333333">1. Walls M2, M3, M5, M6, M7, M8, M12, M13, M15, M16, M17, M18,</text>
<text class="notes" x="1226.1" y="338.5" font-size="8.5" text-anchor="start" fill="#333333">M19, M21, M22, M23: thickness assumed 0.10 m (seen from one</text>
<text class="notes" x="1226.1" y="351.0" font-size="8.5" text-anchor="start" fill="#333333">side only).</text>
<text class="notes" x="1216.7" y="363.5" font-size="8.5" text-anchor="start" fill="#333333">2. Walls M1, M4, M9, M10, M11, M14, M20: thickness assumed 0.20</text>
<text class="notes" x="1226.1" y="376.0" font-size="8.5" text-anchor="start" fill="#333333">m (seen from one side only).</text>
<text class="notes" x="1216.7" y="388.5" font-size="8.5" text-anchor="start" fill="#333333">3. Room 1, Room 2, Room 3, Room 5: one side was not scanned;</text>
<text class="notes" x="1226.1" y="401.0" font-size="8.5" text-anchor="start" fill="#333333">the outline follows the seen floor there.</text>
<text class="notes" x="1216.7" y="413.5" font-size="8.5" text-anchor="start" fill="#333333">4. Two rooms share 0.44 m² of floor; the areas of each are counted</text>
<text class="notes" x="1226.1" y="426.0" font-size="8.5" text-anchor="start" fill="#333333">separately but the total counts it once.</text>
<text class="notes" x="1216.7" y="438.5" font-size="8.5" text-anchor="start" fill="#333333">5. Scale comes from the network alone: pass --focal-px or calibrate</text>
<text class="notes" x="1226.1" y="451.0" font-size="8.5" text-anchor="start" fill="#333333">with --door-width.</text>
<text class="notes" x="1216.7" y="463.5" font-size="8.5" text-anchor="start" fill="#333333">6. Door height assumed (lintel not seen): P1, P2.</text>
<text class="notes" x="1216.7" y="476.0" font-size="8.5" text-anchor="start" fill="#333333">7. No window detected. Windows need the wall under and above</text>
<text class="notes" x="1226.1" y="488.5" font-size="8.5" text-anchor="start" fill="#333333">them scanned.</text>
<path class="titleblock" d="M 24.0,840.0 1476.7,840.0 1476.7,918.0 24.0,918.0 Z" fill="#ffffff" stroke="#333" stroke-width="1" stroke-linejoin="round" stroke-linecap="round"/>
<path class="titleblock" d="M 517.9,840.0 L 517.9,918.0" fill="none" stroke="#333" stroke-width="0.7" stroke-linejoin="round" stroke-linecap="round"/>
<path class="titleblock" d="M 837.5,840.0 L 837.5,918.0" fill="none" stroke="#333" stroke-width="0.7" stroke-linejoin="round" stroke-linecap="round"/>
<path class="titleblock" d="M 1069.9,840.0 L 1069.9,918.0" fill="none" stroke="#333" stroke-width="0.7" stroke-linejoin="round" stroke-linecap="round"/>
<path class="titleblock" d="M 1273.3,840.0 L 1273.3,918.0" fill="none" stroke="#333" stroke-width="0.7" stroke-linejoin="round" stroke-linecap="round"/>
<text class="titleblock" x="30.0" y="853.0" font-size="7.5" text-anchor="start" fill="#666666">PROJECT</text>
<text class="titleblock" x="30.0" y="876.0" font-size="14" text-anchor="start" fill="#111111" font-weight="700">U2 apartment (CC BY, YouTube I-JUCu_9xKQ)</text>
<text class="titleblock" x="30.0" y="894.0" font-size="9.5" text-anchor="start" fill="#555555">Drawing: Floor plan</text>
<text class="titleblock" x="30.0" y="908.0" font-size="8.5" text-anchor="start" fill="#666666">5 rooms · 30.55 m² · ceiling 3.11 m (measured)</text>
<text class="titleblock" x="523.9" y="853.0" font-size="7.5" text-anchor="start" fill="#666666">AUTHOR</text>
<text class="titleblock" x="523.9" y="872.0" font-size="11" text-anchor="start" fill="#111111">Jhona</text>
<text class="titleblock" x="523.9" y="894.0" font-size="9.5" text-anchor="start" fill="#555555">Level: ±0.00</text>
<text class="titleblock" x="523.9" y="908.0" font-size="8.5" text-anchor="start" fill="#666666">made with levanta</text>
<text class="titleblock" x="843.5" y="853.0" font-size="7.5" text-anchor="start" fill="#666666">SCALE</text>
<text class="titleblock" x="843.5" y="872.0" font-size="11" text-anchor="start" fill="#111111">— · not calibrated</text>
<path class="titleblock" d="M 843.5,898.0 883.5,898.0 883.5,903.0 843.5,903.0 Z" fill="#222"/>
<path class="titleblock" d="M 883.5,898.0 923.5,898.0 923.5,903.0 883.5,903.0 Z" fill="none" stroke="#222" stroke-width="0.8" stroke-linejoin="round" stroke-linecap="round"/>
<text class="titleblock" x="843.5" y="895.0" font-size="7.5" text-anchor="start" fill="#666666">0</text>
<text class="titleblock" x="923.5" y="895.0" font-size="7.5" text-anchor="end" fill="#666666">1.00 m</text>
<text class="titleblock" x="1075.9" y="853.0" font-size="7.5" text-anchor="start" fill="#666666">DATE</text>
<text class="titleblock" x="1075.9" y="872.0" font-size="11" text-anchor="start" fill="#111111">2026-09-06</text>
<text class="titleblock" x="1075.9" y="894.0" font-size="9.5" text-anchor="start" fill="#555555">Rev. A</text>
<text class="titleblock" x="1279.3" y="853.0" font-size="7.5" text-anchor="start" fill="#666666">SHEET</text>
<text class="titleblock" x="1279.3" y="872.0" font-size="11" text-anchor="start" fill="#111111">A-01</text>
<text class="titleblock" x="1279.3" y="894.0" font-size="9.5" text-anchor="start" fill="#555555">N: —</text>
</svg>