  0
SECTION
  2
HEADER
  9
$ACADVER
  1
AC1024
  9
$ACADMAINTVER
 70
6
  9
$DWGCODEPAGE
  3
ANSI_1252
  9
$LASTSAVEDBY
  1
ezdxf
  9
$INSBASE
 10
0.0
 20
0.0
 30
0.0
  9
$EXTMIN
 10
1e+20
 20
1e+20
 30
1e+20
  9
$EXTMAX
 10
-1e+20
 20
-1e+20
 30
-1e+20
  9
$LIMMIN
 10
0.0
 20
0.0
  9
$LIMMAX
 10
420.0
 20
297.0
  9
$ORTHOMODE
 70
0
  9
$REGENMODE
 70
1
  9
$FILLMODE
 70
1
  9
$QTEXTMODE
 70
0
  9
$MIRRTEXT
 70
1
  9
$LTSCALE
 40
1.0
  9
$ATTMODE
 70
1
  9
$TEXTSIZE
 40
2.5
  9
$TRACEWID
 40
1.0
  9
$TEXTSTYLE
  7
OpenSans
  9
$CLAYER
  8
0
  9
$CELTYPE
  6
ByLayer
  9
$CECOLOR
 62
256
  9
$CELTSCALE
 40
1.0
  9
$DISPSILH
 70
0
  9
$DIMSCALE
 40
1.0
  9
$DIMASZ
 40
0.175
  9
$DIMEXO
 40
0.125
  9
$DIMDLI
 40
3.75
  9
$DIMRND
 40
0.0
  9
$DIMDLE
 40
0.0
  9
$DIMEXE
 40
0.375
  9
$DIMTP
 40
0.0
  9
$DIMTM
 40
0.0
  9
$DIMTXT
 40
0.25
  9
$DIMCEN
 40
2.5
  9
$DIMTSZ
 40
0.0
  9
$DIMTOL
 70
0
  9
$DIMLIM
 70
0
  9
$DIMTIH
 70
0
  9
$DIMTOH
 70
0
  9
$DIMSE1
 70
0
  9
$DIMSE2
 70
0
  9
$DIMTAD
 70
1
  9
$DIMZIN
 70
12
  9
$DIMBLK
  1
ARCHTICK
  9
$DIMASO
 70
1
  9
$DIMSHO
 70
1
  9
$DIMPOST
  1

  9
$DIMAPOST
  1

  9
$DIMALT
 70
0
  9
$DIMALTD
 70
3
  9
$DIMALTF
 40
0.03937007874
  9
$DIMLFAC
 40
100.0
  9
$DIMTOFL
 70
1
  9
$DIMTVP
 40
0.0
  9
$DIMTIX
 70
0
  9
$DIMSOXD
 70
0
  9
$DIMSAH
 70
0
  9
$DIMBLK1
  1

  9
$DIMBLK2
  1

  9
$DIMSTYLE
  2
EZDXF
  9
$DIMCLRD
 70
0
  9
$DIMCLRE
 70
0
  9
$DIMCLRT
 70
0
  9
$DIMTFAC
 40
0.5
  9
$DIMGAP
 40
0.1
  9
$DIMJUST
 70
0
  9
$DIMSD1
 70
0
  9
$DIMSD2
 70
0
  9
$DIMTOLJ
 70
0
  9
$DIMTZIN
 70
8
  9
$DIMALTZ
 70
0
  9
$DIMALTTZ
 70
0
  9
$DIMUPT
 70
1
  9
$DIMDEC
 70
2
  9
$DIMTDEC
 70
2
  9
$DIMALTU
 70
2
  9
$DIMALTTD
 70
3
  9
$DIMTXSTY
  7
OpenSansCondensed-Light
  9
$DIMAUNIT
 70
0
  9
$DIMADEC
 70
2
  9
$DIMALTRND
 40
0.0
  9
$DIMAZIN
 70
3
  9
$DIMDSEP
 70
46
  9
$DIMATFIT
 70
3
  9
$DIMFRAC
 70
0
  9
$DIMLDRBLK
  1

  9
$DIMLUNIT
 70
2
  9
$DIMLWD
 70
-2
  9
$DIMLWE
 70
-2
  9
$DIMTMOVE
 70
2
  9
$DIMFXL
 40
1.0
  9
$DIMFXLON
 70
0
  9
$DIMJOGANG
 40
0.785398163397
  9
$DIMTFILL
 70
0
  9
$DIMTFILLCLR
 70
0
  9
$DIMARCSYM
 70
0
  9
$DIMLTYPE
  6

  9
$DIMLTEX1
  6

  9
$DIMLTEX2
  6

  9
$DIMTXTDIRECTION
 70
0
  9
$LUNITS
 70
2
  9
$LUPREC
 70
4
  9
$SKETCHINC
 40
1.0
  9
$FILLETRAD
 40
10.0
  9
$AUNITS
 70
0
  9
$AUPREC
 70
2
  9
$MENU
  1
.
  9
$ELEVATION
 40
0.0
  9
$PELEVATION
 40
0.0
  9
$THICKNESS
 40
0.0
  9
$LIMCHECK
 70
0
  9
$CHAMFERA
 40
0.0
  9
$CHAMFERB
 40
0.0
  9
$CHAMFERC
 40
0.0
  9
$CHAMFERD
 40
0.0
  9
$SKPOLY
 70
0
  9
$TDCREATE
 40
2461290.5409027776
  9
$TDUCREATE
 40
2458532.153996898
  9
$TDUPDATE
 40
2461290.5409027776
  9
$TDUUPDATE
 40
2458532.1544311
  9
$TDINDWG
 40
0.0
  9
$TDUSRTIMER
 40
0.0
  9
$USRTIMER
 70
1
  9
$ANGBASE
 50
0.0
  9
$ANGDIR
 70
0
  9
$PDMODE
 70
0
  9
$PDSIZE
 40
0.0
  9
$PLINEWID
 40
0.0
  9
$SPLFRAME
 70
0
  9
$SPLINETYPE
 70
6
  9
$SPLINESEGS
 70
8
  9
$HANDSEED
  5
23B
  9
$SURFTAB1
 70
6
  9
$SURFTAB2
 70
6
  9
$SURFTYPE
 70
6
  9
$SURFU
 70
6
  9
$SURFV
 70
6
  9
$UCSBASE
  2

  9
$UCSNAME
  2

  9
$UCSORG
 10
0.0
 20
0.0
 30
0.0
  9
$UCSXDIR
 10
1.0
 20
0.0
 30
0.0
  9
$UCSYDIR
 10
0.0
 20
1.0
 30
0.0
  9
$UCSORTHOREF
  2

  9
$UCSORTHOVIEW
 70
0
  9
$UCSORGTOP
 10
0.0
 20
0.0
 30
0.0
  9
$UCSORGBOTTOM
 10
0.0
 20
0.0
 30
0.0
  9
$UCSORGLEFT
 10
0.0
 20
0.0
 30
0.0
  9
$UCSORGRIGHT
 10
0.0
 20
0.0
 30
0.0
  9
$UCSORGFRONT
 10
0.0
 20
0.0
 30
0.0
  9
$UCSORGBACK
 10
0.0
 20
0.0
 30
0.0
  9
$PUCSBASE
  2

  9
$PUCSNAME
  2

  9
$PUCSORG
 10
0.0
 20
0.0
 30
0.0
  9
$PUCSXDIR
 10
1.0
 20
0.0
 30
0.0
  9
$PUCSYDIR
 10
0.0
 20
1.0
 30
0.0
  9
$PUCSORTHOREF
  2

  9
$PUCSORTHOVIEW
 70
0
  9
$PUCSORGTOP
 10
0.0
 20
0.0
 30
0.0
  9
$PUCSORGBOTTOM
 10
0.0
 20
0.0
 30
0.0
  9
$PUCSORGLEFT
 10
0.0
 20
0.0
 30
0.0
  9
$PUCSORGRIGHT
 10
0.0
 20
0.0
 30
0.0
  9
$PUCSORGFRONT
 10
0.0
 20
0.0
 30
0.0
  9
$PUCSORGBACK
 10
0.0
 20
0.0
 30
0.0
  9
$USERI1
 70
0
  9
$USERI2
 70
0
  9
$USERI3
 70
0
  9
$USERI4
 70
0
  9
$USERI5
 70
0
  9
$USERR1
 40
0.0
  9
$USERR2
 40
0.0
  9
$USERR3
 40
0.0
  9
$USERR4
 40
0.0
  9
$USERR5
 40
0.0
  9
$WORLDVIEW
 70
1
  9
$SHADEDGE
 70
3
  9
$SHADEDIF
 70
70
  9
$TILEMODE
 70
1
  9
$MAXACTVP
 70
64
  9
$PINSBASE
 10
0.0
 20
0.0
 30
0.0
  9
$PLIMCHECK
 70
0
  9
$PEXTMIN
 10
1e+20
 20
1e+20
 30
1e+20
  9
$PEXTMAX
 10
-1e+20
 20
-1e+20
 30
-1e+20
  9
$PLIMMIN
 10
0.0
 20
0.0
  9
$PLIMMAX
 10
420.0
 20
297.0
  9
$UNITMODE
 70
0
  9
$VISRETAIN
 70
1
  9
$PLINEGEN
 70
0
  9
$PSLTSCALE
 70
1
  9
$TREEDEPTH
 70
3020
  9
$CMLSTYLE
  2
Standard
  9
$CMLJUST
 70
0
  9
$CMLSCALE
 40
20.0
  9
$PROXYGRAPHICS
 70
1
  9
$MEASUREMENT
 70
1
  9
$CELWEIGHT
370
-1
  9
$ENDCAPS
280
0
  9
$JOINSTYLE
280
0
  9
$LWDISPLAY
290
1
  9
$INSUNITS
 70
6
  9
$HYPERLINKBASE
  1

  9
$STYLESHEET
  1

  9
$XEDIT
290
1
  9
$CEPSNTYPE
380
0
  9
$PSTYLEMODE
290
1
  9
$FINGERPRINTGUID
  2
{98B327F0-FB58-4F91-A335-435D4E7DB43E}
  9
$VERSIONGUID
  2
{1C5464BE-6FB8-418A-B93D-4C6432B303E1}
  9
$EXTNAMES
290
1
  9
$PSVPSCALE
 40
0.0
  9
$OLESTARTUP
290
0
  9
$SORTENTS
280
127
  9
$INDEXCTL
280
0
  9
$HIDETEXT
280
1
  9
$XCLIPFRAME
280
1
  9
$HALOGAP
280
0
  9
$OBSCOLOR
 70
257
  9
$OBSLTYPE
280
0
  9
$INTERSECTIONDISPLAY
280
0
  9
$INTERSECTIONCOLOR
 70
257
  9
$DIMASSOC
280
2
  9
$PROJECTNAME
  1

  9
$CAMERADISPLAY
290
0
  9
$LENSLENGTH
 40
50.0
  9
$CAMERAHEIGHT
 40
0.0
  9
$STEPSPERSEC
 40
24.0
  9
$STEPSIZE
 40
100.0
  9
$3DDWFPREC
 40
2.0
  9
$PSOLWIDTH
 40
0.005
  9
$PSOLHEIGHT
 40
0.08
  9
$LOFTANG1
 40
1.570796326795
  9
$LOFTANG2
 40
1.570796326795
  9
$LOFTMAG1
 40
0.0
  9
$LOFTMAG2
 40
0.0
  9
$LOFTPARAM
 70
7
  9
$LOFTNORMALS
280
1
  9
$LATITUDE
 40
37.795
  9
$LONGITUDE
 40
-122.394
  9
$NORTHDIRECTION
 40
0.0
  9
$TIMEZONE
 70
-8000
  9
$LIGHTGLYPHDISPLAY
280
1
  9
$TILEMODELIGHTSYNCH
280
1
  9
$CMATERIAL
347
20
  9
$SOLIDHIST
280
0
  9
$SHOWHIST
280
1
  9
$DWFFRAME
280
2
  9
$DGNFRAME
280
2
  9
$REALWORLDSCALE
290
1
  9
$INTERFERECOLOR
 62
256
  9
$CSHADOW
280
0
  9
$SHADOWPLANELOCATION
 40
0.0
  0
ENDSEC
  0
SECTION
  2
CLASSES
  0
CLASS
  1
ACDBDICTIONARYWDFLT
  2
AcDbDictionaryWithDefault
  3
ObjectDBX Classes
 90
0
 91
0
280
0
281
0
  0
CLASS
  1
SUN
  2
AcDbSun
  3
SCENEOE
 90
1153
 91
0
280
0
281
0
  0
CLASS
  1
VISUALSTYLE
  2
AcDbVisualStyle
  3
ObjectDBX Classes
 90
4095
 91
0
280
0
281
0
  0
CLASS
  1
MATERIAL
  2
AcDbMaterial
  3
ObjectDBX Classes
 90
1153
 91
0
280
0
281
0
  0
CLASS
  1
SCALE
  2
AcDbScale
  3
ObjectDBX Classes
 90
1153
 91
0
280
0
281
0
  0
CLASS
  1
TABLESTYLE
  2
AcDbTableStyle
  3
ObjectDBX Classes
 90
4095
 91
0
280
0
281
0
  0
CLASS
  1
MLEADERSTYLE
  2
AcDbMLeaderStyle
  3
ACDB_MLEADERSTYLE_CLASS
 90
4095
 91
0
280
0
281
0
  0
CLASS
  1
DICTIONARYVAR
  2
AcDbDictionaryVar
  3
ObjectDBX Classes
 90
0
 91
0
280
0
281
0
  0
CLASS
  1
CELLSTYLEMAP
  2
AcDbCellStyleMap
  3
ObjectDBX Classes
 90
1152
 91
0
280
0
281
0
  0
CLASS
  1
MENTALRAYRENDERSETTINGS
  2
AcDbMentalRayRenderSettings
  3
SCENEOE
 90
1024
 91
0
280
0
281
0
  0
CLASS
  1
ACDBDETAILVIEWSTYLE
  2
AcDbDetailViewStyle
  3
ObjectDBX Classes
 90
1025
 91
0
280
0
281
0
  0
CLASS
  1
ACDBSECTIONVIEWSTYLE
  2
AcDbSectionViewStyle
  3
ObjectDBX Classes
 90
1025
 91
0
280
0
281
0
  0
CLASS
  1
RASTERVARIABLES
  2
AcDbRasterVariables
  3
ISM
 90
0
 91
0
280
0
281
0
  0
CLASS
  1
LAYOUT
  2
AcDbLayout
  3
ObjectDBX Classes
 90
0
 91
0
280
0
281
0
  0
CLASS
  1
ACDBPLACEHOLDER
  2
AcDbPlaceHolder
  3
ObjectDBX Classes
 90
0
 91
0
280
0
281
0
  0
ENDSEC
  0
SECTION
  2
TABLES
  0
TABLE
  2
VPORT
  5
8
330
0
100
AcDbSymbolTable
 70
1
  0
VPORT
  5
23
330
8
100
AcDbSymbolTableRecord
100
AcDbViewportTableRecord
  2
*Active
 70
0
 10
0.0
 20
0.0
 11
1.0
 21
1.0
 12
0.0
 22
0.0
 13
0.0
 23
0.0
 14
0.5
 24
0.5
 15
0.5
 25
0.5
 16
0.0
 26
0.0
 36
1.0
 17
0.0
 27
0.0
 37
0.0
 40
1000.0
 41
1.34
 42
50.0
 43
0.0
 44
0.0
 50
0.0
 51
0.0
 71
0
 72
1000
 73
1
 74
3
 75
0
 76
0
 77
0
 78
0
281
0
 65
0
146
0.0
  0
ENDTAB
  0
TABLE
  2
LTYPE
  5
2
330
0
100
AcDbSymbolTable
 70
21
  0
LTYPE
  5
24
330
2
100
AcDbSymbolTableRecord
100
AcDbLinetypeTableRecord
  2
ByBlock
 70
0
  3

 72
65
 73
0
 40
0.0
  0
LTYPE
  5
25
330
2
100
AcDbSymbolTableRecord
100
AcDbLinetypeTableRecord
  2
ByLayer
 70
0
  3

 72
65
 73
0
 40
0.0
  0
LTYPE
  5
26
330
2
100
AcDbSymbolTableRecord
100
AcDbLinetypeTableRecord
  2
Continuous
 70
0
  3

 72
65
 73
0
 40
0.0
  0
LTYPE
  5
2F
330
2
100
AcDbSymbolTableRecord
100
AcDbLinetypeTableRecord
  2
CENTER
 70
0
  3
Center ____ _ ____ _ ____ _ ____ _ ____ _ ____
 72
65
 73
4
 40
5.08
 49
3.175
 74
0
 49
-0.635
 74
0
 49
0.635
 74
0
 49
-0.635
 74
0
  0
LTYPE
  5
30
330
2
100
AcDbSymbolTableRecord
100
AcDbLinetypeTableRecord
  2
CENTERX2
 70
0
  3
Center (2x) ________  __  ________  __  ________
 72
65
 73
4
 40
8.89
 49
6.35
 74
0
 49
-0.635
 74
0
 49
1.27
 74
0
 49
-0.635
 74
0
  0
LTYPE
  5
31
330
2
100
AcDbSymbolTableRecord
100
AcDbLinetypeTableRecord
  2
CENTER2
 70
0
  3
Center (.5x) ____ _ ____ _ ____ _ ____ _ ____
 72
65
 73
4
 40
2.54
 49
1.587
 74
0
 49
-0.318
 74
0
 49
0.318
 74
0
 49
-0.318
 74
0
  0
LTYPE
  5
32
330
2
100
AcDbSymbolTableRecord
100
AcDbLinetypeTableRecord
  2
DASHED
 70
0
  3
Dashed __ __ __ __ __ __ __ __ __ __ __ __ __ _
 72
65
 73
2
 40
1.524
 49
1.27
 74
0
 49
-0.254
 74
0
  0
LTYPE
  5
33
330
2
100
AcDbSymbolTableRecord
100
AcDbLinetypeTableRecord
  2
DASHEDX2
 70
0
  3
Dashed (2x) ____  ____  ____  ____  ____  ____
 72
65
 73
2
 40
3.048
 49
2.54
 74
0
 49
-0.508
 74
0
  0
LTYPE
  5
34
330
2
100
AcDbSymbolTableRecord
100
AcDbLinetypeTableRecord
  2
DASHED2
 70
0
  3
Dashed (.5x) _ _ _ _ _ _ _ _ _ _ _ _ _ _
 72
65
 73
2
 40
0.762
 49
0.635
 74
0
 49
-0.127
 74
0
  0
LTYPE
  5
35
330
2
100
AcDbSymbolTableRecord
100
AcDbLinetypeTableRecord
  2
PHANTOM
 70
0
  3
Phantom ______  __  __  ______  __  __  ______
 72
65
 73
6
 40
6.35
 49
3.175
 74
0
 49
-0.635
 74
0
 49
0.635
 74
0
 49
-0.635
 74
0
 49
0.635
 74
0
 49
-0.635
 74
0
  0
LTYPE
  5
36
330
2
100
AcDbSymbolTableRecord
100
AcDbLinetypeTableRecord
  2
PHANTOMX2
 70
0
  3
Phantom (2x)____________    ____    ____    ____________
 72
65
 73
6
 40
10.795
 49
6.35
 74
0
 49
-0.635
 74
0
 49
1.27
 74
0
 49
-0.635
 74
0
 49
1.27
 74
0
 49
-0.635
 74
0
  0
LTYPE
  5
37
330
2
100
AcDbSymbolTableRecord
100
AcDbLinetypeTableRecord
  2
PHANTOM2
 70
0
  3
Phantom (.5x) ___ _ _ ___ _ _ ___ _ _ ___ _ _ ___
 72
65
 73
6
 40
3.175
 49
1.587
 74
0
 49
-0.318
 74
0
 49
0.318
 74
0
 49
-0.318
 74
0
 49
0.318
 74
0
 49
-0.318
 74
0
  0
LTYPE
  5
38
330
2
100
AcDbSymbolTableRecord
100
AcDbLinetypeTableRecord
  2
DASHDOT
 70
0
  3
Dash dot __ . __ . __ . __ . __ . __ . __ . __
 72
65
 73
4
 40
3.556
 49
2.54
 74
0
 49
-0.508
 74
0
 49
0.0
 74
0
 49
-0.508
 74
0
  0
LTYPE
  5
39
330
2
100
AcDbSymbolTableRecord
100
AcDbLinetypeTableRecord
  2
DASHDOTX2
 70
0
  3
Dash dot (2x) ____  .  ____  .  ____  .  ____
 72
65
 73
4
 40
6.096
 49
5.08
 74
0
 49
-0.508
 74
0
 49
0.0
 74
0
 49
-0.508
 74
0
  0
LTYPE
  5
3A
330
2
100
AcDbSymbolTableRecord
100
AcDbLinetypeTableRecord
  2
DASHDOT2
 70
0
  3
Dash dot (.5x) _ . _ . _ . _ . _ . _ . _ . _
 72
65
 73
4
 40
1.778
 49
1.27
 74
0
 49
-0.254
 74
0
 49
0.0
 74
0
 49
-0.254
 74
0
  0
LTYPE
  5
3B
330
2
100
AcDbSymbolTableRecord
100
AcDbLinetypeTableRecord
  2
DOT
 70
0
  3
Dot .  .  .  .  .  .  .  .  .  .  .  .  .  .  .  .
 72
65
 73
2
 40
0.508
 49
0.0
 74
0
 49
-0.508
 74
0
  0
LTYPE
  5
3C
330
2
100
AcDbSymbolTableRecord
100
AcDbLinetypeTableRecord
  2
DOTX2
 70
0
  3
Dot (2x) .    .    .    .    .    .    .    . 
 72
65
 73
2
 40
1.016
 49
0.0
 74
0
 49
-1.016
 74
0
  0
LTYPE
  5
3D
330
2
100
AcDbSymbolTableRecord
100
AcDbLinetypeTableRecord
  2
DOT2
 70
0
  3
Dot (.5) . . . . . . . . . . . . . . . . . . . 
 72
65
 73
2
 40
0.254
 49
0.0
 74
0
 49
-0.254
 74
0
  0
LTYPE
  5
3E
330
2
100
AcDbSymbolTableRecord
100
AcDbLinetypeTableRecord
  2
DIVIDE
 70
0
  3
Divide __ . . __ . . __ . . __ . . __ . . __
 72
65
 73
6
 40
4.064
 49
2.54
 74
0
 49
-0.508
 74
0
 49
0.0
 74
0
 49
-0.508
 74
0
 49
0.0
 74
0
 49
-0.508
 74
0
  0
LTYPE
  5
3F
330
2
100
AcDbSymbolTableRecord
100
AcDbLinetypeTableRecord
  2
DIVIDEX2
 70
0
  3
Divide (2x) ____  . .  ____  . .  ____  . .  ____
 72
65
 73
6
 40
6.604
 49
5.08
 74
0
 49
-0.508
 74
0
 49
0.0
 74
0
 49
-0.508
 74
0
 49
0.0
 74
0
 49
-0.508
 74
0
  0
LTYPE
  5
40
330
2
100
AcDbSymbolTableRecord
100
AcDbLinetypeTableRecord
  2
DIVIDE2
 70
0
  3
Divide(.5x) _ . _ . _ . _ . _ . _ . _ . _
 72
65
 73
6
 40
2.032
 49
1.27
 74
0
 49
-0.254
 74
0
 49
0.0
 74
0
 49
-0.254
 74
0
 49
0.0
 74
0
 49
-0.254
 74
0
  0
ENDTAB
  0
TABLE
  2
LAYER
  5
1
330
0
100
AcDbSymbolTable
 70
15
  0
LAYER
  5
27
330
1
100
AcDbSymbolTableRecord
100
AcDbLayerTableRecord
  2
0
 70
0
 62
7
  6
Continuous
370
-3
390
13
347
21
  0
LAYER
  5
28
330
1
100
AcDbSymbolTableRecord
100
AcDbLayerTableRecord
  2
Defpoints
 70
0
 62
7
  6
Continuous
290
0
370
-3
390
13
347
21
  0
LAYER
  5
8A
330
1
100
AcDbSymbolTableRecord
100
AcDbLayerTableRecord
  2
A-WALL
 70
0
 62
7
  6
CONTINUOUS
370
50
390
13
347
21
  0
LAYER
  5
8B
330
1
100
AcDbSymbolTableRecord
100
AcDbLayerTableRecord
  2
A-WALL-PATT
 70
0
 62
8
  6
CONTINUOUS
370
13
390
13
347
21
  0
LAYER
  5
8C
330
1
100
AcDbSymbolTableRecord
100
AcDbLayerTableRecord
  2
A-AREA
 70
0
 62
3
  6
CONTINUOUS
370
18
390
13
347
21
  0
LAYER
  5
8D
330
1
100
AcDbSymbolTableRecord
100
AcDbLayerTableRecord
  2
A-AREA-OPEN
 70
0
 62
8
  6
DASHED
370
18
390
13
347
21
  0
LAYER
  5
8E
330
1
100
AcDbSymbolTableRecord
100
AcDbLayerTableRecord
  2
A-DOOR
 70
0
 62
30
  6
CONTINUOUS
370
25
390
13
347
21
  0
LAYER
  5
8F
330
1
100
AcDbSymbolTableRecord
100
AcDbLayerTableRecord
  2
A-GLAZ
 70
0
 62
5
  6
CONTINUOUS
370
25
390
13
347
21
  0
LAYER
  5
90
330
1
100
AcDbSymbolTableRecord
100
AcDbLayerTableRecord
  2
A-OPEN
 70
0
 62
8
  6
DASHED
370
18
390
13
347
21
  0
LAYER
  5
91
330
1
100
AcDbSymbolTableRecord
100
AcDbLayerTableRecord
  2
A-ANNO-TEXT
 70
0
 62
7
  6
CONTINUOUS
370
18
390
13
347
21
  0
LAYER
  5
92
330
1
100
AcDbSymbolTableRecord
100
AcDbLayerTableRecord
  2
A-ANNO-DIMS
 70
0
 62
4
  6
CONTINUOUS
370
13
390
13
347
21
  0
LAYER
  5
93
330
1
100
AcDbSymbolTableRecord
100
AcDbLayerTableRecord
  2
A-GRID
 70
0
 62
1
  6
CENTER
370
13
390
13
347
21
  0
LAYER
  5
94
330
1
100
AcDbSymbolTableRecord
100
AcDbLayerTableRecord
  2
A-ANNO-TTLB
 70
0
 62
7
  6
CONTINUOUS
370
35
390
13
347
21
  0
LAYER
  5
95
330
1
100
AcDbSymbolTableRecord
100
AcDbLayerTableRecord
  2
A-ANNO-TABL
 70
0
 62
7
  6
CONTINUOUS
370
18
390
13
347
21
  0
LAYER
  5
96
330
1
100
AcDbSymbolTableRecord
100
AcDbLayerTableRecord
  2
A-ANNO-NORTH
 70
0
 62
7
  6
CONTINUOUS
370
25
390
13
347
21
  0
ENDTAB
  0
TABLE
  2
STYLE
  5
5
330
0
100
AcDbSymbolTable
 70
26
  0
STYLE
  5
29
330
5
100
AcDbSymbolTableRecord
100
AcDbTextStyleTableRecord
  2
Standard
 70
0
 40
0.0
 41
1.0
 50
0.0
 71
0
 42
2.5
  3
txt
  4

  0
STYLE
  5
41
330
5
100
AcDbSymbolTableRecord
100
AcDbTextStyleTableRecord
  2
OpenSans-Light
 70
0
 40
0.0
 41
1.0
 50
0.0
 71
0
 42
2.5
  3
OpenSans-Light.ttf
  4

  0
STYLE
  5
42
330
5
100
AcDbSymbolTableRecord
100
AcDbTextStyleTableRecord
  2
OpenSans-Light-Italic
 70
0
 40
0.0
 41
1.0
 50
0.0
 71
0
 42
2.5
  3
OpenSans-LightItalic.ttf
  4

  0
STYLE
  5
43
330
5
100
AcDbSymbolTableRecord
100
AcDbTextStyleTableRecord
  2
OpenSans
 70
0
 40
0.0
 41
1.0
 50
0.0
 71
0
 42
2.5
  3
OpenSans-Regular.ttf
  4

  0
STYLE
  5
44
330
5
100
AcDbSymbolTableRecord
100
AcDbTextStyleTableRecord
  2
OpenSans-Italic
 70
0
 40
0.0
 41
1.0
 50
0.0
 71
0
 42
2.5
  3
OpenSans-Italic.ttf
  4

  0
STYLE
  5
45
330
5
100
AcDbSymbolTableRecord
100
AcDbTextStyleTableRecord
  2
OpenSans-SemiBold
 70
0
 40
0.0
 41
1.0
 50
0.0
 71
0
 42
2.5
  3
OpenSans-SemiBold.ttf
  4

  0
STYLE
  5
46
330
5
100
AcDbSymbolTableRecord
100
AcDbTextStyleTableRecord
  2
OpenSans-SemiBoldItalic
 70
0
 40
0.0
 41
1.0
 50
0.0
 71
0
 42
2.5
  3
OpenSans-SemiBoldItalic.ttf
  4

  0
STYLE
  5
47
330
5
100
AcDbSymbolTableRecord
100
AcDbTextStyleTableRecord
  2
OpenSans-Bold
 70
0
 40
0.0
 41
1.0
 50
0.0
 71
0
 42
2.5
  3
OpenSans-Bold.ttf
  4

  0
STYLE
  5
48
330
5
100
AcDbSymbolTableRecord
100
AcDbTextStyleTableRecord
  2
OpenSans-BoldItalic
 70
0
 40
0.0
 41
1.0
 50
0.0
 71
0
 42
2.5
  3
OpenSans-BoldItalic.ttf
  4

  0
STYLE
  5
49
330
5
100
AcDbSymbolTableRecord
100
AcDbTextStyleTableRecord
  2
OpenSans-ExtraBold
 70
0
 40
0.0
 41
1.0
 50
0.0
 71
0
 42
2.5
  3
OpenSans-ExtraBold.ttf
  4

  0
STYLE
  5
4A
330
5
100
AcDbSymbolTableRecord
100
AcDbTextStyleTableRecord
  2
OpenSans-ExtraBoldItalic
 70
0
 40
0.0
 41
1.0
 50
0.0
 71
0
 42
2.5
  3
OpenSans-ExtraBoldItalic.ttf
  4

  0
STYLE
  5
4B
330
5
100
AcDbSymbolTableRecord
100
AcDbTextStyleTableRecord
  2
OpenSansCondensed-Bold
 70
0
 40
0.0
 41
1.0
 50
0.0
 71
0
 42
2.5
  3
OpenSansCondensed-Bold.ttf
  4

  0
STYLE
  5
4C
330
5
100
AcDbSymbolTableRecord
100
AcDbTextStyleTableRecord
  2
OpenSansCondensed-Light
 70
0
 40
0.0
 41
1.0
 50
0.0
 71
0
 42
2.5
  3
OpenSansCondensed-Light.ttf
  4

  0
STYLE
  5
4D
330
5
100
AcDbSymbolTableRecord
100
AcDbTextStyleTableRecord
  2
OpenSansCondensed-Italic
 70
0
 40
0.0
 41
1.0
 50
0.0
 71
0
 42
2.5
  3
OpenSansCondensed-LightItalic.ttf
  4

  0
STYLE
  5
4E
330
5
100
AcDbSymbolTableRecord
100
AcDbTextStyleTableRecord
  2
LiberationSans
 70
0
 40
0.0
 41
1.0
 50
0.0
 71
0
 42
2.5
  3
LiberationSans-Regular.ttf
  4

  0
STYLE
  5
4F
330
5
100
AcDbSymbolTableRecord
100
AcDbTextStyleTableRecord
  2
LiberationSans-Bold
 70
0
 40
0.0
 41
1.0
 50
0.0
 71
0
 42
2.5
  3
LiberationSans-Bold.ttf
  4

  0
STYLE
  5
50
330
5
100
AcDbSymbolTableRecord
100
AcDbTextStyleTableRecord
  2
LiberationSans-BoldItalic
 70
0
 40
0.0
 41
1.0
 50
0.0
 71
0
 42
2.5
  3
LiberationSans-BoldItalic.ttf
  4

  0
STYLE
  5
51
330
5
100
AcDbSymbolTableRecord
100
AcDbTextStyleTableRecord
  2
LiberationSans-Italic
 70
0
 40
0.0
 41
1.0
 50
0.0
 71
0
 42
2.5
  3
LiberationSans-Italic.ttf
  4

  0
STYLE
  5
52
330
5
100
AcDbSymbolTableRecord
100
AcDbTextStyleTableRecord
  2
LiberationSerif
 70
0
 40
0.0
 41
1.0
 50
0.0
 71
0
 42
2.5
  3
LiberationSerif-Regular.ttf
  4

  0
STYLE
  5
53
330
5
100
AcDbSymbolTableRecord
100
AcDbTextStyleTableRecord
  2
LiberationSerif-Bold
 70
0
 40
0.0
 41
1.0
 50
0.0
 71
0
 42
2.5
  3
LiberationSerif-Bold.ttf
  4

  0
STYLE
  5
54
330
5
100
AcDbSymbolTableRecord
100
AcDbTextStyleTableRecord
  2
LiberationSerif-BoldItalic
 70
0
 40
0.0
 41
1.0
 50
0.0
 71
0
 42
2.5
  3
LiberationSerif-BoldItalic.ttf
  4

  0
STYLE
  5
55
330
5
100
AcDbSymbolTableRecord
100
AcDbTextStyleTableRecord
  2
LiberationSerif-Italic
 70
0
 40
0.0
 41
1.0
 50
0.0
 71
0
 42
2.5
  3
LiberationSerif-Italic.ttf
  4

  0
STYLE
  5
56
330
5
100
AcDbSymbolTableRecord
100
AcDbTextStyleTableRecord
  2
LiberationMono
 70
0
 40
0.0
 41
1.0
 50
0.0
 71
0
 42
2.5
  3
LiberationMono-Regular.ttf
  4

  0
STYLE
  5
57
330
5
100
AcDbSymbolTableRecord
100
AcDbTextStyleTableRecord
  2
LiberationMono-Bold
 70
0
 40
0.0
 41
1.0
 50
0.0
 71
0
 42
2.5
  3
LiberationMono-Bold.ttf
  4

  0
STYLE
  5
58
330
5
100
AcDbSymbolTableRecord
100
AcDbTextStyleTableRecord
  2
LiberationMono-BoldItalic
 70
0
 40
0.0
 41
1.0
 50
0.0
 71
0
 42
2.5
  3
LiberationMono-BoldItalic.ttf
  4

  0
STYLE
  5
59
330
5
100
AcDbSymbolTableRecord
100
AcDbTextStyleTableRecord
  2
LiberationMono-Italic
 70
0
 40
0.0
 41
1.0
 50
0.0
 71
0
 42
2.5
  3
LiberationMono-Italic.ttf
  4

  0
ENDTAB
  0
TABLE
  2
VIEW
  5
7
330
0
100
AcDbSymbolTable
 70
0
  0
ENDTAB
  0
TABLE
  2
UCS
  5
6
330
0
100
AcDbSymbolTable
 70
0
  0
ENDTAB
  0
TABLE
  2
APPID
  5
3
330
0
100
AcDbSymbolTable
 70
3
  0
APPID
  5
2A
330
3
100
AcDbSymbolTableRecord
100
AcDbRegAppTableRecord
  2
ACAD
 70
0
  0
APPID
  5
238
330
3
100
AcDbSymbolTableRecord
100
AcDbRegAppTableRecord
  2
HATCHBACKGROUNDCOLOR
 70
0
  0
APPID
  5
239
330
3
100
AcDbSymbolTableRecord
100
AcDbRegAppTableRecord
  2
EZDXF
 70
0
  0
ENDTAB
  0
TABLE
  2
DIMSTYLE
  5
4
330
0
100
AcDbSymbolTable
 70
13
100
AcDbDimStyleTable
  0
DIMSTYLE
105
2B
330
4
100
AcDbSymbolTableRecord
100
AcDbDimStyleTableRecord
  2
Standard
 70
0
 40
1.0
 41
2.5
 42
0.625
 43
3.75
 44
1.25
 45
0.0
 46
0.0
 47
0.0
 48
0.0
 49
2.5
140
2.5
141
2.5
142
0.0
143
0.03937007874
144
1.0
145
0.0
146
1.0
147
0.625
148
0.0
 69
0
 70
0
 71
0
 72
0
 73
0
 74
0
 75
0
 76
0
 77
1
 78
8
 79
3
170
0
171
3
172
1
173
0
174
0
175
0
176
0
177
0
178
0
179
2
271
2
272
2
273
2
274
3
275
0
276
0
277
2
278
44
279
0
280
0
281
0
282
0
283
0
284
8
285
0
286
0
288
0
289
3
290
0
371
-2
372
-2
  0
DIMSTYLE
105
73
330
4
100
AcDbSymbolTableRecord
100
AcDbDimStyleTableRecord
  2
EZDXF
 70
0
 40
1.0
 41
0.175
 42
0.125
 43
3.75
 44
0.375
 45
0.0
 46
0.0
 47
0.0
 48
0.0
 49
2.5
140
0.25
141
2.5
142
0.0
143
0.03937007874
144
100.0
145
0.0
146
0.5
147
0.1
148
0.0
 69
0
 70
0
 71
0
 72
0
 73
0
 74
0
 75
0
 76
0
 77
1
 78
12
 79
3
170
0
171
3
172
1
173
0
174
0
175
0
176
0
177
0
178
0
179
2
271
2
272
2
273
2
274
3
275
0
276
0
277
2
278
46
279
2
280
0
281
0
282
0
283
0
284
8
285
0
286
0
288
1
289
3
290
0
340
4C
342
74
371
-2
372
-2
  0
DIMSTYLE
105
7C
330
4
100
AcDbSymbolTableRecord
100
AcDbDimStyleTableRecord
  2
EZ_M_100_H25_CM
 70
0
 40
1.0
 41
0.25
 42
0.125
 43
3.75
 44
0.375
 45
0.0
 46
0.0
 47
0.0
 48
0.0
 49
2.5
140
0.25
141
2.5
142
0.125
143
0.03937007874
144
100.0
145
0.0
146
0.5
147
0.1
148
0.0
 69
0
 70
0
 71
0
 72
0
 73
0
 74
0
 75
0
 76
0
 77
1
 78
12
 79
3
170
0
171
3
172
1
173
0
174
0
175
0
176
0
177
0
178
0
179
2
271
2
272
2
273
2
274
3
275
0
276
0
277
2
278
46
279
2
280
0
281
0
282
0
283
0
284
8
285
0
286
0
288
1
289
3
290
0
340
4C
371
-2
372
-2
  0
DIMSTYLE
105
7D
330
4
100
AcDbSymbolTableRecord
100
AcDbDimStyleTableRecord
  2
EZ_M_50_H25_CM
 70
0
 40
1.0
 41
0.125
 42
0.0625
 43
3.75
 44
0.1875
 45
0.0
 46
0.0
 47
0.0
 48
0.0
 49
2.5
140
0.125
141
2.5
142
0.0625
143
0.03937007874
144
100.0
145
0.0
146
0.5
147
0.05
148
0.0
 69
0
 70
0
 71
0
 72
0
 73
0
 74
0
 75
0
 76
0
 77
1
 78
12
 79
3
170
0
171
3
172
1
173
0
174
0
175
0
176
0
177
0
178
0
179
2
271
2
272
2
273
2
274
3
275
0
276
0
277
2
278
46
279
2
280
0
281
0
282
0
283
0
284
8
285
0
286
0
288
1
289
3
290
0
340
4C
371
-2
372
-2
  0
DIMSTYLE
105
7E
330
4
100
AcDbSymbolTableRecord
100
AcDbDimStyleTableRecord
  2
EZ_M_25_H25_CM
 70
0
 40
1.0
 41
0.0625
 42
0.03125
 43
3.75
 44
0.09375
 45
0.0
 46
0.0
 47
0.0
 48
0.0
 49
2.5
140
0.0625
141
2.5
142
0.03125
143
0.03937007874
144
100.0
145
0.0
146
0.5
147
0.025
148
0.0
 69
0
 70
0
 71
0
 72
0
 73
0
 74
0
 75
0
 76
0
 77
1
 78
12
 79
3
170
0
171
3
172
1
173
0
174
0
175
0
176
0
177
0
178
0
179
2
271
2
272
2
273
2
274
3
275
0
276
0
277
2
278
46
279
2
280
0
281
0
282
0
283
0
284
8
285
0
286
0
288
1
289
3
290
0
340
4C
371
-2
372
-2
  0
DIMSTYLE
105
7F
330
4
100
AcDbSymbolTableRecord
100
AcDbDimStyleTableRecord
  2
EZ_M_20_H25_CM
 70
0
 40
1.0
 41
0.05
 42
0.025
 43
3.75
 44
0.07500000000000001
 45
0.0
 46
0.0
 47
0.0
 48
0.0
 49
2.5
140
0.05
141
2.5
142
0.025
143
0.03937007874
144
100.0
145
0.0
146
0.5
147
0.020000000000000004
148
0.0
 69
0
 70
0
 71
0
 72
0
 73
0
 74
0
 75
0
 76
0
 77
1
 78
12
 79
3
170
0
171
3
172
1
173
0
174
0
175
0
176
0
177
0
178
0
179
2
271
2
272
2
273
2
274
3
275
0
276
0
277
2
278
46
279
2
280
0
281
0
282
0
283
0
284
8
285
0
286
0
288
1
289
3
290
0
340
4C
371
-2
372
-2
  0
DIMSTYLE
105
80
330
4
100
AcDbSymbolTableRecord
100
AcDbDimStyleTableRecord
  2
EZ_M_10_H25_CM
 70
0
 40
1.0
 41
0.025
 42
0.0125
 43
3.75
 44
0.037500000000000006
 45
0.0
 46
0.0
 47
0.0
 48
0.0
 49
2.5
140
0.025
141
2.5
142
0.0125
143
0.03937007874
144
100.0
145
0.0
146
0.5
147
0.010000000000000002
148
0.0
 69
0
 70
0
 71
0
 72
0
 73
0
 74
0
 75
0
 76
0
 77
1
 78
12
 79
3
170
0
171
3
172
1
173
0
174
0
175
0
176
0
177
0
178
0
179
2
271
2
272
2
273
2
274
3
275
0
276
0
277
2
278
46
279
2
280
0
281
0
282
0
283
0
284
8
285
0
286
0
288
1
289
3
290
0
340
4C
371
-2
372
-2
  0
DIMSTYLE
105
81
330
4
100
AcDbSymbolTableRecord
100
AcDbDimStyleTableRecord
  2
EZ_M_5_H25_CM
 70
0
 40
1.0
 41
0.0125
 42
0.00625
 43
3.75
 44
0.018750000000000003
 45
0.0
 46
0.0
 47
0.0
 48
0.0
 49
2.5
140
0.0125
141
2.5
142
0.00625
143
0.03937007874
144
100.0
145
0.0
146
0.5
147
0.005000000000000001
148
0.0
 69
0
 70
0
 71
0
 72
0
 73
0
 74
0
 75
0
 76
0
 77
1
 78
12
 79
3
170
0
171
3
172
1
173
0
174
0
175
0
176
0
177
0
178
0
179
2
271
2
272
2
273
2
274
3
275
0
276
0
277
2
278
46
279
2
280
0
281
0
282
0
283
0
284
8
285
0
286
0
288
1
289
3
290
0
340
4C
371
-2
372
-2
  0
DIMSTYLE
105
82
330
4
100
AcDbSymbolTableRecord
100
AcDbDimStyleTableRecord
  2
EZ_M_1_H25_CM
 70
0
 40
1.0
 41
0.0025
 42
0.00125
 43
3.75
 44
0.00375
 45
0.0
 46
0.0
 47
0.0
 48
0.0
 49
2.5
140
0.0025
141
2.5
142
0.00125
143
0.03937007874
144
100.0
145
0.0
146
0.5
147
0.001
148
0.0
 69
0
 70
0
 71
0
 72
0
 73
0
 74
0
 75
0
 76
0
 77
1
 78
12
 79
3
170
0
171
3
172
1
173
0
174
0
175
0
176
0
177
0
178
0
179
2
271
2
272
2
273
2
274
3
275
0
276
0
277
2
278
46
279
2
280
0
281
0
282
0
283
0
284
8
285
0
286
0
288
1
289
3
290
0
340
4C
371
-2
372
-2
  0
DIMSTYLE
105
83
330
4
100
AcDbSymbolTableRecord
100
AcDbDimStyleTableRecord
  2
EZ_RADIUS
 70
0
 40
1.0
 41
0.25
 42
0.125
 43
3.75
 44
0.375
 45
0.0
 46
0.0
 47
0.0
 48
0.0
 49
2.5
140
0.25
141
0.0
142
0.0
143
0.03937007874
144
100.0
145
0.0
146
0.5
147
0.1
148
0.0
 69
0
 70
0
 71
0
 72
0
 73
0
 74
0
 75
0
 76
0
 77
1
 78
12
 79
3
170
0
171
3
172
0
173
0
174
0
175
0
176
0
177
0
178
0
179
2
271
2
272
2
273
2
274
3
275
0
276
0
277
2
278
46
279
1
280
0
281
0
282
0
283
0
284
8
285
0
286
0
288
1
289
3
290
0
340
4C
342
84
371
-2
372
-2
  0
DIMSTYLE
105
88
330
4
100
AcDbSymbolTableRecord
100
AcDbDimStyleTableRecord
  2
EZ_RADIUS_INSIDE
 70
0
 40
1.0
 41
0.25
 42
0.125
 43
3.75
 44
0.375
 45
0.0
 46
0.0
 47
0.0
 48
0.0
 49
2.5
140
0.25
141
0.0
142
0.0
143
0.03937007874
144
100.0
145
0.0
146
0.5
147
0.1
148
0.0
 69
0
 70
0
 71
0
 72
0
 73
0
 74
0
 75
0
 76
0
 77
0
 78
12
 79
3
170
0
171
3
172
0
173
0
174
1
175
0
176
0
177
0
178
0
179
2
271
2
272
2
273
2
274
3
275
0
276
0
277
2
278
46
279
0
280
0
281
0
282
0
283
0
284
8
285
0
286
0
288
1
289
0
290
0
340
4C
342
84
371
-2
372
-2
  0
DIMSTYLE
105
89
330
4
100
AcDbSymbolTableRecord
100
AcDbDimStyleTableRecord
  2
EZ_CURVED
 70
0
 40
1.0
 41
0.25
 42
0.125
 43
3.75
 44
0.375
 45
0.0
 46
0.0
 47
0.0
 48
0.0
 49
2.5
140
0.25
141
2.5
142
0.0
143
0.03937007874
144
100.0
145
0.0
146
0.5
147
0.1
148
0.0
 69
0
 70
0
 71
0
 72
0
 73
0
 74
0
 75
0
 76
0
 77
1
 78
12
 79
2
 90
2
170
0
171
3
172
1
173
0
174
0
175
0
176
0
177
0
178
0
179
2
271
2
272
2
273
2
274
3
275
0
276
0
277
2
278
46
279
2
280
0
281
0
282
0
283
0
284
8
285
0
286
0
288
1
289
3
290
0
340
4C
371
-2
372
-2
  0
DIMSTYLE
105
97
330
4
100
AcDbSymbolTableRecord
100
AcDbDimStyleTableRecord
  2
LEVANTA
 70
0
 40
1.0
 41
0.08
 42
0.05
 43
3.75
 44
0.05
 45
0.0
 46
0.0
 47
0.0
 48
0.0
 49
2.5
140
0.12
141
2.5
142
0.0
143
0.03937007874
144
1.0
145
0.0
146
1.0
147
0.03
148
0.0
 69
0
 70
0
 71
0
 72
0
 73
0
 74
0
 75
0
 76
0
 77
1
 78
8
 79
3
170
0
171
3
172
1
173
0
174
0
175
0
176
0
177
0
178
0
179
2
271
2
272
2
273
2
274
3
275
0
276
0
277
2
278
44
279
0
280
0
281
0
282
0
283
0
284
8
285
0
286
0
288
0
289
3
290
0
371
-2
372
-2
  0
ENDTAB
  0
TABLE
  2
BLOCK_RECORD
  5
9
330
0
100
AcDbSymbolTable
 70
19
  0
BLOCK_RECORD
  5
17
330
9
100
AcDbSymbolTableRecord
100
AcDbBlockTableRecord
  2
*Model_Space
340
1A
 70
0
280
1
281
0
  0
BLOCK_RECORD
  5
1B
330
9
100
AcDbSymbolTableRecord
100
AcDbBlockTableRecord
  2
*Paper_Space
340
1E
 70
0
280
1
281
0
  0
BLOCK_RECORD
  5
74
330
9
100
AcDbSymbolTableRecord
100
AcDbBlockTableRecord
  2
_ARCHTICK
340
0
 70
0
280
1
281
0
  0
BLOCK_RECORD
  5
78
330
9
100
AcDbSymbolTableRecord
100
AcDbBlockTableRecord
  2
_CLOSEDFILLED
340
0
 70
0
280
1
281
0
  0
BLOCK_RECORD
  5
84
330
9
100
AcDbSymbolTableRecord
100
AcDbBlockTableRecord
  2
_CLOSEDBLANK
340
0
 70
0
280
1
281
0
  0
BLOCK_RECORD
  5
98
330
9
100
AcDbSymbolTableRecord
100
AcDbBlockTableRecord
  2
LEVANTA_DOOR
340
0
 70
0
280
1
281
0
  0
BLOCK_RECORD
  5
9D
330
9
100
AcDbSymbolTableRecord
100
AcDbBlockTableRecord
  2
LEVANTA_WINDOW
340
0
 70
0
280
1
281
0
  0
BLOCK_RECORD
  5
EC
330
9
100
AcDbSymbolTableRecord
100
AcDbBlockTableRecord
  2
*D1
340
0
 70
0
280
1
281
0
  0
BLOCK_RECORD
  5
FB
330
9
100
AcDbSymbolTableRecord
100
AcDbBlockTableRecord
  2
*D2
340
0
 70
0
280
1
281
0
  0
BLOCK_RECORD
  5
10A
330
9
100
AcDbSymbolTableRecord
100
AcDbBlockTableRecord
  2
*D3
340
0
 70
0
280
1
281
0
  0
BLOCK_RECORD
  5
119
330
9
100
AcDbSymbolTableRecord
100
AcDbBlockTableRecord
  2
*D4
340
0
 70
0
280
1
281
0
  0
BLOCK_RECORD
  5
128
330
9
100
AcDbSymbolTableRecord
100
AcDbBlockTableRecord
  2
*D5
340
0
 70
0
280
1
281
0
  0
BLOCK_RECORD
  5
137
330
9
100
AcDbSymbolTableRecord
100
AcDbBlockTableRecord
  2
*D6
340
0
 70
0
280
1
281
0
  0
BLOCK_RECORD
  5
146
330
9
100
AcDbSymbolTableRecord
100
AcDbBlockTableRecord
  2
*D7
340
0
 70
0
280
1
281
0
  0
BLOCK_RECORD
  5
155
330
9
100
AcDbSymbolTableRecord
100
AcDbBlockTableRecord
  2
*D8
340
0
 70
0
280
1
281
0
  0
BLOCK_RECORD
  5
164
330
9
100
AcDbSymbolTableRecord
100
AcDbBlockTableRecord
  2
*D9
340
0
 70
0
280
1
281
0
  0
BLOCK_RECORD
  5
173
330
9
100
AcDbSymbolTableRecord
100
AcDbBlockTableRecord
  2
*D10
340
0
 70
0
280
1
281
0
  0
BLOCK_RECORD
  5
182
330
9
100
AcDbSymbolTableRecord
100
AcDbBlockTableRecord
  2
*D11
340
0
 70
0
280
1
281
0
  0
BLOCK_RECORD
  5
191
330
9
100
AcDbSymbolTableRecord
100
AcDbBlockTableRecord
  2
*D12
340
0
 70
0
280
1
281
0
  0
ENDTAB
  0
ENDSEC
  0
SECTION
  2
BLOCKS
  0
BLOCK
  5
18
330
17
100
AcDbEntity
  8
0
100
AcDbBlockBegin
  2
*Model_Space
 70
0
 10
0.0
 20
0.0
 30
0.0
  3
*Model_Space
  1

  0
ENDBLK
  5
19
330
17
100
AcDbEntity
  8
0
100
AcDbBlockEnd
  0
BLOCK
  5
1C
330
1B
100
AcDbEntity
  8
0
100
AcDbBlockBegin
  2
*Paper_Space
 70
0
 10
0.0
 20
0.0
 30
0.0
  3
*Paper_Space
  1

  0
ENDBLK
  5
1D
330
1B
100
AcDbEntity
  8
0
100
AcDbBlockEnd
  0
BLOCK
  5
75
330
74
100
AcDbEntity
  8
0
100
AcDbBlockBegin
  2
_ARCHTICK
 70
0
 10
0.0
 20
0.0
 30
0.0
  3
_ARCHTICK
  1

  0
LWPOLYLINE
  5
77
330
74
100
AcDbEntity
  8
0
  6
BYBLOCK
 62
0
100
AcDbPolyline
 90
2
 70
0
 43
0.15
 10
-0.5
 20
-0.5
 10
0.5
 20
0.5
  0
ENDBLK
  5
76
330
74
100
AcDbEntity
  8
0
100
AcDbBlockEnd
  0
BLOCK
  5
79
330
78
100
AcDbEntity
  8
0
100
AcDbBlockBegin
  2
_CLOSEDFILLED
 70
0
 10
0.0
 20
0.0
 30
0.0
  3
_CLOSEDFILLED
  1

  0
SOLID
  5
7B
330
78
100
AcDbEntity
  8
0
  6
BYBLOCK
 62
0
100
AcDbTrace
 10
-1.0
 20
0.16439898372402537
 30
0.0
 11
0.0
 21
0.0
 31
0.0
 12
-1.0
 22
-0.16439898372402537
 32
0.0
 13
-1.0
 23
-0.16439898372402537
 33
0.0
  0
ENDBLK
  5
7A
330
78
100
AcDbEntity
  8
0
100
AcDbBlockEnd
  0
BLOCK
  5
85
330
84
100
AcDbEntity
  8
0
100
AcDbBlockBegin
  2
_CLOSEDBLANK
 70
0
 10
0.0
 20
0.0
 30
0.0
  3
_CLOSEDBLANK
  1

  0
LWPOLYLINE
  5
87
330
84
100
AcDbEntity
  8
0
  6
BYBLOCK
 62
0
100
AcDbPolyline
 90
3
 70
1
 10
-1.0
 20
0.16439898372402537
 10
0.0
 20
0.0
 10
-1.0
 20
-0.16439898372402537
  0
ENDBLK
  5
86
330
84
100
AcDbEntity
  8
0
100
AcDbBlockEnd
  0
BLOCK
  5
99
330
98
100
AcDbEntity
  8
0
100
AcDbBlockBegin
  2
LEVANTA_DOOR
 70
0
 10
0.0
 20
0.0
 30
0.0
  3
LEVANTA_DOOR
  1

  0
LINE
  5
9B
330
98
100
AcDbEntity
  8
A-DOOR
100
AcDbLine
 10
0.0
 20
0.0
 30
0.0
 11
0.0
 21
1.0
 31
0.0
  0
ARC
  5
9C
330
98
100
AcDbEntity
  8
A-DOOR
100
AcDbCircle
 10
0.0
 20
0.0
 30
0.0
 40
1.0
100
AcDbArc
 50
0.0
 51
90.0
  0
ENDBLK
  5
9A
330
98
100
AcDbEntity
  8
0
100
AcDbBlockEnd
  0
BLOCK
  5
9E
330
9D
100
AcDbEntity
  8
0
100
AcDbBlockBegin
  2
LEVANTA_WINDOW
 70
0
 10
0.0
 20
0.0
 30
0.0
  3
LEVANTA_WINDOW
  1

  0
LINE
  5
A0
330
9D
100
AcDbEntity
  8
A-GLAZ
100
AcDbLine
 10
0.0
 20
-0.3
 30
0.0
 11
1.0
 21
-0.3
 31
0.0
  0
LINE
  5
A1
330
9D
100
AcDbEntity
  8
A-GLAZ
100
AcDbLine
 10
0.0
 20
0.0
 30
0.0
 11
1.0
 21
0.0
 31
0.0
  0
LINE
  5
A2
330
9D
100
AcDbEntity
  8
A-GLAZ
100
AcDbLine
 10
0.0
 20
0.3
 30
0.0
 11
1.0
 21
0.3
 31
0.0
  0
LINE
  5
A3
330
9D
100
AcDbEntity
  8
A-GLAZ
100
AcDbLine
 10
0.0
 20
-0.5
 30
0.0
 11
0.0
 21
0.5
 31
0.0
  0
LINE
  5
A4
330
9D
100
AcDbEntity
  8
A-GLAZ
100
AcDbLine
 10
1.0
 20
-0.5
 30
0.0
 11
1.0
 21
0.5
 31
0.0
  0
ENDBLK
  5
9F
330
9D
100
AcDbEntity
  8
0
100
AcDbBlockEnd
  0
BLOCK
  5
ED
330
EC
100
AcDbEntity
  8
0
100
AcDbBlockBegin
  2
*D1
 70
1
 10
0.0
 20
0.0
 30
0.0
  3
*D1
  1

  0
LINE
  5
EF
330
EC
100
AcDbEntity
  8
0
100
AcDbLine
 10
-2.5455854761020142
 20
2.7855891593313373
 30
0.0
 11
-3.1455854761020143
 21
2.7855891593313373
 31
0.0
  0
LINE
  5
F0
330
EC
100
AcDbEntity
  8
0
100
AcDbLine
 10
-2.5455854761020142
 20
4.9478969125106875
 30
0.0
 11
-3.1455854761020143
 21
4.9478969125106875
 31
0.0
  0
INSERT
  5
F1
330
EC
100
AcDbEntity
  8
A-ANNO-DIMS
100
AcDbBlockReference
  2
_CLOSEDFILLED
 10
-3.0955854761020145
 20
2.7855891593313373
 30
0.0
 41
0.08
 42
0.08
 50
270.0
  0
INSERT
  5
F3
330
EC
100
AcDbEntity
  8
A-ANNO-DIMS
100
AcDbBlockReference
  2
_CLOSEDFILLED
 10
-3.0955854761020145
 20
4.9478969125106875
 30
0.0
 41
0.08
 42
0.08
 50
90.0
  0
LINE
  5
F5
330
EC
100
AcDbEntity
  8
0
100
AcDbLine
 10
-3.0955854761020145
 20
2.8655891593313374
 30
0.0
 11
-3.0955854761020145
 21
4.8678969125106875
 31
0.0
  0
MTEXT
  5
F6
330
EC
100
AcDbEntity
  8
A-ANNO-DIMS
100
AcDbMText
 10
-3.1855854761020144
 20
3.8667430359210124
 30
0.0
 40
0.12
 71
5
  1
2,16
  7
OpenSansCondensed-Light
 50
90.0
  0
POINT
  5
F7
330
EC
100
AcDbEntity
  8
Defpoints
100
AcDbPoint
 10
-3.0955854761020145
 20
2.7855891593313373
 30
0.0
  0
POINT
  5
F8
330
EC
100
AcDbEntity
  8
Defpoints
100
AcDbPoint
 10
-2.4955854761020144
 20
2.7855891593313373
 30
0.0
  0
POINT
  5
F9
330
EC
100
AcDbEntity
  8
Defpoints
100
AcDbPoint
 10
-2.4955854761020144
 20
4.9478969125106875
 30
0.0
  0
ENDBLK
  5
EE
330
EC
100
AcDbEntity
  8
0
100
AcDbBlockEnd
  0
BLOCK
  5
FC
330
FB
100
AcDbEntity
  8
0
100
AcDbBlockBegin
  2
*D2
 70
1
 10
0.0
 20
0.0
 30
0.0
  3
*D2
  1

  0
LINE
  5
FE
330
FB
100
AcDbEntity
  8
0
100
AcDbLine
 10
0.8119477356321959
 20
-1.1168743276611353
 30
0.0
 11
0.211947735632196
 21
-1.1168743276611353
 31
0.0
  0
LINE
  5
FF
330
FB
100
AcDbEntity
  8
0
100
AcDbLine
 10
0.8119477356321959
 20
1.1143337084321865
 30
0.0
 11
0.211947735632196
 21
1.1143337084321865
 31
0.0
  0
INSERT
  5
100
330
FB
100
AcDbEntity
  8
A-ANNO-DIMS
100
AcDbBlockReference
  2
_CLOSEDFILLED
 10
0.261947735632196
 20
-1.1168743276611353
 30
0.0
 41
0.08
 42
0.08
 50
270.0
  0
INSERT
  5
102
330
FB
100
AcDbEntity
  8
A-ANNO-DIMS
100
AcDbBlockReference
  2
_CLOSEDFILLED
 10
0.261947735632196
 20
1.1143337084321865
 30
0.0
 41
0.08
 42
0.08
 50
90.0
  0
LINE
  5
104
330
FB
100
AcDbEntity
  8
0
100
AcDbLine
 10
0.261947735632196
 20
-1.0368743276611352
 30
0.0
 11
0.261947735632196
 21
1.0343337084321864
 31
0.0
  0
MTEXT
  5
105
330
FB
100
AcDbEntity
  8
A-ANNO-DIMS
100
AcDbMText
 10
0.17194773563219598
 20
-0.0012703096144743853
 30
0.0
 40
0.12
 71
5
  1
2,23
  7
OpenSansCondensed-Light
 50
90.0
  0
POINT
  5
106
330
FB
100
AcDbEntity
  8
Defpoints
100
AcDbPoint
 10
0.261947735632196
 20
-1.1168743276611353
 30
0.0
  0
POINT
  5
107
330
FB
100
AcDbEntity
  8
Defpoints
100
AcDbPoint
 10
0.861947735632196
 20
-1.1168743276611353
 30
0.0
  0
POINT
  5
108
330
FB
100
AcDbEntity
  8
Defpoints
100
AcDbPoint
 10
0.861947735632196
 20
1.1143337084321865
 30
0.0
  0
ENDBLK
  5
FD
330
FB
100
AcDbEntity
  8
0
100
AcDbBlockEnd
  0
BLOCK
  5
10B
330
10A
100
AcDbEntity
  8
0
100
AcDbBlockBegin
  2
*D3
 70
1
 10
0.0
 20
0.0
 30
0.0
  3
*D3
  1

  0
LINE
  5
10D
330
10A
100
AcDbEntity
  8
0
100
AcDbLine
 10
7.3135824344252445
 20
0.4014833442159497
 30
0.0
 11
7.863582434425244
 21
0.4014833442159497
 31
0.0
  0
LINE
  5
10E
330
10A
100
AcDbEntity
  8
0
100
AcDbLine
 10
7.3135824344252445
 20
1.4840291464274222
 30
0.0
 11
7.863582434425244
 21
1.4840291464274222
 31
0.0
  0
INSERT
  5
10F
330
10A
100
AcDbEntity
  8
A-ANNO-DIMS
100
AcDbBlockReference
  2
_CLOSEDFILLED
 10
7.8135824344252445
 20
0.4014833442159497
 30
0.0
 41
0.08
 42
0.08
 50
270.0
  0
INSERT
  5
111
330
10A
100
AcDbEntity
  8
A-ANNO-DIMS
100
AcDbBlockReference
  2
_CLOSEDFILLED
 10
7.8135824344252445
 20
1.4840291464274222
 30
0.0
 41
0.08
 42
0.08
 50
90.0
  0
LINE
  5
113
330
10A
100
AcDbEntity
  8
0
100
AcDbLine
 10
7.8135824344252445
 20
0.48148334421594974
 30
0.0
 11
7.8135824344252445
 21
1.4040291464274222
 31
0.0
  0
MTEXT
  5
114
330
10A
100
AcDbEntity
  8
A-ANNO-DIMS
100
AcDbMText
 10
7.723582434425245
 20
0.942756245321686
 30
0.0
 40
0.12
 71
5
  1
1,08
  7
OpenSansCondensed-Light
 50
90.0
  0
POINT
  5
115
330
10A
100
AcDbEntity
  8
Defpoints
100
AcDbPoint
 10
7.8135824344252445
 20
0.4014833442159497
 30
0.0
  0
POINT
  5
116
330
10A
100
AcDbEntity
  8
Defpoints
100
AcDbPoint
 10
7.263582434425245
 20
0.4014833442159497
 30
0.0
  0
POINT
  5
117
330
10A
100
AcDbEntity
  8
Defpoints
100
AcDbPoint
 10
7.263582434425245
 20
1.4840291464274222
 30
0.0
  0
ENDBLK
  5
10C
330
10A
100
AcDbEntity
  8
0
100
AcDbBlockEnd
  0
BLOCK
  5
11A
330
119
100
AcDbEntity
  8
0
100
AcDbBlockBegin
  2
*D4
 70
1
 10
0.0
 20
0.0
 30
0.0
  3
*D4
  1

  0
LINE
  5
11C
330
119
100
AcDbEntity
  8
0
100
AcDbLine
 10
3.5386922362170736
 20
-1.196272691533546
 30
0.0
 11
3.5386922362170736
 21
-1.7962726915335459
 31
0.0
  0
LINE
  5
11D
330
119
100
AcDbEntity
  8
0
100
AcDbLine
 10
1.5489325653749186
 20
-1.1962726915335458
 30
0.0
 11
1.5489325653749186
 21
-1.7962726915335459
 31
0.0
  0
INSERT
  5
11E
330
119
100
AcDbEntity
  8
A-ANNO-DIMS
100
AcDbBlockReference
  2
_CLOSEDFILLED
 10
3.5386922362170736
 20
-1.7462726915335458
 30
0.0
 41
0.08
 42
0.08
 50
360.0
  0
INSERT
  5
120
330
119
100
AcDbEntity
  8
A-ANNO-DIMS
100
AcDbBlockReference
  2
_CLOSEDFILLED
 10
1.5489325653749186
 20
-1.7462726915335458
 30
0.0
 41
0.08
 42
0.08
 50
180.0
  0
LINE
  5
122
330
119
100
AcDbEntity
  8
0
100
AcDbLine
 10
3.4586922362170736
 20
-1.7462726915335458
 30
0.0
 11
1.6289325653749187
 21
-1.7462726915335458
 31
0.0
  0
MTEXT
  5
123
330
119
100
AcDbEntity
  8
A-ANNO-DIMS
100
AcDbMText
 10
2.5438124007959964
 20
-1.8362726915335459
 30
0.0
 40
0.12
 71
5
  1
1,99
  7
OpenSansCondensed-Light
 50
180.0
  0
POINT
  5
124
330
119
100
AcDbEntity
  8
Defpoints
100
AcDbPoint
 10
3.5386922362170736
 20
-1.7462726915335458
 30
0.0
  0
POINT
  5
125
330
119
100
AcDbEntity
  8
Defpoints
100
AcDbPoint
 10
3.5386922362170736
 20
-1.146272691533546
 30
0.0
  0
POINT
  5
126
330
119
100
AcDbEntity
  8
Defpoints
100
AcDbPoint
 10
1.5489325653749186
 20
-1.1462726915335457
 30
0.0
  0
ENDBLK
  5
11B
330
119
100
AcDbEntity
  8
0
100
AcDbBlockEnd
  0
BLOCK
  5
129
330
128
100
AcDbEntity
  8
0
100
AcDbBlockBegin
  2
*D5
 70
1
 10
0.0
 20
0.0
 30
0.0
  3
*D5
  1

  0
LINE
  5
12B
330
128
100
AcDbEntity
  8
0
100
AcDbLine
 10
3.5386922362170736
 20
-1.0668743276611354
 30
0.0
 11
3.5386922362170736
 21
-1.6668743276611353
 31
0.0
  0
LINE
  5
12C
330
128
100
AcDbEntity
  8
0
100
AcDbLine
 10
0.7619477356321962
 20
-1.0668743276611352
 30
0.0
 11
0.7619477356321962
 21
-1.6668743276611353
 31
0.0
  0
INSERT
  5
12D
330
128
100
AcDbEntity
  8
A-ANNO-DIMS
100
AcDbBlockReference
  2
_CLOSEDFILLED
 10
3.5386922362170736
 20
-1.6168743276611353
 30
0.0
 41
0.08
 42
0.08
 50
360.0
  0
INSERT
  5
12F
330
128
100
AcDbEntity
  8
A-ANNO-DIMS
100
AcDbBlockReference
  2
_CLOSEDFILLED
 10
0.7619477356321962
 20
-1.6168743276611353
 30
0.0
 41
0.08
 42
0.08
 50
180.0
  0
LINE
  5
131
330
128
100
AcDbEntity
  8
0
100
AcDbLine
 10
3.4586922362170736
 20
-1.6168743276611353
 30
0.0
 11
0.8419477356321962
 21
-1.6168743276611353
 31
0.0
  0
MTEXT
  5
132
330
128
100
AcDbEntity
  8
A-ANNO-DIMS
100
AcDbMText
 10
2.150319985924635
 20
-1.7068743276611353
 30
0.0
 40
0.12
 71
5
  1
2,78
  7
OpenSansCondensed-Light
 50
180.0
  0
POINT
  5
133
330
128
100
AcDbEntity
  8
Defpoints
100
AcDbPoint
 10
3.5386922362170736
 20
-1.6168743276611353
 30
0.0
  0
POINT
  5
134
330
128
100
AcDbEntity
  8
Defpoints
100
AcDbPoint
 10
3.5386922362170736
 20
-1.0168743276611354
 30
0.0
  0
POINT
  5
135
330
128
100
AcDbEntity
  8
Defpoints
100
AcDbPoint
 10
0.7619477356321962
 20
-1.0168743276611352
 30
0.0
  0
ENDBLK
  5
12A
330
128
100
AcDbEntity
  8
0
100
AcDbBlockEnd
  0
BLOCK
  5
138
330
137
100
AcDbEntity
  8
0
100
AcDbBlockBegin
  2
*D6
 70
1
 10
0.0
 20
0.0
 30
0.0
  3
*D6
  1

  0
LINE
  5
13A
330
137
100
AcDbEntity
  8
0
100
AcDbLine
 10
1.0763979746003824
 20
0.9643337084321864
 30
0.0
 11
1.0763979746003824
 21
0.36433370843218643
 31
0.0
  0
LINE
  5
13B
330
137
100
AcDbEntity
  8
0
100
AcDbLine
 10
-0.7000775738295921
 20
0.9643337084321864
 30
0.0
 11
-0.7000775738295921
 21
0.36433370843218643
 31
0.0
  0
INSERT
  5
13C
330
137
100
AcDbEntity
  8
A-ANNO-DIMS
100
AcDbBlockReference
  2
_CLOSEDFILLED
 10
1.0763979746003824
 20
0.4143337084321864
 30
0.0
 41
0.08
 42
0.08
 50
360.0
  0
INSERT
  5
13E
330
137
100
AcDbEntity
  8
A-ANNO-DIMS
100
AcDbBlockReference
  2
_CLOSEDFILLED
 10
-0.7000775738295921
 20
0.4143337084321864
 30
0.0
 41
0.08
 42
0.08
 50
180.0
  0
LINE
  5
140
330
137
100
AcDbEntity
  8
0
100
AcDbLine
 10
0.9963979746003825
 20
0.4143337084321864
 30
0.0
 11
-0.6200775738295922
 21
0.4143337084321864
 31
0.0
  0
MTEXT
  5
141
330
137
100
AcDbEntity
  8
A-ANNO-DIMS
100
AcDbMText
 10
0.18816020038539516
 20
0.32433370843218645
 30
0.0
 40
0.12
 71
5
  1
1,78
  7
OpenSansCondensed-Light
 50
180.0
  0
POINT
  5
142
330
137
100
AcDbEntity
  8
Defpoints
100
AcDbPoint
 10
1.0763979746003824
 20
0.4143337084321864
 30
0.0
  0
POINT
  5
143
330
137
100
AcDbEntity
  8
Defpoints
100
AcDbPoint
 10
1.0763979746003824
 20
1.0143337084321864
 30
0.0
  0
POINT
  5
144
330
137
100
AcDbEntity
  8
Defpoints
100
AcDbPoint
 10
-0.7000775738295921
 20
1.0143337084321864
 30
0.0
  0
ENDBLK
  5
139
330
137
100
AcDbEntity
  8
0
100
AcDbBlockEnd
  0
BLOCK
  5
147
330
146
100
AcDbEntity
  8
0
100
AcDbBlockBegin
  2
*D7
 70
1
 10
0.0
 20
0.0
 30
0.0
  3
*D7
  1

  0
LINE
  5
149
330
146
100
AcDbEntity
  8
0
100
AcDbLine
 10
2.471975153027542
 20
3.980786118959178
 30
0.0
 11
2.471975153027542
 21
4.5307861189591785
 31
0.0
  0
LINE
  5
14A
330
146
100
AcDbEntity
  8
0
100
AcDbLine
 10
0.8593337075414405
 20
3.980786118959178
 30
0.0
 11
0.8593337075414405
 21
4.5307861189591785
 31
0.0
  0
INSERT
  5
14B
330
146
100
AcDbEntity
  8
A-ANNO-DIMS
100
AcDbBlockReference
  2
_CLOSEDFILLED
 10
2.471975153027542
 20
4.480786118959179
 30
0.0
 41
0.08
 42
0.08
 50
360.0
  0
INSERT
  5
14D
330
146
100
AcDbEntity
  8
A-ANNO-DIMS
100
AcDbBlockReference
  2
_CLOSEDFILLED
 10
0.8593337075414405
 20
4.480786118959179
 30
0.0
 41
0.08
 42
0.08
 50
180.0
  0
LINE
  5
14F
330
146
100
AcDbEntity
  8
0
100
AcDbLine
 10
2.3919751530275417
 20
4.480786118959179
 30
0.0
 11
0.9393337075414404
 21
4.480786118959179
 31
0.0
  0
MTEXT
  5
150
330
146
100
AcDbEntity
  8
A-ANNO-DIMS
100
AcDbMText
 10
1.6656544302844911
 20
4.390786118959179
 30
0.0
 40
0.12
 71
5
  1
1,61
  7
OpenSansCondensed-Light
 50
180.0
  0
POINT
  5
151
330
146
100
AcDbEntity
  8
Defpoints
100
AcDbPoint
 10
2.471975153027542
 20
4.480786118959179
 30
0.0
  0
POINT
  5
152
330
146
100
AcDbEntity
  8
Defpoints
100
AcDbPoint
 10
2.471975153027542
 20
3.9307861189591784
 30
0.0
  0
POINT
  5
153
330
146
100
AcDbEntity
  8
Defpoints
100
AcDbPoint
 10
0.8593337075414405
 20
3.9307861189591784
 30
0.0
  0
ENDBLK
  5
148
330
146
100
AcDbEntity
  8
0
100
AcDbBlockEnd
  0
BLOCK
  5
156
330
155
100
AcDbEntity
  8
0
100
AcDbBlockBegin
  2
*D8
 70
1
 10
0.0
 20
0.0
 30
0.0
  3
*D8
  1

  0
LINE
  5
158
330
155
100
AcDbEntity
  8
0
100
AcDbLine
 10
3.118285650044757
 20
4.153192382034763
 30
0.0
 11
3.118285650044757
 21
4.7031923820347625
 31
0.0
  0
LINE
  5
159
330
155
100
AcDbEntity
  8
0
100
AcDbLine
 10
-0.056357223746416274
 20
4.153192382034763
 30
0.0
 11
-0.056357223746416274
 21
4.7031923820347625
 31
0.0
  0
INSERT
  5
15A
330
155
100
AcDbEntity
  8
A-ANNO-DIMS
100
AcDbBlockReference
  2
_CLOSEDFILLED
 10
3.118285650044757
 20
4.653192382034763
 30
0.0
 41
0.08
 42
0.08
 50
360.0
  0
INSERT
  5
15C
330
155
100
AcDbEntity
  8
A-ANNO-DIMS
100
AcDbBlockReference
  2
_CLOSEDFILLED
 10
-0.056357223746416274
 20
4.653192382034763
 30
0.0
 41
0.08
 42
0.08
 50
180.0
  0
LINE
  5
15E
330
155
100
AcDbEntity
  8
0
100
AcDbLine
 10
3.038285650044757
 20
4.653192382034763
 30
0.0
 11
0.023642776253583728
 21
4.653192382034763
 31
0.0
  0
MTEXT
  5
15F
330
155
100
AcDbEntity
  8
A-ANNO-DIMS
100
AcDbMText
 10
1.5309642131491703
 20
4.563192382034763
 30
0.0
 40
0.12
 71
5
  1
3,17
  7
OpenSansCondensed-Light
 50
180.0
  0
POINT
  5
160
330
155
100
AcDbEntity
  8
Defpoints
100
AcDbPoint
 10
3.118285650044757
 20
4.653192382034763
 30
0.0
  0
POINT
  5
161
330
155
100
AcDbEntity
  8
Defpoints
100
AcDbPoint
 10
3.118285650044757
 20
4.103192382034763
 30
0.0
  0
POINT
  5
162
330
155
100
AcDbEntity
  8
Defpoints
100
AcDbPoint
 10
-0.056357223746416274
 20
4.103192382034763
 30
0.0
  0
ENDBLK
  5
157
330
155
100
AcDbEntity
  8
0
100
AcDbBlockEnd
  0
BLOCK
  5
165
330
164
100
AcDbEntity
  8
0
100
AcDbBlockBegin
  2
*D9
 70
1
 10
0.0
 20
0.0
 30
0.0
  3
*D9
  1

  0
LINE
  5
167
330
164
100
AcDbEntity
  8
0
100
AcDbLine
 10
-0.6101553092475935
 20
5.854297115850779
 30
0.0
 11
-0.6101553092475935
 21
6.454297115850778
 31
0.0
  0
LINE
  5
168
330
164
100
AcDbEntity
  8
0
100
AcDbLine
 10
-2.191978326259404
 20
5.854297115850779
 30
0.0
 11
-2.191978326259404
 21
6.454297115850778
 31
0.0
  0
INSERT
  5
169
330
164
100
AcDbEntity
  8
A-ANNO-DIMS
100
AcDbBlockReference
  2
_CLOSEDFILLED
 10
-0.6101553092475935
 20
6.404297115850778
 30
0.0
 41
0.08
 42
0.08
 50
360.0
  0
INSERT
  5
16B
330
164
100
AcDbEntity
  8
A-ANNO-DIMS
100
AcDbBlockReference
  2
_CLOSEDFILLED
 10
-2.191978326259404
 20
6.404297115850778
 30
0.0
 41
0.08
 42
0.08
 50
180.0
  0
LINE
  5
16D
330
164
100
AcDbEntity
  8
0
100
AcDbLine
 10
-0.6901553092475935
 20
6.404297115850778
 30
0.0
 11
-2.111978326259404
 21
6.404297115850778
 31
0.0
  0
MTEXT
  5
16E
330
164
100
AcDbEntity
  8
A-ANNO-DIMS
100
AcDbMText
 10
-1.4010668177534988
 20
6.314297115850779
 30
0.0
 40
0.12
 71
5
  1
1,58
  7
OpenSansCondensed-Light
 50
180.0
  0
POINT
  5
16F
330
164
100
AcDbEntity
  8
Defpoints
100
AcDbPoint
 10
-0.6101553092475935
 20
6.404297115850778
 30
0.0
  0
POINT
  5
170
330
164
100
AcDbEntity
  8
Defpoints
100
AcDbPoint
 10
-0.6101553092475935
 20
5.804297115850779
 30
0.0
  0
POINT
  5
171
330
164
100
AcDbEntity
  8
Defpoints
100
AcDbPoint
 10
-2.191978326259404
 20
5.804297115850779
 30
0.0
  0
ENDBLK
  5
166
330
164
100
AcDbEntity
  8
0
100
AcDbBlockEnd
  0
BLOCK
  5
174
330
173
100
AcDbEntity
  8
0
100
AcDbBlockBegin
  2
*D10
 70
1
 10
0.0
 20
0.0
 30
0.0
  3
*D10
  1

  0
LINE
  5
176
330
173
100
AcDbEntity
  8
0
100
AcDbLine
 10
3.5386922362170736
 20
2.6596077741149786
 30
0.0
 11
4.0886922362170735
 21
2.6596077741149786
 31
0.0
  0
LINE
  5
177
330
173
100
AcDbEntity
  8
0
100
AcDbLine
 10
3.5386922362170736
 20
4.143192382034763
 30
0.0
 11
4.0886922362170735
 21
4.143192382034763
 31
0.0
  0
INSERT
  5
178
330
173
100
AcDbEntity
  8
A-ANNO-DIMS
100
AcDbBlockReference
  2
_CLOSEDFILLED
 10
4.038692236217074
 20
2.6596077741149786
 30
0.0
 41
0.08
 42
0.08
 50
270.0
  0
INSERT
  5
17A
330
173
100
AcDbEntity
  8
A-ANNO-DIMS
100
AcDbBlockReference
  2
_CLOSEDFILLED
 10
4.038692236217074
 20
4.143192382034763
 30
0.0
 41
0.08
 42
0.08
 50
90.0
  0
LINE
  5
17C
330
173
100
AcDbEntity
  8
0
100
AcDbLine
 10
4.038692236217074
 20
2.7396077741149787
 30
0.0
 11
4.038692236217074
 21
4.063192382034763
 31
0.0
  0
MTEXT
  5
17D
330
173
100
AcDbEntity
  8
A-ANNO-DIMS
100
AcDbMText
 10
3.9486922362170738
 20
3.4014000780748708
 30
0.0
 40
0.12
 71
5
  1
1,48
  7
OpenSansCondensed-Light
 50
90.0
  0
POINT
  5
17E
330
173
100
AcDbEntity
  8
Defpoints
100
AcDbPoint
 10
4.038692236217074
 20
2.6596077741149786
 30
0.0
  0
POINT
  5
17F
330
173
100
AcDbEntity
  8
Defpoints
100
AcDbPoint
 10
3.488692236217074
 20
2.6596077741149786
 30
0.0
  0
POINT
  5
180
330
173
100
AcDbEntity
  8
Defpoints
100
AcDbPoint
 10
3.488692236217074
 20
4.143192382034763
 30
0.0
  0
ENDBLK
  5
175
330
173
100
AcDbEntity
  8
0
100
AcDbBlockEnd
  0
BLOCK
  5
183
330
182
100
AcDbEntity
  8
0
100
AcDbBlockBegin
  2
*D11
 70
1
 10
0.0
 20
0.0
 30
0.0
  3
*D11
  1

  0
LINE
  5
185
330
182
100
AcDbEntity
  8
0
100
AcDbLine
 10
-2.5955854761020145
 20
-1.296272691533546
 30
0.0
 11
-2.5955854761020145
 21
-2.346272691533546
 31
0.0
  0
LINE
  5
186
330
182
100
AcDbEntity
  8
0
100
AcDbLine
 10
9.06311427371512
 20
-1.296272691533546
 30
0.0
 11
9.06311427371512
 21
-2.346272691533546
 31
0.0
  0
INSERT
  5
187
330
182
100
AcDbEntity
  8
A-ANNO-DIMS
100
AcDbBlockReference
  2
_CLOSEDFILLED
 10
-2.5955854761020145
 20
-2.296272691533546
 30
0.0
 41
0.08
 42
0.08
 50
180.0
  0
INSERT
  5
189
330
182
100
AcDbEntity
  8
A-ANNO-DIMS
100
AcDbBlockReference
  2
_CLOSEDFILLED
 10
9.06311427371512
 20
-2.296272691533546
 30
0.0
 41
0.08
 42
0.08
  0
LINE
  5
18B
330
182
100
AcDbEntity
  8
0
100
AcDbLine
 10
-2.5155854761020144
 20
-2.296272691533546
 30
0.0
 11
8.98311427371512
 21
-2.296272691533546
 31
0.0
  0
MTEXT
  5
18C
330
182
100
AcDbEntity
  8
A-ANNO-DIMS
100
AcDbMText
 10
3.233764398806553
 20
-2.206272691533546
 30
0.0
 40
0.12
 71
5
  1
11,66
  7
OpenSansCondensed-Light
  0
POINT
  5
18D
330
182
100
AcDbEntity
  8
Defpoints
100
AcDbPoint
 10
-2.5955854761020145
 20
-2.296272691533546
 30
0.0
  0
POINT
  5
18E
330
182
100
AcDbEntity
  8
Defpoints
100
AcDbPoint
 10
-2.5955854761020145
 20
-1.246272691533546
 30
0.0
  0
POINT
  5
18F
330
182
100
AcDbEntity
  8
Defpoints
100
AcDbPoint
 10
9.06311427371512
 20
-1.246272691533546
 30
0.0
  0
ENDBLK
  5
184
330
182
100
AcDbEntity
  8
0
100
AcDbBlockEnd
  0
BLOCK
  5
192
330
191
100
AcDbEntity
  8
0
100
AcDbBlockBegin
  2
*D12
 70
1
 10
0.0
 20
0.0
 30
0.0
  3
*D12
  1

  0
LINE
  5
194
330
191
100
AcDbEntity
  8
0
100
AcDbLine
 10
-2.6455854761020143
 20
5.904297115850778
 30
0.0
 11
-3.695585476102014
 21
5.904297115850778
 31
0.0
  0
LINE
  5
195
330
191
100
AcDbEntity
  8
0
100
AcDbLine
 10
-2.6455854761020143
 20
-1.246272691533546
 30
0.0
 11
-3.695585476102014
 21
-1.246272691533546
 31
0.0
  0
INSERT
  5
196
330
191
100
AcDbEntity
  8
A-ANNO-DIMS
100
AcDbBlockReference
  2
_CLOSEDFILLED
 10
-3.6455854761020143
 20
5.904297115850778
 30
0.0
 41
0.08
 42
0.08
 50
90.0
  0
INSERT
  5
198
330
191
100
AcDbEntity
  8
A-ANNO-DIMS
100
AcDbBlockReference
  2
_CLOSEDFILLED
 10
-3.6455854761020143
 20
-1.246272691533546
 30
0.0
 41
0.08
 42
0.08
 50
-90.0
  0
LINE
  5
19A
330
191
100
AcDbEntity
  8
0
100
AcDbLine
 10
-3.6455854761020143
 20
5.824297115850778
 30
0.0
 11
-3.6455854761020143
 21
-1.166272691533546
 31
0.0
  0
MTEXT
  5
19B
330
191
100
AcDbEntity
  8
A-ANNO-DIMS
100
AcDbMText
 10
-3.5555854761020145
 20
2.329012212158616
 30
0.0
 40
0.12
 71
5
  1
7,15
  7
OpenSansCondensed-Light
 50
-90.0
  0
POINT
  5
19C
330
191
100
AcDbEntity
  8
Defpoints
100
AcDbPoint
 10
-3.6455854761020143
 20
5.904297115850778
 30
0.0
  0
POINT
  5
19D
330
191
100
AcDbEntity
  8
Defpoints
100
AcDbPoint
 10
-2.5955854761020145
 20
5.904297115850778
 30
0.0
  0
POINT
  5
19E
330
191
100
AcDbEntity
  8
Defpoints
100
AcDbPoint
 10
-2.5955854761020145
 20
-1.246272691533546
 30
0.0
  0
ENDBLK
  5
193
330
191
100
AcDbEntity
  8
0
100
AcDbBlockEnd
  0
ENDSEC
  0
SECTION
  2
ENTITIES
  0
LWPOLYLINE
  5
A5
330
17
100
AcDbEntity
  8
A-WALL
100
AcDbPolyline
 90
5
 70
1
 10
-2.5955854761020145
 20
4.9478969125106875
 10
-2.3955854761020143
 20
4.9478969125106875
 10
-2.3955854761020143
 20
2.7855891593313373
 10
-2.5955854761020145
 20
2.7855891593313373
 10
-2.5955854761020145
 20
4.9478969125106875
  0
HATCH
  5
A6
330
17
100
AcDbEntity
  8
A-WALL-PATT
 62
7
100
AcDbHatch
 10
0.0
 20
0.0
 30
0.0
210
0.0
220
0.0
230
1.0
  2
ANSI31
 70
0
 71
0
 91
1
 92
3
 72
0
 73
1
 93
5
 10
-2.5955854761020145
 20
4.9478969125106875
 10
-2.3955854761020143
 20
4.9478969125106875
 10
-2.3955854761020143
 20
2.7855891593313373
 10
-2.5955854761020145
 20
2.7855891593313373
 10
-2.5955854761020145
 20
4.9478969125106875
 97
0
 75
1
 76
1
 52
0.0
 41
0.01
 77
0
 78
1
 53
45.0
 43
0.0
 44
0.0
 45
-0.0224506403
 46
0.0224506403
 79
0
 98
0
  0
LWPOLYLINE
  5
A7
330
17
100
AcDbEntity
  8
A-WALL
100
AcDbPolyline
 90
5
 70
1
 10
-0.9926164933352799
 20
5.112056873787717
 10
-0.8926164933352798
 20
5.112056873787717
 10
-0.8926164933352798
 20
2.1293774725535495
 10
-0.9926164933352799
 20
2.1293774725535495
 10
-0.9926164933352799
 20
5.112056873787717
  0
HATCH
  5
A8
330
17
100
AcDbEntity
  8
A-WALL-PATT
 62
7
100
AcDbHatch
 10
0.0
 20
0.0
 30
0.0
210
0.0
220
0.0
230
1.0
  2
ANSI31
 70
0
 71
0
 91
1
 92
3
 72
0
 73
1
 93
5
 10
-0.9926164933352799
 20
5.112056873787717
 10
-0.8926164933352798
 20
5.112056873787717
 10
-0.8926164933352798
 20
2.1293774725535495
 10
-0.9926164933352799
 20
2.1293774725535495
 10
-0.9926164933352799
 20
5.112056873787717
 97
0
 75
1
 76
1
 52
0.0
 41
0.01
 77
0
 78
1
 53
45.0
 43
0.0
 44
0.0
 45
-0.0224506403
 46
0.0224506403
 79
0
 98
0
  0
LWPOLYLINE
  5
A9
330
17
100
AcDbEntity
  8
A-WALL
100
AcDbPolyline
 90
5
 70
1
 10
-0.8839589969073588
 20
4.084036270121662
 10
-0.7839589969073587
 20
4.084036270121662
 10
-0.7839589969073587
 20
1.690550530924096
 10
-0.8839589969073588
 20
1.690550530924096
 10
-0.8839589969073588
 20
4.084036270121662
  0
HATCH
  5
AA
330
17
100
AcDbEntity
  8
A-WALL-PATT
 62
7
100
AcDbHatch
 10
0.0
 20
0.0
 30
0.0
210
0.0
220
0.0
230
1.0
  2
ANSI31
 70
0
 71
0
 91
1
 92
3
 72
0
 73
1
 93
5
 10
-0.8839589969073588
 20
4.084036270121662
 10
-0.7839589969073587
 20
4.084036270121662
 10
-0.7839589969073587
 20
1.690550530924096
 10
-0.8839589969073588
 20
1.690550530924096
 10
-0.8839589969073588
 20
4.084036270121662
 97
0
 75
1
 76
1
 52
0.0
 41
0.01
 77
0
 78
1
 53
45.0
 43
0.0
 44
0.0
 45
-0.0224506403
 46
0.0224506403
 79
0
 98
0
  0
LWPOLYLINE
  5
AB
330
17
100
AcDbEntity
  8
A-WALL
100
AcDbPolyline
 90
5
 70
1
 10
0.761947735632196
 20
1.1143337084321865
 10
0.9619477356321959
 20
1.1143337084321865
 10
0.9619477356321959
 20
-1.1168743276611353
 10
0.761947735632196
 20
-1.1168743276611353
 10
0.761947735632196
 20
1.1143337084321865
  0
HATCH
  5
AC
330
17
100
AcDbEntity
  8
A-WALL-PATT
 62
7
100
AcDbHatch
 10
0.0
 20
0.0
 30
0.0
210
0.0
220
0.0
230
1.0
  2
ANSI31
 70
0
 71
0
 91
1
 92
3
 72
0
 73
1
 93
5
 10
0.761947735632196
 20
1.1143337084321865
 10
0.9619477356321959
 20
1.1143337084321865
 10
0.9619477356321959
 20
-1.1168743276611353
 10
0.761947735632196
 20
-1.1168743276611353
 10
0.761947735632196
 20
1.1143337084321865
 97
0
 75
1
 76
1
 52
0.0
 41
0.01
 77
0
 78
1
 53
45.0
 43
0.0
 44
0.0
 45
-0.0224506403
 46
0.0224506403
 79
0
 98
0
  0
LWPOLYLINE
  5
AD
330
17
100
AcDbEntity
  8
A-WALL
100
AcDbPolyline
 90
5
 70
1
 10
0.9763979746003824
 20
1.1143337084321865
 10
1.0763979746003824
 20
1.1143337084321865
 10
1.0763979746003824
 20
0.28303348019569363
 10
0.9763979746003824
 20
0.28303348019569363
 10
0.9763979746003824
 20
1.1143337084321865
  0
HATCH
  5
AE
330
17
100
AcDbEntity
  8
A-WALL-PATT
 62
7
100
AcDbHatch
 10
0.0
 20
0.0
 30
0.0
210
0.0
220
0.0
230
1.0
  2
ANSI31
 70
0
 71
0
 91
1
 92
3
 72
0
 73
1
 93
5
 10
0.9763979746003824
 20
1.1143337084321865
 10
1.0763979746003824
 20
1.1143337084321865
 10
1.0763979746003824
 20
0.28303348019569363
 10
0.9763979746003824
 20
0.28303348019569363
 10
0.9763979746003824
 20
1.1143337084321865
 97
0
 75
1
 76
1
 52
0.0
 41
0.01
 77
0
 78
1
 53
45.0
 43
0.0
 44
0.0
 45
-0.0224506403
 46
0.0224506403
 79
0
 98
0
  0
LWPOLYLINE
  5
AF
330
17
100
AcDbEntity
  8
A-WALL
100
AcDbPolyline
 90
5
 70
1
 10
3.438692236217074
 20
2.6296077741149784
 10
3.5386922362170736
 20
2.6296077741149784
 10
3.5386922362170736
 20
-1.0462726915335459
 10
3.438692236217074
 20
-1.0462726915335459
 10
3.438692236217074
 20
2.6296077741149784
  0
HATCH
  5
B0
330
17
100
AcDbEntity
  8
A-WALL-PATT
 62
7
100
AcDbHatch
 10
0.0
 20
0.0
 30
0.0
210
0.0
220
0.0
230
1.0
  2
ANSI31
 70
0
 71
0
 91
1
 92
3
 72
0
 73
1
 93
5
 10
3.438692236217074
 20
2.6296077741149784
 10
3.5386922362170736
 20
2.6296077741149784
 10
3.5386922362170736
 20
-1.0462726915335459
 10
3.438692236217074
 20
-1.0462726915335459
 10
3.438692236217074
 20
2.6296077741149784
 97
0
 75
1
 76
1
 52
0.0
 41
0.01
 77
0
 78
1
 53
45.0
 43
0.0
 44
0.0
 45
-0.0224506403
 46
0.0224506403
 79
0
 98
0
  0
LWPOLYLINE
  5
B1
330
17
100
AcDbEntity
  8
A-WALL
100
AcDbPolyline
 90
5
 70
1
 10
3.614662374566665
 20
1.9041743262767974
 10
3.7146623745666645
 20
1.9041743262767974
 10
3.7146623745666645
 20
0.25864984469771124
 10
3.614662374566665
 20
0.25864984469771124
 10
3.614662374566665
 20
1.9041743262767974
  0
HATCH
  5
B2
330
17
100
AcDbEntity
  8
A-WALL-PATT
 62
7
100
AcDbHatch
 10
0.0
 20
0.0
 30
0.0
210
0.0
220
0.0
230
1.0
  2
ANSI31
 70
0
 71
0
 91
1
 92
3
 72
0
 73
1
 93
5
 10
3.614662374566665
 20
1.9041743262767974
 10
3.7146623745666645
 20
1.9041743262767974
 10
3.7146623745666645
 20
0.25864984469771124
 10
3.614662374566665
 20
0.25864984469771124
 10
3.614662374566665
 20
1.9041743262767974
 97
0
 75
1
 76
1
 52
0.0
 41
0.01
 77
0
 78
1
 53
45.0
 43
0.0
 44
0.0
 45
-0.0224506403
 46
0.0224506403
 79
0
 98
0
  0
LWPOLYLINE
  5
B3
330
17
100
AcDbEntity
  8
A-WALL
100
AcDbPolyline
 90
5
 70
1
 10
7.213582434425245
 20
1.4840291464274222
 10
7.3135824344252445
 20
1.4840291464274222
 10
7.3135824344252445
 20
0.4014833442159497
 10
7.213582434425245
 20
0.4014833442159497
 10
7.213582434425245
 20
1.4840291464274222
  0
HATCH
  5
B4
330
17
100
AcDbEntity
  8
A-WALL-PATT
 62
7
100
AcDbHatch
 10
0.0
 20
0.0
 30
0.0
210
0.0
220
0.0
230
1.0
  2
ANSI31
 70
0
 71
0
 91
1
 92
3
 72
0
 73
1
 93
5
 10
7.213582434425245
 20
1.4840291464274222
 10
7.3135824344252445
 20
1.4840291464274222
 10
7.3135824344252445
 20
0.4014833442159497
 10
7.213582434425245
 20
0.4014833442159497
 10
7.213582434425245
 20
1.4840291464274222
 97
0
 75
1
 76
1
 52
0.0
 41
0.01
 77
0
 78
1
 53
45.0
 43
0.0
 44
0.0
 45
-0.0224506403
 46
0.0224506403
 79
0
 98
0
  0
LWPOLYLINE
  5
B5
330
17
100
AcDbEntity
  8
A-WALL
100
AcDbPolyline
 90
5
 70
1
 10
1.5489325653749186
 20
-1.2462726915335458
 10
1.5489325653749186
 20
-1.0462726915335456
 10
3.5386922362170736
 20
-1.0462726915335459
 10
3.5386922362170736
 20
-1.246272691533546
 10
1.5489325653749186
 20
-1.2462726915335458
  0
HATCH
  5
B6
330
17
100
AcDbEntity
  8
A-WALL-PATT
 62
7
100
AcDbHatch
 10
0.0
 20
0.0
 30
0.0
210
0.0
220
0.0
230
1.0
  2
ANSI31
 70
0
 71
0
 91
1
 92
3
 72
0
 73
1
 93
5
 10
1.5489325653749186
 20
-1.2462726915335458
 10
1.5489325653749186
 20
-1.0462726915335456
 10
3.5386922362170736
 20
-1.0462726915335459
 10
3.5386922362170736
 20
-1.246272691533546
 10
1.5489325653749186
 20
-1.2462726915335458
 97
0
 75
1
 76
1
 52
0.0
 41
0.01
 77
0
 78
1
 53
45.0
 43
0.0
 44
0.0
 45
-0.0224506403
 46
0.0224506403
 79
0
 98
0
  0
LWPOLYLINE
  5
B7
330
17
100
AcDbEntity
  8
A-WALL
100
AcDbPolyline
 90
5
 70
1
 10
0.761947735632196
 20
-1.1168743276611353
 10
0.761947735632196
 20
-0.9168743276611352
 10
3.5386922362170736
 20
-0.9168743276611354
 10
3.5386922362170736
 20
-1.1168743276611355
 10
0.761947735632196
 20
-1.1168743276611353
  0
HATCH
  5
B8
330
17
100
AcDbEntity
  8
A-WALL-PATT
 62
7
100
AcDbHatch
 10
0.0
 20
0.0
 30
0.0
210
0.0
220
0.0
230
1.0
  2
ANSI31
 70
0
 71
0
 91
1
 92
3
 72
0
 73
1
 93
5
 10
0.761947735632196
 20
-1.1168743276611353
 10
0.761947735632196
 20
-0.9168743276611352
 10
3.5386922362170736
 20
-0.9168743276611354
 10
3.5386922362170736
 20
-1.1168743276611355
 10
0.761947735632196
 20
-1.1168743276611353
 97
0
 75
1
 76
1
 52
0.0
 41
0.01
 77
0
 78
1
 53
45.0
 43
0.0
 44
0.0
 45
-0.0224506403
 46
0.0224506403
 79
0
 98
0
  0
LWPOLYLINE
  5
B9
330
17
100
AcDbEntity
  8
A-WALL
100
AcDbPolyline
 90
5
 70
1
 10
0.9619477356321959
 20
-0.9499654640064676
 10
0.9619477356321959
 20
-0.7499654640064677
 10
1.8420141408044963
 20
-0.7499654640064678
 10
1.8420141408044963
 20
-0.9499654640064678
 10
0.9619477356321959
 20
-0.9499654640064676
  0
HATCH
  5
BA
330
17
100
AcDbEntity
  8
A-WALL-PATT
 62
7
100
AcDbHatch
 10
0.0
 20
0.0
 30
0.0
210
0.0
220
0.0
230
1.0
  2
ANSI31
 70
0
 71
0
 91
1
 92
3
 72
0
 73
1
 93
5
 10
0.9619477356321959
 20
-0.9499654640064676
 10
0.9619477356321959
 20
-0.7499654640064677
 10
1.8420141408044963
 20
-0.7499654640064678
 10
1.8420141408044963
 20
-0.9499654640064678
 10
0.9619477356321959
 20
-0.9499654640064676
 97
0
 75
1
 76
1
 52
0.0
 41
0.01
 77
0
 78
1
 53
45.0
 43
0.0
 44
0.0
 45
-0.0224506403
 46
0.0224506403
 79
0
 98
0
  0
LWPOLYLINE
  5
BB
330
17
100
AcDbEntity
  8
A-WALL
100
AcDbPolyline
 90
5
 70
1
 10
2.943453324336585
 20
0.15864984469771126
 10
2.943453324336585
 20
0.25864984469771124
 10
3.7146623745666645
 20
0.2586498446977112
 10
3.7146623745666645
 20
0.1586498446977112
 10
2.943453324336585
 20
0.15864984469771126
  0
HATCH
  5
BC
330
17
100
AcDbEntity
  8
A-WALL-PATT
 62
7
100
AcDbHatch
 10
0.0
 20
0.0
 30
0.0
210
0.0
220
0.0
230
1.0
  2
ANSI31
 70
0
 71
0
 91
1
 92
3
 72
0
 73
1
 93
5
 10
2.943453324336585
 20
0.15864984469771126
 10
2.943453324336585
 20
0.25864984469771124
 10
3.7146623745666645
 20
0.2586498446977112
 10
3.7146623745666645
 20
0.1586498446977112
 10
2.943453324336585
 20
0.15864984469771126
 97
0
 75
1
 76
1
 52
0.0
 41
0.01
 77
0
 78
1
 53
45.0
 43
0.0
 44
0.0
 45
-0.0224506403
 46
0.0224506403
 79
0
 98
0
  0
LWPOLYLINE
  5
BD
330
17
100
AcDbEntity
  8
A-WALL
100
AcDbPolyline
 90
5
 70
1
 10
0.9619477356321959
 20
0.8289361006691055
 10
0.9619477356321959
 20
0.9289361006691056
 10
3.614662374566665
 20
0.9289361006691054
 10
3.614662374566665
 20
0.8289361006691053
 10
0.9619477356321959
 20
0.8289361006691055
  0
HATCH
  5
BE
330
17
100
AcDbEntity
  8
A-WALL-PATT
 62
7
100
AcDbHatch
 10
0.0
 20
0.0
 30
0.0
210
0.0
220
0.0
230
1.0
  2
ANSI31
 70
0
 71
0
 91
1
 92
3
 72
0
 73
1
 93
5
 10
0.9619477356321959
 20
0.8289361006691055
 10
0.9619477356321959
 20
0.9289361006691056
 10
3.614662374566665
 20
0.9289361006691054
 10
3.614662374566665
 20
0.8289361006691053
 10
0.9619477356321959
 20
0.8289361006691055
 97
0
 75
1
 76
1
 52
0.0
 41
0.01
 77
0
 78
1
 53
45.0
 43
0.0
 44
0.0
 45
-0.0224506403
 46
0.0224506403
 79
0
 98
0
  0
LWPOLYLINE
  5
BF
330
17
100
AcDbEntity
  8
A-WALL
100
AcDbPolyline
 90
5
 70
1
 10
-0.7000775738295921
 20
0.9143337084321864
 10
-0.7000775738295921
 20
1.1143337084321865
 10
1.0763979746003824
 20
1.1143337084321865
 10
1.0763979746003824
 20
0.9143337084321864
 10
-0.7000775738295921
 20
0.9143337084321864
  0
HATCH
  5
C0
330
17
100
AcDbEntity
  8
A-WALL-PATT
 62
7
100
AcDbHatch
 10
0.0
 20
0.0
 30
0.0
210
0.0
220
0.0
230
1.0
  2
ANSI31
 70
0
 71
0
 91
1
 92
3
 72
0
 73
1
 93
5
 10
-0.7000775738295921
 20
0.9143337084321864
 10
-0.7000775738295921
 20
1.1143337084321865
 10
1.0763979746003824
 20
1.1143337084321865
 10
1.0763979746003824
 20
0.9143337084321864
 10
-0.7000775738295921
 20
0.9143337084321864
 97
0
 75
1
 76
1
 52
0.0
 41
0.01
 77
0
 78
1
 53
45.0
 43
0.0
 44
0.0
 45
-0.0224506403
 46
0.0224506403
 79
0
 98
0
  0
LWPOLYLINE
  5
C1
330
17
100
AcDbEntity
  8
A-WALL
100
AcDbPolyline
 90
5
 70
1
 10
0.8593337075414405
 20
3.8807861189591786
 10
0.8593337075414405
 20
3.980786118959178
 10
2.471975153027542
 20
3.980786118959178
 10
2.471975153027542
 20
3.8807861189591786
 10
0.8593337075414405
 20
3.8807861189591786
  0
HATCH
  5
C2
330
17
100
AcDbEntity
  8
A-WALL-PATT
 62
7
100
AcDbHatch
 10
0.0
 20
0.0
 30
0.0
210
0.0
220
0.0
230
1.0
  2
ANSI31
 70
0
 71
0
 91
1
 92
3
 72
0
 73
1
 93
5
 10
0.8593337075414405
 20
3.8807861189591786
 10
0.8593337075414405
 20
3.980786118959178
 10
2.471975153027542
 20
3.980786118959178
 10
2.471975153027542
 20
3.8807861189591786
 10
0.8593337075414405
 20
3.8807861189591786
 97
0
 75
1
 76
1
 52
0.0
 41
0.01
 77
0
 78
1
 53
45.0
 43
0.0
 44
0.0
 45
-0.0224506403
 46
0.0224506403
 79
0
 98
0
  0
LWPOLYLINE
  5
C3
330
17
100
AcDbEntity
  8
A-WALL
100
AcDbPolyline
 90
5
 70
1
 10
-0.056357223746416274
 20
4.053192382034763
 10
-0.056357223746416274
 20
4.153192382034763
 10
3.118285650044757
 20
4.153192382034763
 10
3.118285650044757
 20
4.053192382034763
 10
-0.056357223746416274
 20
4.053192382034763
  0
HATCH
  5
C4
330
17
100
AcDbEntity
  8
A-WALL-PATT
 62
7
100
AcDbHatch
 10
0.0
 20
0.0
 30
0.0
210
0.0
220
0.0
230
1.0
  2
ANSI31
 70
0
 71
0
 91
1
 92
3
 72
0
 73
1
 93
5
 10
-0.056357223746416274
 20
4.053192382034763
 10
-0.056357223746416274
 20
4.153192382034763
 10
3.118285650044757
 20
4.153192382034763
 10
3.118285650044757
 20
4.053192382034763
 10
-0.056357223746416274
 20
4.053192382034763
 97
0
 75
1
 76
1
 52
0.0
 41
0.01
 77
0
 78
1
 53
45.0
 43
0.0
 44
0.0
 45
-0.0224506403
 46
0.0224506403
 79
0
 98
0
  0
LWPOLYLINE
  5
C5
330
17
100
AcDbEntity
  8
A-WALL
100
AcDbPolyline
 90
5
 70
1
 10
2.881574742316509
 20
4.175775299637541
 10
2.881574742316509
 20
4.275775299637541
 10
3.7192699500540356
 20
4.275775299637541
 10
3.7192699500540356
 20
4.175775299637541
 10
2.881574742316509
 20
4.175775299637541
  0
HATCH
  5
C6
330
17
100
AcDbEntity
  8
A-WALL-PATT
 62
7
100
AcDbHatch
 10
0.0
 20
0.0
 30
0.0
210
0.0
220
0.0
230
1.0
  2
ANSI31
 70
0
 71
0
 91
1
 92
3
 72
0
 73
1
 93
5
 10
2.881574742316509
 20
4.175775299637541
 10
2.881574742316509
 20
4.275775299637541
 10
3.7192699500540356
 20
4.275775299637541
 10
3.7192699500540356
 20
4.175775299637541
 10
2.881574742316509
 20
4.175775299637541
 97
0
 75
1
 76
1
 52
0.0
 41
0.01
 77
0
 78
1
 53
45.0
 43
0.0
 44
0.0
 45
-0.0224506403
 46
0.0224506403
 79
0
 98
0
  0
LWPOLYLINE
  5
C7
330
17
100
AcDbEntity
  8
A-WALL
100
AcDbPolyline
 90
5
 70
1
 10
-0.9926164933352799
 20
5.023031068033897
 10
-0.9926164933352799
 20
5.123031068033897
 10
-0.6426164933352796
 20
5.123031068033897
 10
-0.6426164933352796
 20
5.023031068033897
 10
-0.9926164933352799
 20
5.023031068033897
  0
HATCH
  5
C8
330
17
100
AcDbEntity
  8
A-WALL-PATT
 62
7
100
AcDbHatch
 10
0.0
 20
0.0
 30
0.0
210
0.0
220
0.0
230
1.0
  2
ANSI31
 70
0
 71
0
 91
1
 92
3
 72
0
 73
1
 93
5
 10
-0.9926164933352799
 20
5.023031068033897
 10
-0.9926164933352799
 20
5.123031068033897
 10
-0.6426164933352796
 20
5.123031068033897
 10
-0.6426164933352796
 20
5.023031068033897
 10
-0.9926164933352799
 20
5.023031068033897
 97
0
 75
1
 76
1
 52
0.0
 41
0.01
 77
0
 78
1
 53
45.0
 43
0.0
 44
0.0
 45
-0.0224506403
 46
0.0224506403
 79
0
 98
0
  0
LWPOLYLINE
  5
C9
330
17
100
AcDbEntity
  8
A-WALL
100
AcDbPolyline
 90
5
 70
1
 10
-0.9926164933352799
 20
5.112056873787717
 10
-0.9926164933352799
 20
5.212056873787716
 10
-0.6426164933352805
 20
5.212056873787716
 10
-0.6426164933352805
 20
5.112056873787717
 10
-0.9926164933352799
 20
5.112056873787717
  0
HATCH
  5
CA
330
17
100
AcDbEntity
  8
A-WALL-PATT
 62
7
100
AcDbHatch
 10
0.0
 20
0.0
 30
0.0
210
0.0
220
0.0
230
1.0
  2
ANSI31
 70
0
 71
0
 91
1
 92
3
 72
0
 73
1
 93
5
 10
-0.9926164933352799
 20
5.112056873787717
 10
-0.9926164933352799
 20
5.212056873787716
 10
-0.6426164933352805
 20
5.212056873787716
 10
-0.6426164933352805
 20
5.112056873787717
 10
-0.9926164933352799
 20
5.112056873787717
 97
0
 75
1
 76
1
 52
0.0
 41
0.01
 77
0
 78
1
 53
45.0
 43
0.0
 44
0.0
 45
-0.0224506403
 46
0.0224506403
 79
0
 98
0
  0
LWPOLYLINE
  5
CB
330
17
100
AcDbEntity
  8
A-WALL
100
AcDbPolyline
 90
5
 70
1
 10
-2.191978326259404
 20
5.704297115850779
 10
-2.191978326259404
 20
5.904297115850778
 10
-0.6101553092475935
 20
5.904297115850778
 10
-0.6101553092475935
 20
5.704297115850779
 10
-2.191978326259404
 20
5.704297115850779
  0
HATCH
  5
CC
330
17
100
AcDbEntity
  8
A-WALL-PATT
 62
7
100
AcDbHatch
 10
0.0
 20
0.0
 30
0.0
210
0.0
220
0.0
230
1.0
  2
ANSI31
 70
0
 71
0
 91
1
 92
3
 72
0
 73
1
 93
5
 10
-2.191978326259404
 20
5.704297115850779
 10
-2.191978326259404
 20
5.904297115850778
 10
-0.6101553092475935
 20
5.904297115850778
 10
-0.6101553092475935
 20
5.704297115850779
 10
-2.191978326259404
 20
5.704297115850779
 97
0
 75
1
 76
1
 52
0.0
 41
0.01
 77
0
 78
1
 53
45.0
 43
0.0
 44
0.0
 45
-0.0224506403
 46
0.0224506403
 79
0
 98
0
  0
LWPOLYLINE
  5
CD
330
17
100
AcDbEntity
  8
A-AREA
100
AcDbPolyline
 90
4
 70
1
 10
-0.7839589969073587
 20
0.9289361006691056
 10
3.438692236217074
 20
0.9289361006691054
 10
3.438692236217074
 20
4.053192382034763
 10
-0.7839589969073587
 20
4.053192382034763
  0
MTEXT
  5
CE
330
17
100
AcDbEntity
  8
A-ANNO-TEXT
100
AcDbMText
 10
1.3273666196548577
 20
2.491064241351934
 30
0.0
 40
0.15
 71
5
  1
Room 1 (incomplete)\P13.19 m2\P4.22 x 3.12 m
  0
LWPOLYLINE
  5
CF
330
17
100
AcDbEntity
  8
A-AREA
100
AcDbPolyline
 90
4
 70
1
 10
3.7146623745666645
 20
-0.3453797804568599
 10
7.213582434425245
 20
-0.3453797804568599
 10
7.213582434425245
 20
1.3546202195431403
 10
3.7146623745666645
 20
1.3546202195431403
  0
MTEXT
  5
D0
330
17
100
AcDbEntity
  8
A-ANNO-TEXT
100
AcDbMText
 10
5.464122404495955
 20
0.5046202195431402
 30
0.0
 40
0.15
 71
5
  1
Room 2 (incomplete)\P5.95 m2\P3.50 x 1.70 m
  0
LWPOLYLINE
  5
D1
330
17
100
AcDbEntity
  8
A-AREA
100
AcDbPolyline
 90
4
 70
1
 10
-2.3955854761020143
 20
1.9446202195431401
 10
-0.9926164933352799
 20
1.9446202195431401
 10
-0.9926164933352799
 20
5.704297115850779
 10
-2.3955854761020143
 20
5.704297115850779
  0
MTEXT
  5
D2
330
17
100
AcDbEntity
  8
A-ANNO-TEXT
100
AcDbMText
 10
-1.6941009847186472
 20
3.82445866769696
 30
0.0
 40
0.15
 71
5
  1
Room 3 (incomplete)\P5.27 m2\P1.40 x 3.76 m
  0
LWPOLYLINE
  5
D3
330
17
100
AcDbEntity
  8
A-AREA
100
AcDbPolyline
 90
18
 70
1
 10
1.0763979746003824
 20
0.8289361006691055
 10
1.0763979746003824
 20
0.28303348019569363
 10
0.9763979746003824
 20
0.28303348019569363
 10
0.9763979746003824
 20
0.8289361006691055
 10
0.9619477356321959
 20
0.8289361006691055
 10
0.9619477356321959
 20
-0.7499654640064677
 10
1.8420141408044963
 20
-0.7499654640064678
 10
1.8420141408044963
 20
-0.9168743276611352
 10
3.438692236217074
 20
-0.9168743276611353
 10
3.438692236217074
 20
0.04840864012323125
 10
3.2278269008200238
 20
0.04840864012323126
 10
3.2278269008200238
 20
0.14840864012323127
 10
3.438692236217074
 20
0.14840864012323127
 10
3.438692236217074
 20
0.1586498446977112
 10
2.943453324336585
 20
0.15864984469771126
 10
2.943453324336585
 20
0.25864984469771124
 10
3.438692236217074
 20
0.25864984469771124
 10
3.438692236217074
 20
0.8289361006691053
  0
MTEXT
  5
D4
330
17
100
AcDbEntity
  8
A-ANNO-TEXT
100
AcDbMText
 10
2.2003199859246347
 20
-0.35077841194161824
 30
0.0
 40
0.15
 71
5
  1
Room 4\P4.05 m2\P2.48 x 1.75 m
  0
LWPOLYLINE
  5
D5
330
17
100
AcDbEntity
  8
A-AREA
100
AcDbPolyline
 90
4
 70
1
 10
6.61311427371512
 20
-0.6353797804568598
 10
9.06311427371512
 20
-0.6353797804568598
 10
9.06311427371512
 20
0.3946202195431403
 10
6.61311427371512
 20
0.3946202195431403
  0
MTEXT
  5
D6
330
17
100
AcDbEntity
  8
A-ANNO-TEXT
100
AcDbMText
 10
7.838114273715121
 20
-0.12037978045685976
 30
0.0
 40
0.15
 71
5
  1
Room 5 (incomplete)\P2.52 m2\P2.45 x 1.03 m
  0
LINE
  5
D7
330
17
100
AcDbEntity
  8
A-AREA-OPEN
100
AcDbLine
 10
-0.7839589969073587
 20
1.540550530924096
 30
0.0
 11
-0.7839589969073587
 21
1.2386492920515875
 31
0.0
  0
LINE
  5
D8
330
17
100
AcDbEntity
  8
A-AREA-OPEN
100
AcDbLine
 10
3.8646623745666644
 20
-0.3453797804568599
 30
0.0
 11
7.213582434425245
 21
-0.3453797804568599
 31
0.0
  0
LINE
  5
D9
330
17
100
AcDbEntity
  8
A-AREA-OPEN
100
AcDbLine
 10
7.213582434425245
 20
-0.3453797804568599
 30
0.0
 11
7.213582434425245
 21
0.25148334421594976
 31
0.0
  0
LINE
  5
DA
330
17
100
AcDbEntity
  8
A-AREA-OPEN
100
AcDbLine
 10
7.0635824344252445
 20
1.3546202195431403
 30
0.0
 11
3.8646623745666644
 21
1.3546202195431403
 31
0.0
  0
LINE
  5
DB
330
17
100
AcDbEntity
  8
A-AREA-OPEN
100
AcDbLine
 10
-2.3955854761020143
 20
1.9446202195431401
 30
0.0
 11
-1.0339589969073588
 21
1.9446202195431401
 31
0.0
  0
LINE
  5
DC
330
17
100
AcDbEntity
  8
A-AREA-OPEN
100
AcDbLine
 10
-2.3955854761020143
 20
5.704297115850779
 30
0.0
 11
-2.3955854761020143
 21
5.097896912510688
 31
0.0
  0
LINE
  5
DD
330
17
100
AcDbEntity
  8
A-AREA-OPEN
100
AcDbLine
 10
-2.3955854761020143
 20
2.6355891593313374
 30
0.0
 11
-2.3955854761020143
 21
1.9446202195431401
 31
0.0
  0
LINE
  5
DE
330
17
100
AcDbEntity
  8
A-AREA-OPEN
100
AcDbLine
 10
6.61311427371512
 20
-0.6353797804568598
 30
0.0
 11
9.06311427371512
 21
-0.6353797804568598
 31
0.0
  0
LINE
  5
DF
330
17
100
AcDbEntity
  8
A-AREA-OPEN
100
AcDbLine
 10
9.06311427371512
 20
-0.6353797804568598
 30
0.0
 11
9.06311427371512
 21
0.3946202195431403
 31
0.0
  0
LINE
  5
E0
330
17
100
AcDbEntity
  8
A-AREA-OPEN
100
AcDbLine
 10
9.06311427371512
 20
0.3946202195431403
 30
0.0
 11
7.463245270730495
 21
0.3946202195431403
 31
0.0
  0
LINE
  5
E1
330
17
100
AcDbEntity
  8
A-AREA-OPEN
100
AcDbLine
 10
7.063919598119995
 20
0.3946202195431403
 30
0.0
 11
6.61311427371512
 21
0.3946202195431403
 31
0.0
  0
LINE
  5
E2
330
17
100
AcDbEntity
  8
A-AREA-OPEN
100
AcDbLine
 10
6.61311427371512
 20
0.3946202195431403
 30
0.0
 11
6.61311427371512
 21
-0.6353797804568598
 31
0.0
  0
LINE
  5
E3
330
17
100
AcDbEntity
  8
A-OPEN
100
AcDbLine
 10
3.488692236217074
 20
2.6596077741149786
 30
0.0
 11
3.488692236217074
 21
4.143192382034763
 31
0.0
  0
TEXT
  5
E4
330
17
100
AcDbEntity
  8
A-ANNO-TEXT
100
AcDbText
 10
3.218692236217074
 20
3.4014000780748708
 30
0.0
 40
0.12
  1
A1
 72
1
 11
3.218692236217074
 21
3.4014000780748708
 31
0.0
100
AcDbText
 73
2
  0
INSERT
  5
E5
330
17
100
AcDbEntity
  8
A-DOOR
100
AcDbBlockReference
  2
LEVANTA_DOOR
 10
-0.08635722374641627
 20
4.103192382034763
 30
0.0
 41
0.6676017731609424
 42
0.6676017731609424
 50
180.0
  0
TEXT
  5
E7
330
17
100
AcDbEntity
  8
A-ANNO-TEXT
100
AcDbText
 10
-0.4201581103268875
 20
3.602491052164056
 30
0.0
 40
0.12
  1
P1
 72
1
 11
-0.4201581103268875
 21
3.602491052164056
 31
0.0
100
AcDbText
 73
2
  0
INSERT
  5
E8
330
17
100
AcDbEntity
  8
A-DOOR
100
AcDbBlockReference
  2
LEVANTA_DOOR
 10
3.6646623745666647
 20
0.1286498446977112
 30
0.0
 41
0.5640296251545711
 42
0.5640296251545711
 50
-90.0
  0
TEXT
  5
EA
330
17
100
AcDbEntity
  8
A-ANNO-TEXT
100
AcDbText
 10
4.087684593432593
 20
-0.15336496787957432
 30
0.0
 40
0.12
  1
P2
 72
1
 11
4.087684593432593
 21
-0.15336496787957432
 31
0.0
100
AcDbText
 73
2
  0
DIMENSION
  5
EB
330
17
100
AcDbEntity
  8
A-ANNO-DIMS
100
AcDbDimension
280
0
  2
*D1
  3
LEVANTA
 10
-3.0955854761020145
 20
2.7855891593313373
 30
0.0
 11
-3.1855854761020144
 21
3.8667430359210124
 31
0.0
 70
32
 71
5
  1
<>
100
AcDbAlignedDimension
 13
-2.4955854761020144
 23
2.7855891593313373
 33
0.0
 14
-2.4955854761020144
 24
4.9478969125106875
 34
0.0
 50
90.0
100
AcDbRotatedDimension
  0
DIMENSION
  5
FA
330
17
100
AcDbEntity
  8
A-ANNO-DIMS
100
AcDbDimension
280
0
  2
*D2
  3
LEVANTA
 10
0.261947735632196
 20
-1.1168743276611353
 30
0.0
 11
0.17194773563219598
 21
-0.0012703096144743853
 31
0.0
 70
32
 71
5
  1
<>
100
AcDbAlignedDimension
 13
0.861947735632196
 23
-1.1168743276611353
 33
0.0
 14
0.861947735632196
 24
1.1143337084321865
 34
0.0
 50
90.0
100
AcDbRotatedDimension
  0
DIMENSION
  5
109
330
17
100
AcDbEntity
  8
A-ANNO-DIMS
100
AcDbDimension
280
0
  2
*D3
  3
LEVANTA
 10
7.8135824344252445
 20
0.4014833442159497
 30
0.0
 11
7.723582434425245
 21
0.942756245321686
 31
0.0
 70
32
 71
5
  1
<>
100
AcDbAlignedDimension
 13
7.263582434425245
 23
0.4014833442159497
 33
0.0
 14
7.263582434425245
 24
1.4840291464274222
 34
0.0
 50
90.0
100
AcDbRotatedDimension
  0
DIMENSION
  5
118
330
17
100
AcDbEntity
  8
A-ANNO-DIMS
100
AcDbDimension
280
0
  2
*D4
  3
LEVANTA
 10
3.5386922362170736
 20
-1.7462726915335458
 30
0.0
 11
2.5438124007959964
 21
-1.8362726915335459
 31
0.0
 70
32
 71
5
  1
<>
100
AcDbAlignedDimension
 13
3.5386922362170736
 23
-1.146272691533546
 33
0.0
 14
1.5489325653749186
 24
-1.1462726915335457
 34
0.0
 50
180.0
100
AcDbRotatedDimension
  0
DIMENSION
  5
127
330
17
100
AcDbEntity
  8
A-ANNO-DIMS
100
AcDbDimension
280
0
  2
*D5
  3
LEVANTA
 10
3.5386922362170736
 20
-1.6168743276611353
 30
0.0
 11
2.150319985924635
 21
-1.7068743276611353
 31
0.0
 70
32
 71
5
  1
<>
100
AcDbAlignedDimension
 13
3.5386922362170736
 23
-1.0168743276611354
 33
0.0
 14
0.7619477356321962
 24
-1.0168743276611352
 34
0.0
 50
180.0
100
AcDbRotatedDimension
  0
DIMENSION
  5
136
330
17
100
AcDbEntity
  8
A-ANNO-DIMS
100
AcDbDimension
280
0
  2
*D6
  3
LEVANTA
 10
1.0763979746003824
 20
0.4143337084321864
 30
0.0
 11
0.18816020038539516
 21
0.32433370843218645
 31
0.0
 70
32
 71
5
  1
<>
100
AcDbAlignedDimension
 13
1.0763979746003824
 23
1.0143337084321864
 33
0.0
 14
-0.7000775738295921
 24
1.0143337084321864
 34
0.0
 50
180.0
100
AcDbRotatedDimension
  0
DIMENSION
  5
145
330
17
100
AcDbEntity
  8
A-ANNO-DIMS
100
AcDbDimension
280
0
  2
*D7
  3
LEVANTA
 10
2.471975153027542
 20
4.480786118959179
 30
0.0
 11
1.6656544302844911
 21
4.390786118959179
 31
0.0
 70
32
 71
5
  1
<>
100
AcDbAlignedDimension
 13
2.471975153027542
 23
3.9307861189591784
 33
0.0
 14
0.8593337075414405
 24
3.9307861189591784
 34
0.0
 50
180.0
100
AcDbRotatedDimension
  0
DIMENSION
  5
154
330
17
100
AcDbEntity
  8
A-ANNO-DIMS
100
AcDbDimension
280
0
  2
*D8
  3
LEVANTA
 10
3.118285650044757
 20
4.653192382034763
 30
0.0
 11
1.5309642131491703
 21
4.563192382034763
 31
0.0
 70
32
 71
5
  1
<>
100
AcDbAlignedDimension
 13
3.118285650044757
 23
4.103192382034763
 33
0.0
 14
-0.056357223746416274
 24
4.103192382034763
 34
0.0
 50
180.0
100
AcDbRotatedDimension
  0
DIMENSION
  5
163
330
17
100
AcDbEntity
  8
A-ANNO-DIMS
100
AcDbDimension
280
0
  2
*D9
  3
LEVANTA
 10
-0.6101553092475935
 20
6.404297115850778
 30
0.0
 11
-1.4010668177534988
 21
6.314297115850779
 31
0.0
 70
32
 71
5
  1
<>
100
AcDbAlignedDimension
 13
-0.6101553092475935
 23
5.804297115850779
 33
0.0
 14
-2.191978326259404
 24
5.804297115850779
 34
0.0
 50
180.0
100
AcDbRotatedDimension
  0
DIMENSION
  5
172
330
17
100
AcDbEntity
  8
A-ANNO-DIMS
100
AcDbDimension
280
0
  2
*D10
  3
LEVANTA
 10
4.038692236217074
 20
2.6596077741149786
 30
0.0
 11
3.9486922362170738
 21
3.4014000780748708
 31
0.0
 70
32
 71
5
  1
<>
100
AcDbAlignedDimension
 13
3.488692236217074
 23
2.6596077741149786
 33
0.0
 14
3.488692236217074
 24
4.143192382034763
 34
0.0
 50
90.0
100
AcDbRotatedDimension
  0
DIMENSION
  5
181
330
17
100
AcDbEntity
  8
A-ANNO-DIMS
100
AcDbDimension
280
0
  2
*D11
  3
LEVANTA
 10
-2.5955854761020145
 20
-2.296272691533546
 30
0.0
 11
3.233764398806553
 21
-2.206272691533546
 31
0.0
 70
32
 71
5
  1
<>
100
AcDbAlignedDimension
 13
-2.5955854761020145
 23
-1.246272691533546
 33
0.0
 14
9.06311427371512
 24
-1.246272691533546
 34
0.0
 50
0.0
100
AcDbRotatedDimension
  0
DIMENSION
  5
190
330
17
100
AcDbEntity
  8
A-ANNO-DIMS
100
AcDbDimension
280
0
  2
*D12
  3
LEVANTA
 10
-3.6455854761020143
 20
5.904297115850778
 30
0.0
 11
-3.5555854761020145
 21
2.329012212158616
 31
0.0
 70
32
 71
5
  1
<>
100
AcDbAlignedDimension
 13
-2.5955854761020145
 23
5.904297115850778
 33
0.0
 14
-2.5955854761020145
 24
-1.246272691533546
 34
0.0
 50
-90.0
100
AcDbRotatedDimension
  0
LINE
  5
19F
330
17
100
AcDbEntity
  8
A-GRID
100
AcDbLine
 10
-2.4955854761020144
 20
-1.446272691533546
 30
0.0
 11
-2.4955854761020144
 21
6.454297115850778
 31
0.0
  0
CIRCLE
  5
1A0
330
17
100
AcDbEntity
  8
A-GRID
100
AcDbCircle
 10
-2.4955854761020144
 20
6.654297115850778
 30
0.0
 40
0.18
  0
TEXT
  5
1A1
330
17
100
AcDbEntity
  8
A-GRID
100
AcDbText
 10
-2.4955854761020144
 20
6.654297115850778
 30
0.0
 40
0.16
  1
A
 72
1
 11
-2.4955854761020144
 21
6.654297115850778
 31
0.0
100
AcDbText
 73
2
  0
LINE
  5
1A2
330
17
100
AcDbEntity
  8
A-GRID
100
AcDbLine
 10
-0.8882877451213194
 20
-1.446272691533546
 30
0.0
 11
-0.8882877451213194
 21
6.454297115850778
 31
0.0
  0
CIRCLE
  5
1A3
330
17
100
AcDbEntity
  8
A-GRID
100
AcDbCircle
 10
-0.8882877451213194
 20
6.654297115850778
 30
0.0
 40
0.18
  0
TEXT
  5
1A4
330
17
100
AcDbEntity
  8
A-GRID
100
AcDbText
 10
-0.8882877451213194
 20
6.654297115850778
 30
0.0
 40
0.16
  1
B
 72
1
 11
-0.8882877451213194
 21
6.654297115850778
 31
0.0
100
AcDbText
 73
2
  0
LINE
  5
1A5
330
17
100
AcDbEntity
  8
A-GRID
100
AcDbLine
 10
0.9441728551162891
 20
-1.446272691533546
 30
0.0
 11
0.9441728551162891
 21
6.454297115850778
 31
0.0
  0
CIRCLE
  5
1A6
330
17
100
AcDbEntity
  8
A-GRID
100
AcDbCircle
 10
0.9441728551162891
 20
6.654297115850778
 30
0.0
 40
0.18
  0
TEXT
  5
1A7
330
17
100
AcDbEntity
  8
A-GRID
100
AcDbText
 10
0.9441728551162891
 20
6.654297115850778
 30
0.0
 40
0.16
  1
C
 72
1
 11
0.9441728551162891
 21
6.654297115850778
 31
0.0
100
AcDbText
 73
2
  0
LINE
  5
1A8
330
17
100
AcDbEntity
  8
A-GRID
100
AcDbLine
 10
3.620669839979267
 20
-1.446272691533546
 30
0.0
 11
3.620669839979267
 21
6.454297115850778
 31
0.0
  0
CIRCLE
  5
1A9
330
17
100
AcDbEntity
  8
A-GRID
100
AcDbCircle
 10
3.620669839979267
 20
6.654297115850778
 30
0.0
 40
0.18
  0
TEXT
  5
1AA
330
17
100
AcDbEntity
  8
A-GRID
100
AcDbText
 10
3.620669839979267
 20
6.654297115850778
 30
0.0
 40
0.16
  1
D
 72
1
 11
3.620669839979267
 21
6.654297115850778
 31
0.0
100
AcDbText
 73
2
  0
LINE
  5
1AB
330
17
100
AcDbEntity
  8
A-GRID
100
AcDbLine
 10
7.263582434425245
 20
-1.446272691533546
 30
0.0
 11
7.263582434425245
 21
6.454297115850778
 31
0.0
  0
CIRCLE
  5
1AC
330
17
100
AcDbEntity
  8
A-GRID
100
AcDbCircle
 10
7.263582434425245
 20
6.654297115850778
 30
0.0
 40
0.18
  0
TEXT
  5
1AD
330
17
100
AcDbEntity
  8
A-GRID
100
AcDbText
 10
7.263582434425245
 20
6.654297115850778
 30
0.0
 40
0.16
  1
E
 72
1
 11
7.263582434425245
 21
6.654297115850778
 31
0.0
100
AcDbText
 73
2
  0
LINE
  5
1AE
330
17
100
AcDbEntity
  8
A-GRID
100
AcDbLine
 10
-2.7955854761020147
 20
5.804297115850779
 30
0.0
 11
9.613114273715121
 21
5.804297115850779
 31
0.0
  0
CIRCLE
  5
1AF
330
17
100
AcDbEntity
  8
A-GRID
100
AcDbCircle
 10
9.81311427371512
 20
5.804297115850779
 30
0.0
 40
0.18
  0
TEXT
  5
1B0
330
17
100
AcDbEntity
  8
A-GRID
100
AcDbText
 10
9.81311427371512
 20
5.804297115850779
 30
0.0
 40
0.16
  1
1
 72
1
 11
9.81311427371512
 21
5.804297115850779
 31
0.0
100
AcDbText
 73
2
  0
LINE
  5
1B1
330
17
100
AcDbEntity
  8
A-GRID
100
AcDbLine
 10
-2.7955854761020147
 20
5.117543970910807
 30
0.0
 11
9.613114273715121
 21
5.117543970910807
 31
0.0
  0
CIRCLE
  5
1B2
330
17
100
AcDbEntity
  8
A-GRID
100
AcDbCircle
 10
9.81311427371512
 20
5.117543970910807
 30
0.0
 40
0.18
  0
TEXT
  5
1B3
330
17
100
AcDbEntity
  8
A-GRID
100
AcDbText
 10
9.81311427371512
 20
5.117543970910807
 30
0.0
 40
0.16
  1
2
 72
1
 11
9.81311427371512
 21
5.117543970910807
 31
0.0
100
AcDbText
 73
2
  0
LINE
  5
1B4
330
17
100
AcDbEntity
  8
A-GRID
100
AcDbLine
 10
-2.7955854761020147
 20
4.142933057951703
 30
0.0
 11
9.613114273715121
 21
4.142933057951703
 31
0.0
  0
CIRCLE
  5
1B5
330
17
100
AcDbEntity
  8
A-GRID
100
AcDbCircle
 10
9.81311427371512
 20
4.142933057951703
 30
0.0
 40
0.18
  0
TEXT
  5
1B6
330
17
100
AcDbEntity
  8
A-GRID
100
AcDbText
 10
9.81311427371512
 20
4.142933057951703
 30
0.0
 40
0.16
  1
3
 72
1
 11
9.81311427371512
 21
4.142933057951703
 31
0.0
100
AcDbText
 73
2
  0
LINE
  5
1B7
330
17
100
AcDbEntity
  8
A-GRID
100
AcDbLine
 10
-2.7955854761020147
 20
0.9466349045506459
 30
0.0
 11
9.613114273715121
 21
0.9466349045506459
 31
0.0
  0
CIRCLE
  5
1B8
330
17
100
AcDbEntity
  8
A-GRID
100
AcDbCircle
 10
9.81311427371512
 20
0.9466349045506459
 30
0.0
 40
0.18
  0
TEXT
  5
1B9
330
17
100
AcDbEntity
  8
A-GRID
100
AcDbText
 10
9.81311427371512
 20
0.9466349045506459
 30
0.0
 40
0.16
  1
4
 72
1
 11
9.81311427371512
 21
0.9466349045506459
 31
0.0
100
AcDbText
 73
2
  0
LINE
  5
1BA
330
17
100
AcDbEntity
  8
A-GRID
100
AcDbLine
 10
-2.7955854761020147
 20
0.20864984469771122
 30
0.0
 11
9.613114273715121
 21
0.20864984469771122
 31
0.0
  0
CIRCLE
  5
1BB
330
17
100
AcDbEntity
  8
A-GRID
100
AcDbCircle
 10
9.81311427371512
 20
0.20864984469771122
 30
0.0
 40
0.18
  0
TEXT
  5
1BC
330
17
100
AcDbEntity
  8
A-GRID
100
AcDbText
 10
9.81311427371512
 20
0.20864984469771122
 30
0.0
 40
0.16
  1
5
 72
1
 11
9.81311427371512
 21
0.20864984469771122
 31
0.0
100
AcDbText
 73
2
  0
LINE
  5
1BD
330
17
100
AcDbEntity
  8
A-GRID
100
AcDbLine
 10
-2.7955854761020147
 20
-0.9657694868019041
 30
0.0
 11
9.613114273715121
 21
-0.9657694868019041
 31
0.0
  0
CIRCLE
  5
1BE
330
17
100
AcDbEntity
  8
A-GRID
100
AcDbCircle
 10
9.81311427371512
 20
-0.9657694868019041
 30
0.0
 40
0.18
  0
TEXT
  5
1BF
330
17
100
AcDbEntity
  8
A-GRID
100
AcDbText
 10
9.81311427371512
 20
-0.9657694868019041
 30
0.0
 40
0.16
  1
6
 72
1
 11
9.81311427371512
 21
-0.9657694868019041
 31
0.0
100
AcDbText
 73
2
  0
TEXT
  5
1C0
330
17
100
AcDbEntity
  8
A-ANNO-TABL
100
AcDbText
 10
10.66311427371512
 20
5.904297115850778
 30
0.0
 40
0.16
  1
Area schedule
 11
10.66311427371512
 21
5.904297115850778
 31
0.0
100
AcDbText
 73
1
  0
LWPOLYLINE
  5
1C1
330
17
100
AcDbEntity
  8
A-ANNO-TABL
100
AcDbPolyline
 90
4
 70
1
 10
10.66311427371512
 20
5.804297115850779
 10
14.26311427371512
 20
5.804297115850779
 10
14.26311427371512
 20
5.5242971158507785
 10
10.66311427371512
 20
5.5242971158507785
  0
TEXT
  5
1C2
330
17
100
AcDbEntity
  8
A-ANNO-TABL
100
AcDbText
 10
10.72311427371512
 20
5.604297115850779
 30
0.0
 40
0.12
  1
Name
 11
10.72311427371512
 21
5.604297115850779
 31
0.0
100
AcDbText
 73
1
  0
TEXT
  5
1C3
330
17
100
AcDbEntity
  8
A-ANNO-TABL
100
AcDbText
 10
12.32311427371512
 20
5.604297115850779
 30
0.0
 40
0.12
  1
Area
 11
12.32311427371512
 21
5.604297115850779
 31
0.0
100
AcDbText
 73
1
  0
TEXT
  5
1C4
330
17
100
AcDbEntity
  8
A-ANNO-TABL
100
AcDbText
 10
13.32311427371512
 20
5.604297115850779
 30
0.0
 40
0.12
  1
Perimeter
 11
13.32311427371512
 21
5.604297115850779
 31
0.0
100
AcDbText
 73
1
  0
LINE
  5
1C5
330
17
100
AcDbEntity
  8
A-ANNO-TABL
100
AcDbLine
 10
12.26311427371512
 20
5.804297115850779
 30
0.0
 11
12.26311427371512
 21
5.5242971158507785
 31
0.0
  0
LINE
  5
1C6
330
17
100
AcDbEntity
  8
A-ANNO-TABL
100
AcDbLine
 10
13.26311427371512
 20
5.804297115850779
 30
0.0
 11
13.26311427371512
 21
5.5242971158507785
 31
0.0
  0
LWPOLYLINE
  5
1C7
330
17
100
AcDbEntity
  8
A-ANNO-TABL
100
AcDbPolyline
 90
4
 70
1
 10
10.66311427371512
 20
5.5242971158507785
 10
14.26311427371512
 20
5.5242971158507785
 10
14.26311427371512
 20
5.244297115850778
 10
10.66311427371512
 20
5.244297115850778
  0
TEXT
  5
1C8
330
17
100
AcDbEntity
  8
A-ANNO-TABL
100
AcDbText
 10
10.72311427371512
 20
5.324297115850778
 30
0.0
 40
0.11
  1
Room 1 *
 11
10.72311427371512
 21
5.324297115850778
 31
0.0
100
AcDbText
 73
1
  0
TEXT
  5
1C9
330
17
100
AcDbEntity
  8
A-ANNO-TABL
100
AcDbText
 10
12.32311427371512
 20
5.324297115850778
 30
0.0
 40
0.11
  1
13.19 m2
 11
12.32311427371512
 21
5.324297115850778
 31
0.0
100
AcDbText
 73
1
  0
TEXT
  5
1CA
330
17
100
AcDbEntity
  8
A-ANNO-TABL
100
AcDbText
 10
13.32311427371512
 20
5.324297115850778
 30
0.0
 40
0.11
  1
14.69 m
 11
13.32311427371512
 21
5.324297115850778
 31
0.0
100
AcDbText
 73
1
  0
LINE
  5
1CB
330
17
100
AcDbEntity
  8
A-ANNO-TABL
100
AcDbLine
 10
12.26311427371512
 20
5.5242971158507785
 30
0.0
 11
12.26311427371512
 21
5.244297115850778
 31
0.0
  0
LINE
  5
1CC
330
17
100
AcDbEntity
  8
A-ANNO-TABL
100
AcDbLine
 10
13.26311427371512
 20
5.5242971158507785
 30
0.0
 11
13.26311427371512
 21
5.244297115850778
 31
0.0
  0
LWPOLYLINE
  5
1CD
330
17
100
AcDbEntity
  8
A-ANNO-TABL
100
AcDbPolyline
 90
4
 70
1
 10
10.66311427371512
 20
5.244297115850778
 10
14.26311427371512
 20
5.244297115850778
 10
14.26311427371512
 20
4.964297115850778
 10
10.66311427371512
 20
4.964297115850778
  0
TEXT
  5
1CE
330
17
100
AcDbEntity
  8
A-ANNO-TABL
100
AcDbText
 10
10.72311427371512
 20
5.044297115850778
 30
0.0
 40
0.11
  1
Room 2 *
 11
10.72311427371512
 21
5.044297115850778
 31
0.0
100
AcDbText
 73
1
  0
TEXT
  5
1CF
330
17
100
AcDbEntity
  8
A-ANNO-TABL
100
AcDbText
 10
12.32311427371512
 20
5.044297115850778
 30
0.0
 40
0.11
  1
5.95 m2
 11
12.32311427371512
 21
5.044297115850778
 31
0.0
100
AcDbText
 73
1
  0
TEXT
  5
1D0
330
17
100
AcDbEntity
  8
A-ANNO-TABL
100
AcDbText
 10
13.32311427371512
 20
5.044297115850778
 30
0.0
 40
0.11
  1
10.40 m
 11
13.32311427371512
 21
5.044297115850778
 31
0.0
100
AcDbText
 73
1
  0
LINE
  5
1D1
330
17
100
AcDbEntity
  8
A-ANNO-TABL
100
AcDbLine
 10
12.26311427371512
 20
5.244297115850778
 30
0.0
 11
12.26311427371512
 21
4.964297115850778
 31
0.0
  0
LINE
  5
1D2
330
17
100
AcDbEntity
  8
A-ANNO-TABL
100
AcDbLine
 10
13.26311427371512
 20
5.244297115850778
 30
0.0
 11
13.26311427371512
 21
4.964297115850778
 31
0.0
  0
LWPOLYLINE
  5
1D3
330
17
100
AcDbEntity
  8
A-ANNO-TABL
100
AcDbPolyline
 90
4
 70
1
 10
10.66311427371512
 20
4.964297115850778
 10
14.26311427371512
 20
4.964297115850778
 10
14.26311427371512
 20
4.684297115850778
 10
10.66311427371512
 20
4.684297115850778
  0
TEXT
  5
1D4
330
17
100
AcDbEntity
  8
A-ANNO-TABL
100
AcDbText
 10
10.72311427371512
 20
4.764297115850778
 30
0.0
 40
0.11
  1
Room 3 *
 11
10.72311427371512
 21
4.764297115850778
 31
0.0
100
AcDbText
 73
1
  0
TEXT
  5
1D5
330
17
100
AcDbEntity
  8
A-ANNO-TABL
100
AcDbText
 10
12.32311427371512
 20
4.764297115850778
 30
0.0
 40
0.11
  1
5.27 m2
 11
12.32311427371512
 21
4.764297115850778
 31
0.0
100
AcDbText
 73
1
  0
TEXT
  5
1D6
330
17
100
AcDbEntity
  8
A-ANNO-TABL
100
AcDbText
 10
13.32311427371512
 20
4.764297115850778
 30
0.0
 40
0.11
  1
10.33 m
 11
13.32311427371512
 21
4.764297115850778
 31
0.0
100
AcDbText
 73
1
  0
LINE
  5
1D7
330
17
100
AcDbEntity
  8
A-ANNO-TABL
100
AcDbLine
 10
12.26311427371512
 20
4.964297115850778
 30
0.0
 11
12.26311427371512
 21
4.684297115850778
 31
0.0
  0
LINE
  5
1D8
330
17
100
AcDbEntity
  8
A-ANNO-TABL
100
AcDbLine
 10
13.26311427371512
 20
4.964297115850778
 30
0.0
 11
13.26311427371512
 21
4.684297115850778
 31
0.0
  0
LWPOLYLINE
  5
1D9
330
17
100
AcDbEntity
  8
A-ANNO-TABL
100
AcDbPolyline
 90
4
 70
1
 10
10.66311427371512
 20
4.684297115850778
 10
14.26311427371512
 20
4.684297115850778
 10
14.26311427371512
 20
4.4042971158507775
 10
10.66311427371512
 20
4.4042971158507775
  0
TEXT
  5
1DA
330
17
100
AcDbEntity
  8
A-ANNO-TABL
100
AcDbText
 10
10.72311427371512
 20
4.484297115850778
 30
0.0
 40
0.11
  1
Room 4
 11
10.72311427371512
 21
4.484297115850778
 31
0.0
100
AcDbText
 73
1
  0
TEXT
  5
1DB
330
17
100
AcDbEntity
  8
A-ANNO-TABL
100
AcDbText
 10
12.32311427371512
 20
4.484297115850778
 30
0.0
 40
0.11
  1
4.05 m2
 11
12.32311427371512
 21
4.484297115850778
 31
0.0
100
AcDbText
 73
1
  0
TEXT
  5
1DC
330
17
100
AcDbEntity
  8
A-ANNO-TABL
100
AcDbText
 10
13.32311427371512
 20
4.484297115850778
 30
0.0
 40
0.11
  1
10.95 m
 11
13.32311427371512
 21
4.484297115850778
 31
0.0
100
AcDbText
 73
1
  0
LINE
  5
1DD
330
17
100
AcDbEntity
  8
A-ANNO-TABL
100
AcDbLine
 10
12.26311427371512
 20
4.684297115850778
 30
0.0
 11
12.26311427371512
 21
4.4042971158507775
 31
0.0
  0
LINE
  5
1DE
330
17
100
AcDbEntity
  8
A-ANNO-TABL
100
AcDbLine
 10
13.26311427371512
 20
4.684297115850778
 30
0.0
 11
13.26311427371512
 21
4.4042971158507775
 31
0.0
  0
LWPOLYLINE
  5
1DF
330
17
100
AcDbEntity
  8
A-ANNO-TABL
100
AcDbPolyline
 90
4
 70
1
 10
10.66311427371512
 20
4.4042971158507775
 10
14.26311427371512
 20
4.4042971158507775
 10
14.26311427371512
 20
4.124297115850777
 10
10.66311427371512
 20
4.124297115850777
  0
TEXT
  5
1E0
330
17
100
AcDbEntity
  8
A-ANNO-TABL
100
AcDbText
 10
10.72311427371512
 20
4.204297115850777
 30
0.0
 40
0.11
  1
Room 5 *
 11
10.72311427371512
 21
4.204297115850777
 31
0.0
100
AcDbText
 73
1
  0
TEXT
  5
1E1
330
17
100
AcDbEntity
  8
A-ANNO-TABL
100
AcDbText
 10
12.32311427371512
 20
4.204297115850777
 30
0.0
 40
0.11
  1
2.52 m2
 11
12.32311427371512
 21
4.204297115850777
 31
0.0
100
AcDbText
 73
1
  0
TEXT
  5
1E2
330
17
100
AcDbEntity
  8
A-ANNO-TABL
100
AcDbText
 10
13.32311427371512
 20
4.204297115850777
 30
0.0
 40
0.11
  1
6.96 m
 11
13.32311427371512
 21
4.204297115850777
 31
0.0
100
AcDbText
 73
1
  0
LINE
  5
1E3
330
17
100
AcDbEntity
  8
A-ANNO-TABL
100
AcDbLine
 10
12.26311427371512
 20
4.4042971158507775
 30
0.0
 11
12.26311427371512
 21
4.124297115850777
 31
0.0
  0
LINE
  5
1E4
330
17
100
AcDbEntity
  8
A-ANNO-TABL
100
AcDbLine
 10
13.26311427371512
 20
4.4042971158507775
 30
0.0
 11
13.26311427371512
 21
4.124297115850777
 31
0.0
  0
LWPOLYLINE
  5
1E5
330
17
100
AcDbEntity
  8
A-ANNO-TABL
100
AcDbPolyline
 90
4
 70
1
 10
10.66311427371512
 20
4.124297115850777
 10
14.26311427371512
 20
4.124297115850777
 10
14.26311427371512
 20
3.844297115850777
 10
10.66311427371512
 20
3.844297115850777
  0
TEXT
  5
1E6
330
17
100
AcDbEntity
  8
A-ANNO-TABL
100
AcDbText
 10
10.72311427371512
 20
3.924297115850777
 30
0.0
 40
0.11
  1
Net floor area
 11
10.72311427371512
 21
3.924297115850777
 31
0.0
100
AcDbText
 73
1
  0
TEXT
  5
1E7
330
17
100
AcDbEntity
  8
A-ANNO-TABL
100
AcDbText
 10
12.32311427371512
 20
3.924297115850777
 30
0.0
 40
0.11
  1
30.55 m2
 11
12.32311427371512
 21
3.924297115850777
 31
0.0
100
AcDbText
 73
1
  0
TEXT
  5
1E8
330
17
100
AcDbEntity
  8
A-ANNO-TABL
100
AcDbText
 10
13.32311427371512
 20
3.924297115850777
 30
0.0
 40
0.11
  1

 11
13.32311427371512
 21
3.924297115850777
 31
0.0
100
AcDbText
 73
1
  0
LINE
  5
1E9
330
17
100
AcDbEntity
  8
A-ANNO-TABL
100
AcDbLine
 10
12.26311427371512
 20
4.124297115850777
 30
0.0
 11
12.26311427371512
 21
3.844297115850777
 31
0.0
  0
LINE
  5
1EA
330
17
100
AcDbEntity
  8
A-ANNO-TABL
100
AcDbLine
 10
13.26311427371512
 20
4.124297115850777
 30
0.0
 11
13.26311427371512
 21
3.844297115850777
 31
0.0
  0
LWPOLYLINE
  5
1EB
330
17
100
AcDbEntity
  8
A-ANNO-TABL
100
AcDbPolyline
 90
4
 70
1
 10
10.66311427371512
 20
3.844297115850777
 10
14.26311427371512
 20
3.844297115850777
 10
14.26311427371512
 20
3.564297115850777
 10
10.66311427371512
 20
3.564297115850777
  0
TEXT
  5
1EC
330
17
100
AcDbEntity
  8
A-ANNO-TABL
100
AcDbText
 10
10.72311427371512
 20
3.644297115850777
 30
0.0
 40
0.11
  1
Wall footprint
 11
10.72311427371512
 21
3.644297115850777
 31
0.0
100
AcDbText
 73
1
  0
TEXT
  5
1ED
330
17
100
AcDbEntity
  8
A-ANNO-TABL
100
AcDbText
 10
12.32311427371512
 20
3.644297115850777
 30
0.0
 40
0.11
  1
4.86 m2
 11
12.32311427371512
 21
3.644297115850777
 31
0.0
100
AcDbText
 73
1
  0
TEXT
  5
1EE
330
17
100
AcDbEntity
  8
A-ANNO-TABL
100
AcDbText
 10
13.32311427371512
 20
3.644297115850777
 30
0.0
 40
0.11
  1
38.47 m
 11
13.32311427371512
 21
3.644297115850777
 31
0.0
100
AcDbText
 73
1
  0
LINE
  5
1EF
330
17
100
AcDbEntity
  8
A-ANNO-TABL
100
AcDbLine
 10
12.26311427371512
 20
3.844297115850777
 30
0.0
 11
12.26311427371512
 21
3.564297115850777
 31
0.0
  0
LINE
  5
1F0
330
17
100
AcDbEntity
  8
A-ANNO-TABL
100
AcDbLine
 10
13.26311427371512
 20
3.844297115850777
 30
0.0
 11
13.26311427371512
 21
3.564297115850777
 31
0.0
  0
LWPOLYLINE
  5
1F1
330
17
100
AcDbEntity
  8
A-ANNO-TABL
100
AcDbPolyline
 90
4
 70
1
 10
10.66311427371512
 20
3.564297115850777
 10
14.26311427371512
 20
3.564297115850777
 10
14.26311427371512
 20
3.2842971158507765
 10
10.66311427371512
 20
3.2842971158507765
  0
TEXT
  5
1F2
330
17
100
AcDbEntity
  8
A-ANNO-TABL
100
AcDbText
 10
10.72311427371512
 20
3.3642971158507766
 30
0.0
 40
0.11
  1
Gross area
 11
10.72311427371512
 21
3.3642971158507766
 31
0.0
100
AcDbText
 73
1
  0
TEXT
  5
1F3
330
17
100
AcDbEntity
  8
A-ANNO-TABL
100
AcDbText
 10
12.32311427371512
 20
3.3642971158507766
 30
0.0
 40
0.11
  1
34.92 m2
 11
12.32311427371512
 21
3.3642971158507766
 31
0.0
100
AcDbText
 73
1
  0
TEXT
  5
1F4
330
17
100
AcDbEntity
  8
A-ANNO-TABL
100
AcDbText
 10
13.32311427371512
 20
3.3642971158507766
 30
0.0
 40
0.11
  1

 11
13.32311427371512
 21
3.3642971158507766
 31
0.0
100
AcDbText
 73
1
  0
LINE
  5
1F5
330
17
100
AcDbEntity
  8
A-ANNO-TABL
100
AcDbLine
 10
12.26311427371512
 20
3.564297115850777
 30
0.0
 11
12.26311427371512
 21
3.2842971158507765
 31
0.0
  0
LINE
  5
1F6
330
17
100
AcDbEntity
  8
A-ANNO-TABL
100
AcDbLine
 10
13.26311427371512
 20
3.564297115850777
 30
0.0
 11
13.26311427371512
 21
3.2842971158507765
 31
0.0
  0
TEXT
  5
1F7
330
17
100
AcDbEntity
  8
A-ANNO-TABL
100
AcDbText
 10
10.66311427371512
 20
2.9842971158507767
 30
0.0
 40
0.16
  1
Door & window schedule
 11
10.66311427371512
 21
2.9842971158507767
 31
0.0
100
AcDbText
 73
1
  0
LWPOLYLINE
  5
1F8
330
17
100
AcDbEntity
  8
A-ANNO-TABL
100
AcDbPolyline
 90
4
 70
1
 10
10.66311427371512
 20
2.8842971158507766
 10
14.56311427371512
 20
2.8842971158507766
 10
14.56311427371512
 20
2.604297115850777
 10
10.66311427371512
 20
2.604297115850777
  0
TEXT
  5
1F9
330
17
100
AcDbEntity
  8
A-ANNO-TABL
100
AcDbText
 10
10.72311427371512
 20
2.684297115850777
 30
0.0
 40
0.12
  1
Tag
 11
10.72311427371512
 21
2.684297115850777
 31
0.0
100
AcDbText
 73
1
  0
TEXT
  5
1FA
330
17
100
AcDbEntity
  8
A-ANNO-TABL
100
AcDbText
 10
11.22311427371512
 20
2.684297115850777
 30
0.0
 40
0.12
  1
Type
 11
11.22311427371512
 21
2.684297115850777
 31
0.0
100
AcDbText
 73
1
  0
TEXT
  5
1FB
330
17
100
AcDbEntity
  8
A-ANNO-TABL
100
AcDbText
 10
12.123114273715121
 20
2.684297115850777
 30
0.0
 40
0.12
  1
Width
 11
12.123114273715121
 21
2.684297115850777
 31
0.0
100
AcDbText
 73
1
  0
TEXT
  5
1FC
330
17
100
AcDbEntity
  8
A-ANNO-TABL
100
AcDbText
 10
12.82311427371512
 20
2.684297115850777
 30
0.0
 40
0.12
  1
H
 11
12.82311427371512
 21
2.684297115850777
 31
0.0
100
AcDbText
 73
1
  0
TEXT
  5
1FD
330
17
100
AcDbEntity
  8
A-ANNO-TABL
100
AcDbText
 10
13.42311427371512
 20
2.684297115850777
 30
0.0
 40
0.12
  1
Sill
 11
13.42311427371512
 21
2.684297115850777
 31
0.0
100
AcDbText
 73
1
  0
TEXT
  5
1FE
330
17
100
AcDbEntity
  8
A-ANNO-TABL
100
AcDbText
 10
14.12311427371512
 20
2.684297115850777
 30
0.0
 40
0.12
  1
Wall
 11
14.12311427371512
 21
2.684297115850777
 31
0.0
100
AcDbText
 73
1
  0
LINE
  5
1FF
330
17
100
AcDbEntity
  8
A-ANNO-TABL
100
AcDbLine
 10
11.16311427371512
 20
2.8842971158507766
 30
0.0
 11
11.16311427371512
 21
2.604297115850777
 31
0.0
  0
LINE
  5
200
330
17
100
AcDbEntity
  8
A-ANNO-TABL
100
AcDbLine
 10
12.06311427371512
 20
2.8842971158507766
 30
0.0
 11
12.06311427371512
 21
2.604297115850777
 31
0.0
  0
LINE
  5
201
330
17
100
AcDbEntity
  8
A-ANNO-TABL
100
AcDbLine
 10
12.76311427371512
 20
2.8842971158507766
 30
0.0
 11
12.76311427371512
 21
2.604297115850777
 31
0.0
  0
LINE
  5
202
330
17
100
AcDbEntity
  8
A-ANNO-TABL
100
AcDbLine
 10
13.36311427371512
 20
2.8842971158507766
 30
0.0
 11
13.36311427371512
 21
2.604297115850777
 31
0.0
  0
LINE
  5
203
330
17
100
AcDbEntity
  8
A-ANNO-TABL
100
AcDbLine
 10
14.063114273715119
 20
2.8842971158507766
 30
0.0
 11
14.063114273715119
 21
2.604297115850777
 31
0.0
  0
LWPOLYLINE
  5
204
330
17
100
AcDbEntity
  8
A-ANNO-TABL
100
AcDbPolyline
 90
4
 70
1
 10
10.66311427371512
 20
2.604297115850777
 10
14.56311427371512
 20
2.604297115850777
 10
14.56311427371512
 20
2.3242971158507766
 10
10.66311427371512
 20
2.3242971158507766
  0
TEXT
  5
205
330
17
100
AcDbEntity
  8
A-ANNO-TABL
100
AcDbText
 10
10.72311427371512
 20
2.4042971158507767
 30
0.0
 40
0.11
  1
P1
 11
10.72311427371512
 21
2.4042971158507767
 31
0.0
100
AcDbText
 73
1
  0
TEXT
  5
206
330
17
100
AcDbEntity
  8
A-ANNO-TABL
100
AcDbText
 10
11.22311427371512
 20
2.4042971158507767
 30
0.0
 40
0.11
  1
door
 11
11.22311427371512
 21
2.4042971158507767
 31
0.0
100
AcDbText
 73
1
  0
TEXT
  5
207
330
17
100
AcDbEntity
  8
A-ANNO-TABL
100
AcDbText
 10
12.123114273715121
 20
2.4042971158507767
 30
0.0
 40
0.11
  1
0.67
 11
12.123114273715121
 21
2.4042971158507767
 31
0.0
100
AcDbText
 73
1
  0
TEXT
  5
208
330
17
100
AcDbEntity
  8
A-ANNO-TABL
100
AcDbText
 10
12.82311427371512
 20
2.4042971158507767
 30
0.0
 40
0.11
  1
2.05
 11
12.82311427371512
 21
2.4042971158507767
 31
0.0
100
AcDbText
 73
1
  0
TEXT
  5
209
330
17
100
AcDbEntity
  8
A-ANNO-TABL
100
AcDbText
 10
13.42311427371512
 20
2.4042971158507767
 30
0.0
 40
0.11
  1
-
 11
13.42311427371512
 21
2.4042971158507767
 31
0.0
100
AcDbText
 73
1
  0
TEXT
  5
20A
330
17
100
AcDbEntity
  8
A-ANNO-TABL
100
AcDbText
 10
14.12311427371512
 20
2.4042971158507767
 30
0.0
 40
0.11
  1
22
 11
14.12311427371512
 21
2.4042971158507767
 31
0.0
100
AcDbText
 73
1
  0
LINE
  5
20B
330
17
100
AcDbEntity
  8
A-ANNO-TABL
100
AcDbLine
 10
11.16311427371512
 20
2.604297115850777
 30
0.0
 11
11.16311427371512
 21
2.3242971158507766
 31
0.0
  0
LINE
  5
20C
330
17
100
AcDbEntity
  8
A-ANNO-TABL
100
AcDbLine
 10
12.06311427371512
 20
2.604297115850777
 30
0.0
 11
12.06311427371512
 21
2.3242971158507766
 31
0.0
  0
LINE
  5
20D
330
17
100
AcDbEntity
  8
A-ANNO-TABL
100
AcDbLine
 10
12.76311427371512
 20
2.604297115850777
 30
0.0
 11
12.76311427371512
 21
2.3242971158507766
 31
0.0
  0
LINE
  5
20E
330
17
100
AcDbEntity
  8
A-ANNO-TABL
100
AcDbLine
 10
13.36311427371512
 20
2.604297115850777
 30
0.0
 11
13.36311427371512
 21
2.3242971158507766
 31
0.0
  0
LINE
  5
20F
330
17
100
AcDbEntity
  8
A-ANNO-TABL
100
AcDbLine
 10
14.063114273715119
 20
2.604297115850777
 30
0.0
 11
14.063114273715119
 21
2.3242971158507766
 31
0.0
  0
LWPOLYLINE
  5
210
330
17
100
AcDbEntity
  8
A-ANNO-TABL
100
AcDbPolyline
 90
4
 70
1
 10
10.66311427371512
 20
2.3242971158507766
 10
14.56311427371512
 20
2.3242971158507766
 10
14.56311427371512
 20
2.0442971158507763
 10
10.66311427371512
 20
2.0442971158507763
  0
TEXT
  5
211
330
17
100
AcDbEntity
  8
A-ANNO-TABL
100
AcDbText
 10
10.72311427371512
 20
2.1242971158507764
 30
0.0
 40
0.11
  1
P2
 11
10.72311427371512
 21
2.1242971158507764
 31
0.0
100
AcDbText
 73
1
  0
TEXT
  5
212
330
17
100
AcDbEntity
  8
A-ANNO-TABL
100
AcDbText
 10
11.22311427371512
 20
2.1242971158507764
 30
0.0
 40
0.11
  1
door
 11
11.22311427371512
 21
2.1242971158507764
 31
0.0
100
AcDbText
 73
1
  0
TEXT
  5
213
330
17
100
AcDbEntity
  8
A-ANNO-TABL
100
AcDbText
 10
12.123114273715121
 20
2.1242971158507764
 30
0.0
 40
0.11
  1
0.56
 11
12.123114273715121
 21
2.1242971158507764
 31
0.0
100
AcDbText
 73
1
  0
TEXT
  5
214
330
17
100
AcDbEntity
  8
A-ANNO-TABL
100
AcDbText
 10
12.82311427371512
 20
2.1242971158507764
 30
0.0
 40
0.11
  1
2.05
 11
12.82311427371512
 21
2.1242971158507764
 31
0.0
100
AcDbText
 73
1
  0
TEXT
  5
215
330
17
100
AcDbEntity
  8
A-ANNO-TABL
100
AcDbText
 10
13.42311427371512
 20
2.1242971158507764
 30
0.0
 40
0.11
  1
-
 11
13.42311427371512
 21
2.1242971158507764
 31
0.0
100
AcDbText
 73
1
  0
TEXT
  5
216
330
17
100
AcDbEntity
  8
A-ANNO-TABL
100
AcDbText
 10
14.12311427371512
 20
2.1242971158507764
 30
0.0
 40
0.11
  1
23
 11
14.12311427371512
 21
2.1242971158507764
 31
0.0
100
AcDbText
 73
1
  0
LINE
  5
217
330
17
100
AcDbEntity
  8
A-ANNO-TABL
100
AcDbLine
 10
11.16311427371512
 20
2.3242971158507766
 30
0.0
 11
11.16311427371512
 21
2.0442971158507763
 31
0.0
  0
LINE
  5
218
330
17
100
AcDbEntity
  8
A-ANNO-TABL
100
AcDbLine
 10
12.06311427371512
 20
2.3242971158507766
 30
0.0
 11
12.06311427371512
 21
2.0442971158507763
 31
0.0
  0
LINE
  5
219
330
17
100
AcDbEntity
  8
A-ANNO-TABL
100
AcDbLine
 10
12.76311427371512
 20
2.3242971158507766
 30
0.0
 11
12.76311427371512
 21
2.0442971158507763
 31
0.0
  0
LINE
  5
21A
330
17
100
AcDbEntity
  8
A-ANNO-TABL
100
AcDbLine
 10
13.36311427371512
 20
2.3242971158507766
 30
0.0
 11
13.36311427371512
 21
2.0442971158507763
 31
0.0
  0
LINE
  5
21B
330
17
100
AcDbEntity
  8
A-ANNO-TABL
100
AcDbLine
 10
14.063114273715119
 20
2.3242971158507766
 30
0.0
 11
14.063114273715119
 21
2.0442971158507763
 31
0.0
  0
LWPOLYLINE
  5
21C
330
17
100
AcDbEntity
  8
A-ANNO-TABL
100
AcDbPolyline
 90
4
 70
1
 10
10.66311427371512
 20
2.0442971158507763
 10
14.56311427371512
 20
2.0442971158507763
 10
14.56311427371512
 20
1.7642971158507763
 10
10.66311427371512
 20
1.7642971158507763
  0
TEXT
  5
21D
330
17
100
AcDbEntity
  8
A-ANNO-TABL
100
AcDbText
 10
10.72311427371512
 20
1.8442971158507764
 30
0.0
 40
0.11
  1
A1
 11
10.72311427371512
 21
1.8442971158507764
 31
0.0
100
AcDbText
 73
1
  0
TEXT
  5
21E
330
17
100
AcDbEntity
  8
A-ANNO-TABL
100
AcDbText
 10
11.22311427371512
 20
1.8442971158507764
 30
0.0
 40
0.11
  1
passage
 11
11.22311427371512
 21
1.8442971158507764
 31
0.0
100
AcDbText
 73
1
  0
TEXT
  5
21F
330
17
100
AcDbEntity
  8
A-ANNO-TABL
100
AcDbText
 10
12.123114273715121
 20
1.8442971158507764
 30
0.0
 40
0.11
  1
1.48
 11
12.123114273715121
 21
1.8442971158507764
 31
0.0
100
AcDbText
 73
1
  0
TEXT
  5
220
330
17
100
AcDbEntity
  8
A-ANNO-TABL
100
AcDbText
 10
12.82311427371512
 20
1.8442971158507764
 30
0.0
 40
0.11
  1
3.11
 11
12.82311427371512
 21
1.8442971158507764
 31
0.0
100
AcDbText
 73
1
  0
TEXT
  5
221
330
17
100
AcDbEntity
  8
A-ANNO-TABL
100
AcDbText
 10
13.42311427371512
 20
1.8442971158507764
 30
0.0
 40
0.11
  1
-
 11
13.42311427371512
 21
1.8442971158507764
 31
0.0
100
AcDbText
 73
1
  0
TEXT
  5
222
330
17
100
AcDbEntity
  8
A-ANNO-TABL
100
AcDbText
 10
14.12311427371512
 20
1.8442971158507764
 30
0.0
 40
0.11
  1
21
 11
14.12311427371512
 21
1.8442971158507764
 31
0.0
100
AcDbText
 73
1
  0
LINE
  5
223
330
17
100
AcDbEntity
  8
A-ANNO-TABL
100
AcDbLine
 10
11.16311427371512
 20
2.0442971158507763
 30
0.0
 11
11.16311427371512
 21
1.7642971158507763
 31
0.0
  0
LINE
  5
224
330
17
100
AcDbEntity
  8
A-ANNO-TABL
100
AcDbLine
 10
12.06311427371512
 20
2.0442971158507763
 30
0.0
 11
12.06311427371512
 21
1.7642971158507763
 31
0.0
  0
LINE
  5
225
330
17
100
AcDbEntity
  8
A-ANNO-TABL
100
AcDbLine
 10
12.76311427371512
 20
2.0442971158507763
 30
0.0
 11
12.76311427371512
 21
1.7642971158507763
 31
0.0
  0
LINE
  5
226
330
17
100
AcDbEntity
  8
A-ANNO-TABL
100
AcDbLine
 10
13.36311427371512
 20
2.0442971158507763
 30
0.0
 11
13.36311427371512
 21
1.7642971158507763
 31
0.0
  0
LINE
  5
227
330
17
100
AcDbEntity
  8
A-ANNO-TABL
100
AcDbLine
 10
14.063114273715119
 20
2.0442971158507763
 30
0.0
 11
14.063114273715119
 21
1.7642971158507763
 31
0.0
  0
LWPOLYLINE
  5
228
330
17
100
AcDbEntity
  8
A-ANNO-TTLB
100
AcDbPolyline
 90
4
 70
1
 10
-2.5955854761020145
 20
-2.846272691533546
 10
9.06311427371512
 20
-2.846272691533546
 10
9.06311427371512
 20
-4.046272691533546
 10
-2.5955854761020145
 20
-4.046272691533546
  0
LINE
  5
229
330
17
100
AcDbEntity
  8
A-ANNO-TTLB
100
AcDbLine
 10
2.06789442382484
 20
-2.846272691533546
 30
0.0
 11
2.06789442382484
 21
-4.046272691533546
 31
0.0
  0
LINE
  5
22A
330
17
100
AcDbEntity
  8
A-ANNO-TTLB
100
AcDbLine
 10
4.399634373788266
 20
-2.846272691533546
 30
0.0
 11
4.399634373788266
 21
-4.046272691533546
 31
0.0
  0
LINE
  5
22B
330
17
100
AcDbEntity
  8
A-ANNO-TTLB
100
AcDbLine
 10
6.148439336260838
 20
-2.846272691533546
 30
0.0
 11
6.148439336260838
 21
-4.046272691533546
 31
0.0
  0
LINE
  5
22C
330
17
100
AcDbEntity
  8
A-ANNO-TTLB
100
AcDbLine
 10
7.6640703037370645
 20
-2.846272691533546
 30
0.0
 11
7.6640703037370645
 21
-4.046272691533546
 31
0.0
  0
TEXT
  5
22D
330
17
100
AcDbEntity
  8
A-ANNO-TTLB
100
AcDbText
 10
-2.5155854761020144
 20
-3.066272691533546
 30
0.0
 40
0.09
  1
PROJECT
 11
-2.5155854761020144
 21
-3.066272691533546
 31
0.0
100
AcDbText
 73
1
  0
TEXT
  5
22E
330
17
100
AcDbEntity
  8
A-ANNO-TTLB
100
AcDbText
 10
-2.5155854761020144
 20
-3.446272691533546
 30
0.0
 40
0.16
  1
U2 apartment (CC BY, YouTube I-JUCu_9xKQ)
 11
-2.5155854761020144
 21
-3.446272691533546
 31
0.0
100
AcDbText
 73
1
  0
TEXT
  5
22F
330
17
100
AcDbEntity
  8
A-ANNO-TTLB
100
AcDbText
 10
2.14789442382484
 20
-3.066272691533546
 30
0.0
 40
0.09
  1
AUTHOR
 11
2.14789442382484
 21
-3.066272691533546
 31
0.0
100
AcDbText
 73
1
  0
TEXT
  5
230
330
17
100
AcDbEntity
  8
A-ANNO-TTLB
100
AcDbText
 10
2.14789442382484
 20
-3.446272691533546
 30
0.0
 40
0.16
  1
Jhona
 11
2.14789442382484
 21
-3.446272691533546
 31
0.0
100
AcDbText
 73
1
  0
TEXT
  5
231
330
17
100
AcDbEntity
  8
A-ANNO-TTLB
100
AcDbText
 10
4.479634373788266
 20
-3.066272691533546
 30
0.0
 40
0.09
  1
SCALE
 11
4.479634373788266
 21
-3.066272691533546
 31
0.0
100
AcDbText
 73
1
  0
TEXT
  5
232
330
17
100
AcDbEntity
  8
A-ANNO-TTLB
100
AcDbText
 10
4.479634373788266
 20
-3.446272691533546
 30
0.0
 40
0.16
  1
1:1 (model)
 11
4.479634373788266
 21
-3.446272691533546
 31
0.0
100
AcDbText
 73
1
  0
TEXT
  5
233
330
17
100
AcDbEntity
  8
A-ANNO-TTLB
100
AcDbText
 10
6.228439336260838
 20
-3.066272691533546
 30
0.0
 40
0.09
  1
DATE
 11
6.228439336260838
 21
-3.066272691533546
 31
0.0
100
AcDbText
 73
1
  0
TEXT
  5
234
330
17
100
AcDbEntity
  8
A-ANNO-TTLB
100
AcDbText
 10
6.228439336260838
 20
-3.446272691533546
 30
0.0
 40
0.16
  1
2026-09-06
 11
6.228439336260838
 21
-3.446272691533546
 31
0.0
100
AcDbText
 73
1
  0
TEXT
  5
235
330
17
100
AcDbEntity
  8
A-ANNO-TTLB
100
AcDbText
 10
7.744070303737065
 20
-3.066272691533546
 30
0.0
 40
0.09
  1
SHEET
 11
7.744070303737065
 21
-3.066272691533546
 31
0.0
100
AcDbText
 73
1
  0
TEXT
  5
236
330
17
100
AcDbEntity
  8
A-ANNO-TTLB
100
AcDbText
 10
7.744070303737065
 20
-3.446272691533546
 30
0.0
 40
0.16
  1
A-01
 11
7.744070303737065
 21
-3.446272691533546
 31
0.0
100
AcDbText
 73
1
  0
TEXT
  5
237
330
17
100
AcDbEntity
  8
A-ANNO-TTLB
100
AcDbText
 10
-2.5155854761020144
 20
-3.926272691533546
 30
0.0
 40
0.1
  1
Drawing: Floor plan · 5 rooms · 30.55 m2 · ceiling 3.11 m · made with levanta
 11
-2.5155854761020144
 21
-3.926272691533546
 31
0.0
100
AcDbText
 73
1
  0
ENDSEC
  0
SECTION
  2
OBJECTS
  0
DICTIONARY
  5
A
330
0
100
AcDbDictionary
281
1
  3
ACAD_COLOR
350
B
  3
ACAD_GROUP
350
C
  3
ACAD_LAYOUT
350
D
  3
ACAD_MATERIAL
350
E
  3
ACAD_MLEADERSTYLE
350
F
  3
ACAD_MLINESTYLE
350
10
  3
ACAD_PLOTSETTINGS
350
11
  3
ACAD_PLOTSTYLENAME
350
12
  3
ACAD_SCALELIST
350
14
  3
ACAD_TABLESTYLE
350
15
  3
ACAD_VISUALSTYLE
350
16
  3
EZDXF_META
350
2D
  0
DICTIONARY
  5
B
330
A
100
AcDbDictionary
281
1
  0
DICTIONARY
  5
C
330
A
100
AcDbDictionary
281
1
  0
DICTIONARY
  5
D
330
A
100
AcDbDictionary
281
1
  3
Model
350
1A
  3
Layout1
350
1E
  0
DICTIONARY
  5
E
330
A
100
AcDbDictionary
281
1
  3
ByBlock
350
1F
  3
ByLayer
350
20
  3
Global
350
21
  0
DICTIONARY
  5
F
330
A
100
AcDbDictionary
281
1
  3
Standard
350
2C
  0
DICTIONARY
  5
10
330
A
100
AcDbDictionary
281
1
  3
Standard
350
22
  0
DICTIONARY
  5
11
330
A
100
AcDbDictionary
281
1
  0
ACDBDICTIONARYWDFLT
  5
12
330
A
100
AcDbDictionary
281
1
  3
Normal
350
13
100
AcDbDictionaryWithDefault
340
13
  0
ACDBPLACEHOLDER
  5
13
330
12
  0
DICTIONARY
  5
14
330
A
100
AcDbDictionary
281
1
  0
DICTIONARY
  5
15
330
A
100
AcDbDictionary
281
1
  0
DICTIONARY
  5
16
330
A
100
AcDbDictionary
281
1
  3
2dWireframe
350
5A
  3
Basic
350
5B
  3
Brighten
350
5C
  3
ColorChange
350
5D
  3
Conceptual
350
5E
  3
Dim
350
5F
  3
EdgeColorOff
350
60
  3
Facepattern
350
61
  3
Flat
350
62
  3
FlatWithEdges
350
63
  3
Gouraud
350
64
  3
GouraudWithEdges
350
65
  3
Hidden
350
66
  3
JitterOff
350
67
  3
Linepattern
350
68
  3
Modeling
350
69
  3
OverhangOff
350
6A
  3
Realistic
350
6B
  3
Shaded
350
6C
  3
Shaded with edges
350
6D
  3
Shades of Gray
350
6E
  3
Sketchy
350
6F
  3
Thicken
350
70
  3
Wireframe
350
71
  3
X-Ray
350
72
  0
LAYOUT
  5
1A
330
D
100
AcDbPlotSettings
  1

  4
A3
  6

 40
7.5
 41
20.0
 42
7.5
 43
20.0
 44
420.0
 45
297.0
 46
0.0
 47
0.0
 48
0.0
 49
0.0
140
0.0
141
0.0
142
1.0
143
1.0
 70
1024
 72
1
 73
0
 74
5
  7

 75
16
 76
0
 77
2
 78
300
147
1.0
148
0.0
149
0.0
100
AcDbLayout
  1
Model
 70
1
 71
0
 10
0.0
 20
0.0
 11
420.0
 21
297.0
 12
0.0
 22
0.0
 32
0.0
 14
1e+20
 24
1e+20
 34
1e+20
 15
-1e+20
 25
-1e+20
 35
-1e+20
146
0.0
 13
0.0
 23
0.0
 33
0.0
 16
1.0
 26
0.0
 36
0.0
 17
0.0
 27
1.0
 37
0.0
 76
1
330
17
  0
LAYOUT
  5
1E
330
D
100
AcDbPlotSettings
  1

  4
A3
  6

 40
7.5
 41
20.0
 42
7.5
 43
20.0
 44
420.0
 45
297.0
 46
0.0
 47
0.0
 48
0.0
 49
0.0
140
0.0
141
0.0
142
1.0
143
1.0
 70
0
 72
1
 73
0
 74
5
  7

 75
16
 76
0
 77
2
 78
300
147
1.0
148
0.0
149
0.0
100
AcDbLayout
  1
Layout1
 70
1
 71
1
 10
0.0
 20
0.0
 11
420.0
 21
297.0
 12
0.0
 22
0.0
 32
0.0
 14
1e+20
 24
1e+20
 34
1e+20
 15
-1e+20
 25
-1e+20
 35
-1e+20
146
0.0
 13
0.0
 23
0.0
 33
0.0
 16
1.0
 26
0.0
 36
0.0
 17
0.0
 27
1.0
 37
0.0
 76
1
330
1B
  0
MATERIAL
  5
1F
102
{ACAD_REACTORS
330
E
102
}
330
E
100
AcDbMaterial
  1
ByBlock
  2

 70
0
 40
1.0
 71
1
 41
1.0
 91
-1023410177
 42
1.0
 72
1
  3

 73
1
 74
1
 75
1
 44
0.5
 73
0
 45
1.0
 46
1.0
 77
1
  4

 78
1
 79
1
170
1
 48
1.0
171
1
  6

172
1
173
1
174
1
140
1.0
141
1.0
175
1
  7

176
1
177
1
178
1
143
1.0
179
1
  8

270
1
271
1
272
1
145
1.0
146
1.0
273
1
  9

274
1
275
1
276
1
 42
1.0
 72
1
  3

 73
1
 74
1
 75
1
 94
63
  0
MATERIAL
  5
20
102
{ACAD_REACTORS
330
E
102
}
330
E
100
AcDbMaterial
  1
ByLayer
  2

 70
0
 40
1.0
 71
1
 41
1.0
 91
-1023410177
 42
1.0
 72
1
  3

 73
1
 74
1
 75
1
 44
0.5
 73
0
 45
1.0
 46
1.0
 77
1
  4

 78
1
 79
1
170
1
 48
1.0
171
1
  6

172
1
173
1
174
1
140
1.0
141
1.0
175
1
  7

176
1
177
1
178
1
143
1.0
179
1
  8

270
1
271
1
272
1
145
1.0
146
1.0
273
1
  9

274
1
275
1
276
1
 42
1.0
 72
1
  3

 73
1
 74
1
 75
1
 94
63
  0
MATERIAL
  5
21
102
{ACAD_REACTORS
330
E
102
}
330
E
100
AcDbMaterial
  1
Global
  2

 70
0
 40
1.0
 71
1
 41
1.0
 91
-1023410177
 42
1.0
 72
1
  3

 73
1
 74
1
 75
1
 44
0.5
 73
0
 45
1.0
 46
1.0
 77
1
  4

 78
1
 79
1
170
1
 48
1.0
171
1
  6

172
1
173
1
174
1
140
1.0
141
1.0
175
1
  7

176
1
177
1
178
1
143
1.0
179
1
  8

270
1
271
1
272
1
145
1.0
146
1.0
273
1
  9

274
1
275
1
276
1
 42
1.0
 72
1
  3

 73
1
 74
1
 75
1
 94
63
  0
MLINESTYLE
  5
22
102
{ACAD_REACTORS
330
10
102
}
330
10
100
AcDbMlineStyle
  2
Standard
 70
0
  3

 62
256
 51
90.0
 52
90.0
 71
2
 49
0.5
 62
256
  6
BYLAYER
 49
-0.5
 62
256
  6
BYLAYER
  0
MLEADERSTYLE
  5
2C
102
{ACAD_REACTORS
330
F
102
}
330
F
100
AcDbMLeaderStyle
179
2
170
2
171
1
172
0
 90
2
 40
0.0
 41
0.0
173
1
 91
-1056964608
 92
-2
290
1
 42
2.0
291
1
 43
8.0
  3
Standard
 44
4.0
300

342
29
174
1
175
1
176
0
178
1
 93
-1056964608
 45
4.0
292
0
297
0
 46
4.0
 94
-1056964608
 47
1.0
 49
1.0
140
1.0
294
1
141
0.0
177
0
142
1.0
295
0
296
0
143
3.75
271
0
272
9
273
9
  0
DICTIONARY
  5
2D
330
A
100
AcDbDictionary
280
1
281
1
  3
CREATED_BY_EZDXF
350
2E
  3
WRITTEN_BY_EZDXF
350
23A
  0
DICTIONARYVAR
  5
2E
330
2D
100
DictionaryVariables
280
0
  1
1.4.4 @ 2026-09-06T17:58:54.237629+00:00
  0
VISUALSTYLE
  5
5A
102
{ACAD_REACTORS
330
16
102
}
330
16
100
AcDbVisualStyle
  2
2dWireframe
 70
4
 90
0
 40
0.6
 62
7
290
0
291
0
  0
VISUALSTYLE
  5
5B
102
{ACAD_REACTORS
330
16
102
}
330
16
100
AcDbVisualStyle
  2
Basic
 70
7
 90
1
 40
0.6
 62
7
290
0
291
1
  0
VISUALSTYLE
  5
5C
102
{ACAD_REACTORS
330
16
102
}
330
16
100
AcDbVisualStyle
  2
Brighten
 70
12
 90
2
 40
0.6
 62
7
290
0
291
1
  0
VISUALSTYLE
  5
5D
102
{ACAD_REACTORS
330
16
102
}
330
16
100
AcDbVisualStyle
  2
ColorChange
 70
16
 90
2
 40
0.6
 62
8
290
0
291
1
  0
VISUALSTYLE
  5
5E
102
{ACAD_REACTORS
330
16
102
}
330
16
100
AcDbVisualStyle
  2
Conceptual
 70
9
 90
3
 40
0.6
 62
7
290
0
291
0
  0
VISUALSTYLE
  5
5F
102
{ACAD_REACTORS
330
16
102
}
330
16
100
AcDbVisualStyle
  2
Dim
 70
11
 90
2
 40
0.6
 62
7
290
0
291
1
  0
VISUALSTYLE
  5
60
102
{ACAD_REACTORS
330
16
102
}
330
16
100
AcDbVisualStyle
  2
EdgeColorOff
 70
22
 90
2
 40
0.6
 62
7
290
0
291
1
  0
VISUALSTYLE
  5
61
102
{ACAD_REACTORS
330
16
102
}
330
16
100
AcDbVisualStyle
  2
Facepattern
 70
15
 90
2
 40
0.6
 62
7
290
0
291
1
  0
VISUALSTYLE
  5
62
102
{ACAD_REACTORS
330
16
102
}
330
16
100
AcDbVisualStyle
  2
Flat
 70
0
 90
2
 40
0.6
 62
7
290
0
291
1
  0
VISUALSTYLE
  5
63
102
{ACAD_REACTORS
330
16
102
}
330
16
100
AcDbVisualStyle
  2
FlatWithEdges
 70
1
 90
2
 40
0.6
 62
7
290
0
291
1
  0
VISUALSTYLE
  5
64
102
{ACAD_REACTORS
330
16
102
}
330
16
100
AcDbVisualStyle
  2
Gouraud
 70
2
 90
2
 40
0.6
 62
7
290
0
291
1
  0
VISUALSTYLE
  5
65
102
{ACAD_REACTORS
330
16
102
}
330
16
100
AcDbVisualStyle
  2
GouraudWithEdges
 70
3
 90
2
 40
0.6
 62
7
290
0
291
1
  0
VISUALSTYLE
  5
66
102
{ACAD_REACTORS
330
16
102
}
330
16
100
AcDbVisualStyle
  2
Hidden
 70
6
 90
1
 40
0.6
 62
7
290
0
291
0
  0
VISUALSTYLE
  5
67
102
{ACAD_REACTORS
330
16
102
}
330
16
100
AcDbVisualStyle
  2
JitterOff
 70
20
 90
2
 40
0.6
 62
7
290
0
291
1
  0
VISUALSTYLE
  5
68
102
{ACAD_REACTORS
330
16
102
}
330
16
100
AcDbVisualStyle
  2
Linepattern
 70
14
 90
2
 40
0.6
 62
7
290
0
291
1
  0
VISUALSTYLE
  5
69
102
{ACAD_REACTORS
330
16
102
}
330
16
100
AcDbVisualStyle
  2
Modeling
 70
10
 90
2
 40
0.6
 62
7
290
0
291
0
  0
VISUALSTYLE
  5
6A
102
{ACAD_REACTORS
330
16
102
}
330
16
100
AcDbVisualStyle
  2
OverhangOff
 70
21
 90
2
 40
0.6
 62
7
290
0
291
1
  0
VISUALSTYLE
  5
6B
102
{ACAD_REACTORS
330
16
102
}
330
16
100
AcDbVisualStyle
  2
Realistic
 70
8
 90
2
 40
0.6
 62
7
290
0
291
0
  0
VISUALSTYLE
  5
6C
102
{ACAD_REACTORS
330
16
102
}
330
16
100
AcDbVisualStyle
  2
Shaded
 70
27
 90
2
 40
0.6
 62
7
290
0
291
0
  0
VISUALSTYLE
  5
6D
102
{ACAD_REACTORS
330
16
102
}
330
16
100
AcDbVisualStyle
  2
Shaded with edges
 70
26
 90
2
 40
0.6
 62
7
290
0
291
0
  0
VISUALSTYLE
  5
6E
102
{ACAD_REACTORS
330
16
102
}
330
16
100
AcDbVisualStyle
  2
Shades of Gray
 70
23
 90
2
 40
0.6
 62
7
290
0
291
0
  0
VISUALSTYLE
  5
6F
102
{ACAD_REACTORS
330
16
102
}
330
16
100
AcDbVisualStyle
  2
Sketchy
 70
24
 90
1
 40
0.6
 62
7
290
0
291
0
  0
VISUALSTYLE
  5
70
102
{ACAD_REACTORS
330
16
102
}
330
16
100
AcDbVisualStyle
  2
Thicken
 70
13
 90
2
 40
0.6
 62
7
290
0
291
1
  0
VISUALSTYLE
  5
71
102
{ACAD_REACTORS
330
16
102
}
330
16
100
AcDbVisualStyle
  2
Wireframe
 70
5
 90
0
 40
0.6
 62
7
290
0
291
0
  0
VISUALSTYLE
  5
72
102
{ACAD_REACTORS
330
16
102
}
330
16
100
AcDbVisualStyle
  2
X-Ray
 70
25
 90
2
 40
0.5
 62
7
290
0
291
0
  0
DICTIONARYVAR
  5
23A
330
2D
100
DictionaryVariables
280
0
  1
1.4.4 @ 2026-09-06T17:58:54.263198+00:00
  0
ENDSEC
  0
EOF
