# https://github.com/mikedh/trimesh

o walls
v -2.39558548 2.78558916 0.00000000 0.88235294 0.87058824 0.83921569
v -2.39558548 2.78558916 3.11307641 0.88235294 0.87058824 0.83921569
v -2.59558548 2.78558916 0.00000000 0.88235294 0.87058824 0.83921569
v -2.59558548 2.78558916 3.11307641 0.88235294 0.87058824 0.83921569
v -2.39558548 4.94789691 0.00000000 0.88235294 0.87058824 0.83921569
v -2.39558548 4.94789691 3.11307641 0.88235294 0.87058824 0.83921569
v -2.59558548 4.94789691 0.00000000 0.88235294 0.87058824 0.83921569
v -2.59558548 4.94789691 3.11307641 0.88235294 0.87058824 0.83921569
v -0.89261649 2.12937747 0.00000000 0.88235294 0.87058824 0.83921569
v -0.89261649 2.12937747 3.11307641 0.88235294 0.87058824 0.83921569
v -0.99261649 2.12937747 0.00000000 0.88235294 0.87058824 0.83921569
v -0.99261649 2.12937747 3.11307641 0.88235294 0.87058824 0.83921569
v -0.89261649 5.11205687 0.00000000 0.88235294 0.87058824 0.83921569
v -0.89261649 5.11205687 3.11307641 0.88235294 0.87058824 0.83921569
v -0.99261649 5.11205687 0.00000000 0.88235294 0.87058824 0.83921569
v -0.99261649 5.11205687 3.11307641 0.88235294 0.87058824 0.83921569
v -0.78395900 1.69055053 0.00000000 0.88235294 0.87058824 0.83921569
v -0.78395900 1.69055053 3.11307641 0.88235294 0.87058824 0.83921569
v -0.88395900 1.69055053 0.00000000 0.88235294 0.87058824 0.83921569
v -0.88395900 1.69055053 3.11307641 0.88235294 0.87058824 0.83921569
v -0.78395900 4.08403627 0.00000000 0.88235294 0.87058824 0.83921569
v -0.78395900 4.08403627 3.11307641 0.88235294 0.87058824 0.83921569
v -0.88395900 4.08403627 0.00000000 0.88235294 0.87058824 0.83921569
v -0.88395900 4.08403627 3.11307641 0.88235294 0.87058824 0.83921569
v 0.96194774 -1.11687433 0.00000000 0.88235294 0.87058824 0.83921569
v 0.96194774 -1.11687433 3.11307641 0.88235294 0.87058824 0.83921569
v 0.76194774 -1.11687433 0.00000000 0.88235294 0.87058824 0.83921569
v 0.76194774 -1.11687433 3.11307641 0.88235294 0.87058824 0.83921569
v 0.96194774 1.11433371 0.00000000 0.88235294 0.87058824 0.83921569
v 0.96194774 1.11433371 3.11307641 0.88235294 0.87058824 0.83921569
v 0.76194774 1.11433371 0.00000000 0.88235294 0.87058824 0.83921569
v 0.76194774 1.11433371 3.11307641 0.88235294 0.87058824 0.83921569
v 1.07639797 0.28303348 0.00000000 0.88235294 0.87058824 0.83921569
v 1.07639797 0.28303348 3.11307641 0.88235294 0.87058824 0.83921569
v 0.97639797 0.28303348 0.00000000 0.88235294 0.87058824 0.83921569
v 0.97639797 0.28303348 3.11307641 0.88235294 0.87058824 0.83921569
v 1.07639797 1.11433371 0.00000000 0.88235294 0.87058824 0.83921569
v 1.07639797 1.11433371 3.11307641 0.88235294 0.87058824 0.83921569
v 0.97639797 1.11433371 0.00000000 0.88235294 0.87058824 0.83921569
v 0.97639797 1.11433371 3.11307641 0.88235294 0.87058824 0.83921569
v 3.53869224 -1.04627269 0.00000000 0.88235294 0.87058824 0.83921569
v 3.53869224 -1.04627269 3.11307641 0.88235294 0.87058824 0.83921569
v 3.43869224 -1.04627269 0.00000000 0.88235294 0.87058824 0.83921569
v 3.43869224 -1.04627269 3.11307641 0.88235294 0.87058824 0.83921569
v 3.53869224 2.62960777 0.00000000 0.88235294 0.87058824 0.83921569
v 3.53869224 2.62960777 3.11307641 0.88235294 0.87058824 0.83921569
v 3.43869224 2.62960777 0.00000000 0.88235294 0.87058824 0.83921569
v 3.43869224 2.62960777 3.11307641 0.88235294 0.87058824 0.83921569
v 3.71466237 0.25864984 0.00000000 0.88235294 0.87058824 0.83921569
v 3.71466237 0.25864984 3.11307641 0.88235294 0.87058824 0.83921569
v 3.61466237 0.25864984 0.00000000 0.88235294 0.87058824 0.83921569
v 3.61466237 0.25864984 3.11307641 0.88235294 0.87058824 0.83921569
v 3.71466237 1.90417433 0.00000000 0.88235294 0.87058824 0.83921569
v 3.71466237 1.90417433 3.11307641 0.88235294 0.87058824 0.83921569
v 3.61466237 1.90417433 0.00000000 0.88235294 0.87058824 0.83921569
v 3.61466237 1.90417433 3.11307641 0.88235294 0.87058824 0.83921569
v 7.31358243 0.40148334 0.00000000 0.88235294 0.87058824 0.83921569
v 7.31358243 0.40148334 3.11307641 0.88235294 0.87058824 0.83921569
v 7.21358243 0.40148334 0.00000000 0.88235294 0.87058824 0.83921569
v 7.21358243 0.40148334 3.11307641 0.88235294 0.87058824 0.83921569
v 7.31358243 1.48402915 0.00000000 0.88235294 0.87058824 0.83921569
v 7.31358243 1.48402915 3.11307641 0.88235294 0.87058824 0.83921569
v 7.21358243 1.48402915 0.00000000 0.88235294 0.87058824 0.83921569
v 7.21358243 1.48402915 3.11307641 0.88235294 0.87058824 0.83921569
v 3.53869224 -1.04627269 0.00000000 0.88235294 0.87058824 0.83921569
v 3.53869224 -1.04627269 3.11307641 0.88235294 0.87058824 0.83921569
v 3.53869224 -1.24627269 0.00000000 0.88235294 0.87058824 0.83921569
v 3.53869224 -1.24627269 3.11307641 0.88235294 0.87058824 0.83921569
v 1.54893257 -1.04627269 0.00000000 0.88235294 0.87058824 0.83921569
v 1.54893257 -1.04627269 3.11307641 0.88235294 0.87058824 0.83921569
v 1.54893257 -1.24627269 0.00000000 0.88235294 0.87058824 0.83921569
v 1.54893257 -1.24627269 3.11307641 0.88235294 0.87058824 0.83921569
v 3.53869224 -0.91687433 0.00000000 0.88235294 0.87058824 0.83921569
v 3.53869224 -0.91687433 3.11307641 0.88235294 0.87058824 0.83921569
v 3.53869224 -1.11687433 0.00000000 0.88235294 0.87058824 0.83921569
v 3.53869224 -1.11687433 3.11307641 0.88235294 0.87058824 0.83921569
v 0.76194774 -0.91687433 0.00000000 0.88235294 0.87058824 0.83921569
v 0.76194774 -0.91687433 3.11307641 0.88235294 0.87058824 0.83921569
v 0.76194774 -1.11687433 0.00000000 0.88235294 0.87058824 0.83921569
v 0.76194774 -1.11687433 3.11307641 0.88235294 0.87058824 0.83921569
v 1.84201414 -0.74996546 0.00000000 0.88235294 0.87058824 0.83921569
v 1.84201414 -0.74996546 3.11307641 0.88235294 0.87058824 0.83921569
v 1.84201414 -0.94996546 0.00000000 0.88235294 0.87058824 0.83921569
v 1.84201414 -0.94996546 3.11307641 0.88235294 0.87058824 0.83921569
v 0.96194774 -0.74996546 0.00000000 0.88235294 0.87058824 0.83921569
v 0.96194774 -0.74996546 3.11307641 0.88235294 0.87058824 0.83921569
v 0.96194774 -0.94996546 0.00000000 0.88235294 0.87058824 0.83921569
v 0.96194774 -0.94996546 3.11307641 0.88235294 0.87058824 0.83921569
v 3.71466237 0.25864984 0.00000000 0.88235294 0.87058824 0.83921569
v 3.71466237 0.25864984 3.11307641 0.88235294 0.87058824 0.83921569
v 3.71466237 0.15864984 0.00000000 0.88235294 0.87058824 0.83921569
v 3.71466237 0.15864984 3.11307641 0.88235294 0.87058824 0.83921569
v 2.94345332 0.25864984 0.00000000 0.88235294 0.87058824 0.83921569
v 2.94345332 0.25864984 3.11307641 0.88235294 0.87058824 0.83921569
v 2.94345332 0.15864984 0.00000000 0.88235294 0.87058824 0.83921569
v 2.94345332 0.15864984 3.11307641 0.88235294 0.87058824 0.83921569
v 3.61466237 0.92893610 0.00000000 0.88235294 0.87058824 0.83921569
v 3.61466237 0.92893610 3.11307641 0.88235294 0.87058824 0.83921569
v 3.61466237 0.82893610 0.00000000 0.88235294 0.87058824 0.83921569
v 3.61466237 0.82893610 3.11307641 0.88235294 0.87058824 0.83921569
v 0.96194774 0.92893610 0.00000000 0.88235294 0.87058824 0.83921569
v 0.96194774 0.92893610 3.11307641 0.88235294 0.87058824 0.83921569
v 0.96194774 0.82893610 0.00000000 0.88235294 0.87058824 0.83921569
v 0.96194774 0.82893610 3.11307641 0.88235294 0.87058824 0.83921569
v 1.07639797 1.11433371 0.00000000 0.88235294 0.87058824 0.83921569
v 1.07639797 1.11433371 3.11307641 0.88235294 0.87058824 0.83921569
v 1.07639797 0.91433371 0.00000000 0.88235294 0.87058824 0.83921569
v 1.07639797 0.91433371 3.11307641 0.88235294 0.87058824 0.83921569
v -0.70007757 1.11433371 0.00000000 0.88235294 0.87058824 0.83921569
v -0.70007757 1.11433371 3.11307641 0.88235294 0.87058824 0.83921569
v -0.70007757 0.91433371 0.00000000 0.88235294 0.87058824 0.83921569
v -0.70007757 0.91433371 3.11307641 0.88235294 0.87058824 0.83921569
v 2.47197515 3.98078612 0.00000000 0.88235294 0.87058824 0.83921569
v 2.47197515 3.98078612 3.11307641 0.88235294 0.87058824 0.83921569
v 2.47197515 3.88078612 0.00000000 0.88235294 0.87058824 0.83921569
v 2.47197515 3.88078612 3.11307641 0.88235294 0.87058824 0.83921569
v 0.85933371 3.98078612 0.00000000 0.88235294 0.87058824 0.83921569
v 0.85933371 3.98078612 3.11307641 0.88235294 0.87058824 0.83921569
v 0.85933371 3.88078612 0.00000000 0.88235294 0.87058824 0.83921569
v 0.85933371 3.88078612 3.11307641 0.88235294 0.87058824 0.83921569
v 3.11828565 4.15319238 0.00000000 0.88235294 0.87058824 0.83921569
v 3.11828565 4.15319238 3.11307641 0.88235294 0.87058824 0.83921569
v 3.11828565 4.05319238 0.00000000 0.88235294 0.87058824 0.83921569
v 3.11828565 4.05319238 3.11307641 0.88235294 0.87058824 0.83921569
v -0.05635722 4.15319238 0.00000000 0.88235294 0.87058824 0.83921569
v -0.05635722 4.15319238 3.11307641 0.88235294 0.87058824 0.83921569
v -0.05635722 4.05319238 0.00000000 0.88235294 0.87058824 0.83921569
v -0.05635722 4.05319238 3.11307641 0.88235294 0.87058824 0.83921569
v 3.71926995 4.27577530 0.00000000 0.88235294 0.87058824 0.83921569
v 3.71926995 4.27577530 3.11307641 0.88235294 0.87058824 0.83921569
v 3.71926995 4.17577530 0.00000000 0.88235294 0.87058824 0.83921569
v 3.71926995 4.17577530 3.11307641 0.88235294 0.87058824 0.83921569
v 2.88157474 4.27577530 0.00000000 0.88235294 0.87058824 0.83921569
v 2.88157474 4.27577530 3.11307641 0.88235294 0.87058824 0.83921569
v 2.88157474 4.17577530 0.00000000 0.88235294 0.87058824 0.83921569
v 2.88157474 4.17577530 3.11307641 0.88235294 0.87058824 0.83921569
v -0.64261649 5.12303107 0.00000000 0.88235294 0.87058824 0.83921569
v -0.64261649 5.12303107 3.11307641 0.88235294 0.87058824 0.83921569
v -0.64261649 5.02303107 0.00000000 0.88235294 0.87058824 0.83921569
v -0.64261649 5.02303107 3.11307641 0.88235294 0.87058824 0.83921569
v -0.99261649 5.12303107 0.00000000 0.88235294 0.87058824 0.83921569
v -0.99261649 5.12303107 3.11307641 0.88235294 0.87058824 0.83921569
v -0.99261649 5.02303107 0.00000000 0.88235294 0.87058824 0.83921569
v -0.99261649 5.02303107 3.11307641 0.88235294 0.87058824 0.83921569
v -0.64261649 5.21205687 0.00000000 0.88235294 0.87058824 0.83921569
v -0.64261649 5.21205687 3.11307641 0.88235294 0.87058824 0.83921569
v -0.64261649 5.11205687 0.00000000 0.88235294 0.87058824 0.83921569
v -0.64261649 5.11205687 3.11307641 0.88235294 0.87058824 0.83921569
v -0.99261649 5.21205687 0.00000000 0.88235294 0.87058824 0.83921569
v -0.99261649 5.21205687 3.11307641 0.88235294 0.87058824 0.83921569
v -0.99261649 5.11205687 0.00000000 0.88235294 0.87058824 0.83921569
v -0.99261649 5.11205687 3.11307641 0.88235294 0.87058824 0.83921569
v -0.61015531 5.90429712 0.00000000 0.88235294 0.87058824 0.83921569
v -0.61015531 5.90429712 3.11307641 0.88235294 0.87058824 0.83921569
v -0.61015531 5.70429712 0.00000000 0.88235294 0.87058824 0.83921569
v -0.61015531 5.70429712 3.11307641 0.88235294 0.87058824 0.83921569
v -2.19197833 5.90429712 0.00000000 0.88235294 0.87058824 0.83921569
v -2.19197833 5.90429712 3.11307641 0.88235294 0.87058824 0.83921569
v -2.19197833 5.70429712 0.00000000 0.88235294 0.87058824 0.83921569
v -2.19197833 5.70429712 3.11307641 0.88235294 0.87058824 0.83921569
v -0.08635722 4.15319238 2.05000000 0.88235294 0.87058824 0.83921569
v -0.08635722 4.15319238 3.11307641 0.88235294 0.87058824 0.83921569
v -0.08635722 4.05319238 2.05000000 0.88235294 0.87058824 0.83921569
v -0.08635722 4.05319238 3.11307641 0.88235294 0.87058824 0.83921569
v -0.75395900 4.15319238 2.05000000 0.88235294 0.87058824 0.83921569
v -0.75395900 4.15319238 3.11307641 0.88235294 0.87058824 0.83921569
v -0.75395900 4.05319238 2.05000000 0.88235294 0.87058824 0.83921569
v -0.75395900 4.05319238 3.11307641 0.88235294 0.87058824 0.83921569
v 3.61466237 0.12864984 2.05000000 0.88235294 0.87058824 0.83921569
v 3.61466237 0.12864984 3.11307641 0.88235294 0.87058824 0.83921569
v 3.71466237 0.12864984 2.05000000 0.88235294 0.87058824 0.83921569
v 3.71466237 0.12864984 3.11307641 0.88235294 0.87058824 0.83921569
v 3.61466237 -0.43537978 2.05000000 0.88235294 0.87058824 0.83921569
v 3.61466237 -0.43537978 3.11307641 0.88235294 0.87058824 0.83921569
v 3.71466237 -0.43537978 2.05000000 0.88235294 0.87058824 0.83921569
v 3.71466237 -0.43537978 3.11307641 0.88235294 0.87058824 0.83921569
f 2 4 1
f 5 2 1
f 1 4 3
f 3 5 1
f 2 8 4
f 6 2 5
f 6 8 2
f 4 8 3
f 7 5 3
f 3 8 7
f 7 6 5
f 8 6 7
f 10 12 9
f 13 10 9
f 9 12 11
f 11 13 9
f 10 16 12
f 14 10 13
f 14 16 10
f 12 16 11
f 15 13 11
f 11 16 15
f 15 14 13
f 16 14 15
f 18 20 17
f 21 18 17
f 17 20 19
f 19 21 17
f 18 24 20
f 22 18 21
f 22 24 18
f 20 24 19
f 23 21 19
f 19 24 23
f 23 22 21
f 24 22 23
f 26 28 25
f 29 26 25
f 25 28 27
f 27 29 25
f 26 32 28
f 30 26 29
f 30 32 26
f 28 32 27
f 31 29 27
f 27 32 31
f 31 30 29
f 32 30 31
f 34 36 33
f 37 34 33
f 33 36 35
f 35 37 33
f 34 40 36
f 38 34 37
f 38 40 34
f 36 40 35
f 39 37 35
f 35 40 39
f 39 38 37
f 40 38 39
f 42 44 41
f 45 42 41
f 41 44 43
f 43 45 41
f 42 48 44
f 46 42 45
f 46 48 42
f 44 48 43
f 47 45 43
f 43 48 47
f 47 46 45
f 48 46 47
f 50 52 49
f 53 50 49
f 49 52 51
f 51 53 49
f 50 56 52
f 54 50 53
f 54 56 50
f 52 56 51
f 55 53 51
f 51 56 55
f 55 54 53
f 56 54 55
f 58 60 57
f 61 58 57
f 57 60 59
f 59 61 57
f 58 64 60
f 62 58 61
f 62 64 58
f 60 64 59
f 63 61 59
f 59 64 63
f 63 62 61
f 64 62 63
f 66 68 65
f 69 66 65
f 65 68 67
f 67 69 65
f 66 72 68
f 70 66 69
f 70 72 66
f 68 72 67
f 71 69 67
f 67 72 71
f 71 70 69
f 72 70 71
f 74 76 73
f 77 74 73
f 73 76 75
f 75 77 73
f 74 80 76
f 78 74 77
f 78 80 74
f 76 80 75
f 79 77 75
f 75 80 79
f 79 78 77
f 80 78 79
f 82 84 81
f 85 82 81
f 81 84 83
f 83 85 81
f 82 88 84
f 86 82 85
f 86 88 82
f 84 88 83
f 87 85 83
f 83 88 87
f 87 86 85
f 88 86 87
f 90 92 89
f 93 90 89
f 89 92 91
f 91 93 89
f 90 96 92
f 94 90 93
f 94 96 90
f 92 96 91
f 95 93 91
f 91 96 95
f 95 94 93
f 96 94 95
f 98 100 97
f 101 98 97
f 97 100 99
f 99 101 97
f 98 104 100
f 102 98 101
f 102 104 98
f 100 104 99
f 103 101 99
f 99 104 103
f 103 102 101
f 104 102 103
f 106 108 105
f 109 106 105
f 105 108 107
f 107 109 105
f 106 112 108
f 110 106 109
f 110 112 106
f 108 112 107
f 111 109 107
f 107 112 111
f 111 110 109
f 112 110 111
f 114 116 113
f 117 114 113
f 113 116 115
f 115 117 113
f 114 120 116
f 118 114 117
f 118 120 114
f 116 120 115
f 119 117 115
f 115 120 119
f 119 118 117
f 120 118 119
f 122 124 121
f 125 122 121
f 121 124 123
f 123 125 121
f 122 128 124
f 126 122 125
f 126 128 122
f 124 128 123
f 127 125 123
f 123 128 127
f 127 126 125
f 128 126 127
f 130 132 129
f 133 130 129
f 129 132 131
f 131 133 129
f 130 136 132
f 134 130 133
f 134 136 130
f 132 136 131
f 135 133 131
f 131 136 135
f 135 134 133
f 136 134 135
f 138 140 137
f 141 138 137
f 137 140 139
f 139 141 137
f 138 144 140
f 142 138 141
f 142 144 138
f 140 144 139
f 143 141 139
f 139 144 143
f 143 142 141
f 144 142 143
f 146 148 145
f 149 146 145
f 145 148 147
f 147 149 145
f 146 152 148
f 150 146 149
f 150 152 146
f 148 152 147
f 151 149 147
f 147 152 151
f 151 150 149
f 152 150 151
f 154 156 153
f 157 154 153
f 153 156 155
f 155 157 153
f 154 160 156
f 158 154 157
f 158 160 154
f 156 160 155
f 159 157 155
f 155 160 159
f 159 158 157
f 160 158 159
f 162 164 161
f 165 162 161
f 161 164 163
f 163 165 161
f 162 168 164
f 166 162 165
f 166 168 162
f 164 168 163
f 167 165 163
f 163 168 167
f 167 166 165
f 168 166 167
f 170 172 169
f 173 170 169
f 169 172 171
f 171 173 169
f 170 176 172
f 174 170 173
f 174 176 170
f 172 176 171
f 175 173 171
f 171 176 175
f 175 174 173
f 176 174 175

o doors
v -0.08635722 4.12319238 0.00000000 0.58823529 0.43137255 0.27450980
v -0.08635722 4.12319238 2.05000000 0.58823529 0.43137255 0.27450980
v -0.08635722 4.08319238 0.00000000 0.58823529 0.43137255 0.27450980
v -0.08635722 4.08319238 2.05000000 0.58823529 0.43137255 0.27450980
v -0.75395900 4.12319238 0.00000000 0.58823529 0.43137255 0.27450980
v -0.75395900 4.12319238 2.05000000 0.58823529 0.43137255 0.27450980
v -0.75395900 4.08319238 0.00000000 0.58823529 0.43137255 0.27450980
v -0.75395900 4.08319238 2.05000000 0.58823529 0.43137255 0.27450980
v 3.64466237 0.12864984 0.00000000 0.58823529 0.43137255 0.27450980
v 3.64466237 0.12864984 2.05000000 0.58823529 0.43137255 0.27450980
v 3.68466237 0.12864984 0.00000000 0.58823529 0.43137255 0.27450980
v 3.68466237 0.12864984 2.05000000 0.58823529 0.43137255 0.27450980
v 3.64466237 -0.43537978 0.00000000 0.58823529 0.43137255 0.27450980
v 3.64466237 -0.43537978 2.05000000 0.58823529 0.43137255 0.27450980
v 3.68466237 -0.43537978 0.00000000 0.58823529 0.43137255 0.27450980
v 3.68466237 -0.43537978 2.05000000 0.58823529 0.43137255 0.27450980
f 178 180 177
f 181 178 177
f 177 180 179
f 179 181 177
f 178 184 180
f 182 178 181
f 182 184 178
f 180 184 179
f 183 181 179
f 179 184 183
f 183 182 181
f 184 182 183
f 186 188 185
f 189 186 185
f 185 188 187
f 187 189 185
f 186 192 188
f 190 186 189
f 190 192 186
f 188 192 187
f 191 189 187
f 187 192 191
f 191 190 189
f 192 190 191

o floor_0
v -0.78395900 0.92893610 -0.05000000 0.76862745 0.69019608 0.58823529
v 3.43869224 0.92893610 -0.05000000 0.76862745 0.69019608 0.58823529
v 3.43869224 4.05319238 -0.05000000 0.76862745 0.69019608 0.58823529
v -0.78395900 4.05319238 -0.05000000 0.76862745 0.69019608 0.58823529
v -0.78395900 0.92893610 0.00000000 0.76862745 0.69019608 0.58823529
v 3.43869224 0.92893610 0.00000000 0.76862745 0.69019608 0.58823529
v 3.43869224 4.05319238 0.00000000 0.76862745 0.69019608 0.58823529
v -0.78395900 4.05319238 0.00000000 0.76862745 0.69019608 0.58823529
f 194 193 196
f 196 195 194
f 200 197 198
f 198 199 200
f 198 197 194
f 194 197 193
f 199 198 195
f 195 198 194
f 197 200 193
f 193 200 196
f 200 199 196
f 196 199 195

o floor_1
v 3.71466237 -0.34537978 -0.05000000 0.76862745 0.69019608 0.58823529
v 7.21358243 -0.34537978 -0.05000000 0.76862745 0.69019608 0.58823529
v 7.21358243 1.35462022 -0.05000000 0.76862745 0.69019608 0.58823529
v 3.71466237 1.35462022 -0.05000000 0.76862745 0.69019608 0.58823529
v 3.71466237 -0.34537978 0.00000000 0.76862745 0.69019608 0.58823529
v 7.21358243 -0.34537978 0.00000000 0.76862745 0.69019608 0.58823529
v 7.21358243 1.35462022 0.00000000 0.76862745 0.69019608 0.58823529
v 3.71466237 1.35462022 0.00000000 0.76862745 0.69019608 0.58823529
f 202 201 204
f 204 203 202
f 208 205 206
f 206 207 208
f 206 205 202
f 202 205 201
f 207 206 203
f 203 206 202
f 205 208 201
f 201 208 204
f 208 207 204
f 204 207 203

o floor_2
v -2.39558548 1.94462022 -0.05000000 0.76862745 0.69019608 0.58823529
v -0.99261649 1.94462022 -0.05000000 0.76862745 0.69019608 0.58823529
v -0.99261649 5.70429712 -0.05000000 0.76862745 0.69019608 0.58823529
v -2.39558548 5.70429712 -0.05000000 0.76862745 0.69019608 0.58823529
v -2.39558548 1.94462022 0.00000000 0.76862745 0.69019608 0.58823529
v -0.99261649 1.94462022 0.00000000 0.76862745 0.69019608 0.58823529
v -0.99261649 5.70429712 0.00000000 0.76862745 0.69019608 0.58823529
v -2.39558548 5.70429712 0.00000000 0.76862745 0.69019608 0.58823529
f 210 209 212
f 212 211 210
f 216 213 214
f 214 215 216
f 214 213 210
f 210 213 209
f 215 214 211
f 211 214 210
f 213 216 209
f 209 216 212
f 216 215 212
f 212 215 211

o floor_3
v 1.07639797 0.82893610 -0.05000000 0.76862745 0.69019608 0.58823529
v 1.07639797 0.28303348 -0.05000000 0.76862745 0.69019608 0.58823529
v 0.97639797 0.28303348 -0.05000000 0.76862745 0.69019608 0.58823529
v 0.97639797 0.82893610 -0.05000000 0.76862745 0.69019608 0.58823529
v 0.96194774 0.82893610 -0.05000000 0.76862745 0.69019608 0.58823529
v 0.96194774 -0.74996546 -0.05000000 0.76862745 0.69019608 0.58823529
v 1.84201414 -0.74996546 -0.05000000 0.76862745 0.69019608 0.58823529
v 1.84201414 -0.91687433 -0.05000000 0.76862745 0.69019608 0.58823529
v 3.43869224 -0.91687433 -0.05000000 0.76862745 0.69019608 0.58823529
v 3.43869224 0.04840864 -0.05000000 0.76862745 0.69019608 0.58823529
v 3.22782690 0.04840864 -0.05000000 0.76862745 0.69019608 0.58823529
v 3.22782690 0.14840864 -0.05000000 0.76862745 0.69019608 0.58823529
v 3.43869224 0.14840864 -0.05000000 0.76862745 0.69019608 0.58823529
v 3.43869224 0.15864984 -0.05000000 0.76862745 0.69019608 0.58823529
v 2.94345332 0.15864984 -0.05000000 0.76862745 0.69019608 0.58823529
v 2.94345332 0.25864984 -0.05000000 0.76862745 0.69019608 0.58823529
v 3.43869224 0.25864984 -0.05000000 0.76862745 0.69019608 0.58823529
v 3.43869224 0.82893610 -0.05000000 0.76862745 0.69019608 0.58823529
v 1.07639797 0.82893610 0.00000000 0.76862745 0.69019608 0.58823529
v 1.07639797 0.28303348 0.00000000 0.76862745 0.69019608 0.58823529
v 0.97639797 0.28303348 0.00000000 0.76862745 0.69019608 0.58823529
v 0.97639797 0.82893610 0.00000000 0.76862745 0.69019608 0.58823529
v 0.96194774 0.82893610 0.00000000 0.76862745 0.69019608 0.58823529
v 0.96194774 -0.74996546 0.00000000 0.76862745 0.69019608 0.58823529
v 1.84201414 -0.74996546 0.00000000 0.76862745 0.69019608 0.58823529
v 1.84201414 -0.91687433 0.00000000 0.76862745 0.69019608 0.58823529
v 3.43869224 -0.91687433 0.00000000 0.76862745 0.69019608 0.58823529
v 3.43869224 0.04840864 0.00000000 0.76862745 0.69019608 0.58823529
v 3.22782690 0.04840864 0.00000000 0.76862745 0.69019608 0.58823529
v 3.22782690 0.14840864 0.00000000 0.76862745 0.69019608 0.58823529
v 3.43869224 0.14840864 0.00000000 0.76862745 0.69019608 0.58823529
v 3.43869224 0.15864984 0.00000000 0.76862745 0.69019608 0.58823529
v 2.94345332 0.15864984 0.00000000 0.76862745 0.69019608 0.58823529
v 2.94345332 0.25864984 0.00000000 0.76862745 0.69019608 0.58823529
v 3.43869224 0.25864984 0.00000000 0.76862745 0.69019608 0.58823529
v 3.43869224 0.82893610 0.00000000 0.76862745 0.69019608 0.58823529
f 218 217 234
f 221 220 219
f 225 224 223
f 227 226 225
f 230 229 228
f 234 233 232
f 222 221 219
f 227 225 223
f 231 230 228
f 218 234 232
f 222 219 218
f 227 223 222
f 231 228 227
f 218 232 231
f 227 222 218
f 218 231 227
f 252 235 236
f 237 238 239
f 241 242 243
f 243 244 245
f 246 247 248
f 250 251 252
f 237 239 240
f 241 243 245
f 246 248 249
f 250 252 236
f 236 237 240
f 240 241 245
f 245 246 249
f 249 250 236
f 236 240 245
f 245 249 236
f 236 235 218
f 218 235 217
f 237 236 219
f 219 236 218
f 238 237 220
f 220 237 219
f 239 238 221
f 221 238 220
f 240 239 222
f 222 239 221
f 241 240 223
f 223 240 222
f 242 241 224
f 224 241 223
f 243 242 225
f 225 242 224
f 244 243 226
f 226 243 225
f 245 244 227
f 227 244 226
f 246 245 228
f 228 245 227
f 247 246 229
f 229 246 228
f 248 247 230
f 230 247 229
f 249 248 231
f 231 248 230
f 250 249 232
f 232 249 231
f 251 250 233
f 233 250 232
f 235 252 217
f 217 252 234
f 252 251 234
f 234 251 233

o floor_4
v 6.61311427 -0.63537978 -0.05000000 0.76862745 0.69019608 0.58823529
v 9.06311427 -0.63537978 -0.05000000 0.76862745 0.69019608 0.58823529
v 9.06311427 0.39462022 -0.05000000 0.76862745 0.69019608 0.58823529
v 6.61311427 0.39462022 -0.05000000 0.76862745 0.69019608 0.58823529
v 6.61311427 -0.63537978 0.00000000 0.76862745 0.69019608 0.58823529
v 9.06311427 -0.63537978 0.00000000 0.76862745 0.69019608 0.58823529
v 9.06311427 0.39462022 0.00000000 0.76862745 0.69019608 0.58823529
v 6.61311427 0.39462022 0.00000000 0.76862745 0.69019608 0.58823529
f 254 253 256
f 256 255 254
f 260 257 258
f 258 259 260
f 258 257 254
f 254 257 253
f 259 258 255
f 255 258 254
f 257 260 253
f 253 260 256
f 260 259 256
f 256 259 255

